<?xml version="1.0" encoding="UTF-8" standalone="no"?>
<svg
   xmlns:dc="http://purl.org/dc/elements/1.1/"
   xmlns:cc="http://creativecommons.org/ns#"
   xmlns:rdf="http://www.w3.org/1999/02/22-rdf-syntax-ns#"
   xmlns:svg="http://www.w3.org/2000/svg"
   xmlns="http://www.w3.org/2000/svg"
   xmlns:sodipodi="http://sodipodi.sourceforge.net/DTD/sodipodi-0.dtd"
   xmlns:inkscape="http://www.inkscape.org/namespaces/inkscape"
   width="24"
   height="24"
   version="1.1"
   id="svg16"
   sodipodi:docname="icon.svg"
   inkscape:version="0.92.4 (5da689c313, 2019-01-14)">
  <metadata
     id="metadata22">
    <rdf:RDF>
      <cc:Work
         rdf:about="">
        <dc:format>image/svg+xml</dc:format>
        <dc:type
           rdf:resource="http://purl.org/dc/dcmitype/StillImage" />
        <dc:title></dc:title>
      </cc:Work>
    </rdf:RDF>
  </metadata>
  <defs
     id="defs20" />
  <sodipodi:namedview
     pagecolor="#ffffff"
     bordercolor="#666666"
     borderopacity="1"
     objecttolerance="10"
     gridtolerance="10"
     guidetolerance="10"
     inkscape:pageopacity="0"
     inkscape:pageshadow="2"
     inkscape:window-width="1600"
     inkscape:window-height="836"
     id="namedview18"
     showgrid="false"
     inkscape:zoom="13.906433"
     inkscape:cx="13.80672"
     inkscape:cy="3.1711316"
     inkscape:window-x="0"
     inkscape:window-y="27"
     inkscape:window-maximized="1"
     inkscape:current-layer="svg16" />
  <rect
     x=".5"
     y="3.5"
     width="23"
     height="17"
     ry="4"
     fill="#aec7e2"
     stroke="#2e4e72"
     stroke-linejoin="round"
     id="rect2" />
  <path
     d="m7.86 4.92c-.216.0205-.342.208-.552.219-.118.0195-.236.039-.355.0585-.168.132.0221.277.173.267-.00146.104.235.0829.31-.0159.0385.105.112-.198.255-.135.218-.0479.456-.162.661-.169.0265.214-.243.173-.406.18-.00819.164.355.0567.398.265.136.15.208.405.145.596-.0782.106-.331-.0365-.211.186.0353.204.062.451.255.571.198.101.232-.32.354-.427.177-.0688.347-.131.448-.269.209-.107.499-.0556.66-.222.0386-.15-.0417-.466.223-.399.236-.0496.0961-.386.362-.44.0979-.0325-.051-.185-.139-.148-.152-.0951-.368.0652-.555.00473-.216-.00325-.435.0192-.649-.0287-.124-.115-.299.0444-.455.00417-.143-.00149-.288.0147-.424-.0388-.17.021-.332-.0654-.498-.0588zm8.79.588c-.21.026-.415-.0333-.534.176-.159.0991-.524-.00541-.568.199.0847.0968.04.446-.0958.238-.0424-.0928-.166-.39-.0963-.122.0546.115.181.429-.061.323-.0225-.169-.0061-.432-.212-.488-.261-.0771-.0652.316.0533.356-.122.216-.409.0498-.518-.0835-.139.115-.28.212-.454.113-.18.0892-.401.162-.535.333-.0819.135-.206.179-.28.0143-.142-.0822-.148-.217.0436-.209.127.188.329-.125.0896-.136-.194-.0924-.403-.152-.619-.181-.232-.0654-.438.0229-.585.206-.134.167-.386.284-.405.516-.165.0617-.248.0684-.217.282-.0041.122.0323.156.0772.0219.166.064.318.191.357.361.187.104.272-.206.338-.331-.0852-.162-.0515-.44.16-.52.278-.126.021.217.0443.32.0288.205.46-.0775.319.193-.0798.133-.281-.127-.191.102.0558.136-.0455.189-.148.138.0301.184-.102.295-.272.247-.132.204-.256-.121-.415.0414-.0794-.0129-.0789-.126-.153.0164-.0367.121-.266.0432-.235.239-.162.0306-.215.295-.424.253-.187-.0177-.0449.103.0266.151-.107.00186-.259.00938-.0988.117.139.107.141.375-.0604.405-.176-.174-.452-.0957-.377.181-.0166.182-.0824.497.206.457.156.126.433-.128.401-.31.0327-.142.202-.154.232-.302.0429-.195.335.078.281-.166.0191-.0794.207.0118.198.122.133.115.395.231.381.422-.0081.134-.288.088-.0922.18.11-.0683.151-.228.182-.31.167.0936-.0745-.219-.162-.229-.11-.0433-.331-.46-.0738-.296.124.139.297.242.384.374.0138.167.123.395.226.492.0922.032.0385-.148.121-.158-.124-.0863-.121-.298.0447-.197.27-.242.0378.248.213.324.149.172.402.0552.596.0959.0843.173-.0227.403-.114.561-.198.066-.442.0126-.64-.0242-.127.0202-.278-.162-.319-.161.0328.227-.169.383-.334.175-.119-.138-.299-.0523-.367-.229-.21-.0412.127-.438-.0982-.385-.159.0894-.35.0466-.553.12-.136.121-.332.0147-.484.104-.0553-.163-.0944.0304-.149.0901-.0401.0757-.129.107-.179.168-.0654.176-.0459.356-.231.473-.137.174-.264.365-.31.586-.113.169.0158.361-.0269.541-.0435.212-.123.457-.00209.643.187.145.185.412.346.579.103.146.298.285.471.177.111-.0781.278-.0318.405-.127.126-.0631.312-.0775.398.0517.0287.183.192.0387.261.166.131.165.0566.388.0148.57.134.179.23.381.282.601.0624.2.0736.41.067.618-.0458.165-.162.311-.136.492.0174.195.17.369.185.574.103.206.0116.462.129.659.17.177.125.43.219.638.102.102.198-.0515.324-.0151.183-.0714.31-.186.421-.357.148-.155.246-.329.303-.538.11-.144.244-.241.156-.431-.0557-.16.105-.403.236-.531.234-.129.196-.418.181-.643-.0154-.25-.188-.521-.0394-.757.122-.197.249-.39.354-.597.199-.189.285-.456.425-.685.0209-.117.174-.516-.046-.338-.164-.024-.368.047-.505.0127-.0289-.283-.195-.522-.361-.742-.0943-.204-.164-.418-.236-.632-.0333-.199-.201-.508-.209-.608.0759.113.234.0258.255.217.185.24.191.567.384.803.175.202.12.513.286.697.11.0536.235-.0461.317-.115.185-.129.402-.211.527-.411.0393-.172.318-.338.218-.503-.171-.052-.183-.34-.255-.391-.0671.144-.284.38-.409.173-.08-.199-.189-.444-.15-.662.0814.146.225.317.397.36.203-.0438.252.134.405.205.161.0442.326-.001.488.031.197.103.29.33.444.475.102-.027.164-.15.186.0096-.0099.247.0482.487.155.719.0627.206.101.417.182.617.228-.0049.246-.295.216-.474-.037-.221.0416-.516.245-.633.154-.0858.212-.396.395-.379.265-.0148.276.288.401.445.184.0232.037.461.239.232.122.113.137.345.121.511-.0297.126.079.472.0818.163-.0092-.0947-.0285-.434.106-.357.0912.153.188.396.353.447.152-.145.37-.382.219-.598-.0403-.227-.3-.366-.311-.573.0497-.145.184-.375.308-.147.0307.102-.0207.472.0922.201.0815-.166.104-.385.319-.426.223-.0752.297-.349.319-.559-.0221-.227-.134-.39-.27-.566-.149-.134.0194-.273.0167-.404-.149.0721-.504.0474-.283-.176.0252-.108.233-.387.228-.122.0226.204.112.0636.194.0303.116.121.0322.257.235.306.0201.109.0389.408.207.227.214-.21-.098-.345-.216-.493-.0223-.149.0677-.309.12-.423.21.0748.258-.19.259-.324.0084-.213.0554-.418-.119-.578-.0433-.267-.356-.101-.493-.198-.125-.00915-.0932-.369.0224-.447.101-.244.339-.0889.527-.0794.142.12.231-.00478.201-.16.0316-.133.129-.183.208-.0546.091-.0985.209-.159.221.0329.0322.184-.179.392.0275.564.148.0954.152.329.326.438.0951.0176.0085-.278.0648-.377-.0019-.162-.0786-.312-.229-.352-.0751-.149.17-.286.247-.284-.0126.0806-.0412.237.0558.0877.108-.124.103-.238.257-.188.0674-.114-.192-.168-.27-.264-.0569-.0505.129-.049.117-.138.116-.0195.423.195.433.0865-.122-.263-.43-.154-.637-.236-.19-.0937-.413-.101-.617-.16-.163-.093-.12.228-.282.0722-.211-.0944-.45-.0633-.667-.11-.156-.134-.399-.0415-.591-.0679-.171.0483-.364-.197-.461-.159-.0665.296-.363.147-.568.139-.202-.0152-.352-.213-.568-.119-.197.146-.384-.0499-.579-.0364-.151.061-.314-.012-.152-.16.147-.196-.289-.0618-.363-.159l-.0297-3.6e-5zm-11.7.18c-.101-.0131-.368.219-.148.215.135.0249.202.0149.16.18.119.211.347-.0353.501.0876.147-.0564.333-.0669.261-.275.0481-.206-.192.0339-.292-.0101-.2.0713-.254-.273-.481-.198zm1.79.0469c-.142.0467-.169.328-.0134.294.0586-.165.313.00351.411.0461.0879.17.132.418-.115.466-.101.151.244.304.376.282.00658-.0553-.0973-.31.0586-.201.198.0793-.163-.396.0974-.192.0608-.0208.046-.146.0197-.211-.0197-.0726-.0871-.122-.127-.186.12-.199-.25-.14-.325-.287-.138-.0523-.311.166-.382-.012zm-.5.195c-.232.0124-.153.396-.385.422-.157-.137-.407-.126-.594-.0879-.0741.119-.0907.161-.185.0551-.11-.022-.224-.0566-.236-.146-.214.00568-.418-.0415-.622-.0687-.251-.0311-.466.206-.709.126-.0862-.124-.116-.303-.319-.239-.245-.0128-.482.112-.726.078-.147.109-.431.0534-.503.228.141.16-.0635.214-.18.118-.245-.0188-.0833.319.045.128.16-.0065-.1.251-.201.193-.18-.0349-.307.172-.278.313.0532.0799.242.0808.121.214.178-.0711.386-.155.523-.267-.0179.205.221-.156.331-.0192.144.0477.396.0117.446.178.178.0205.116.304.114.441-.0819.2.0894.435.0106.617-.118.0263-.056.211-.146.287-.12.151-.18.338-.289.492-.0791.203-.0327.475.0327.691.173.136.216.318.199.535.0404.142.0583.29.121.427.0755.0886.092.307.0709.0756-.00749-.234-.129-.448-.137-.674.157-.143.139.303.215.395.0456.189.18.325.226.517.121.17-.0346.409.204.502.142.146.358.307.561.229.157-.000915.23.281.422.245.167.0217.225.253.248.404.0536.124.181.123.262.207.124.107.0863-.0247.0046-.0862-.199-.142-.132-.411-.114-.617.0916-.242-.292-.145-.328-.181-.00125-.18.268-.472.0559-.58-.219-.0021-.147.469-.458.335-.214-.0706-.263-.331-.188-.52.0709-.234.057-.513.303-.637.115-.0532.29-.183.337-.0081.175.0829.162-.278.343-.141.181.0416.241.204.225.375.00487.104.0854.29.146.0923.084-.2-.12-.46.0456-.634.143-.144.306-.266.455-.403.0505-.208.242-.343.332-.524.0931-.119.276-.0146.256-.22.115-.17.311-.258.489-.329-.159.0263-.179.439-.0051.186.0492-.169.381-.0719.327-.285-.127.136-.472.0133-.196-.127.0546-.166-.477.0893-.282-.131.208-.136.465-.109.7-.121.123-.0827.399-.311.178-.427-.0436.138-.131-.17-.157-.22.0285-.117.065-.436-.124-.251-.137.169-.267.0793-.23-.108-.0666-.192-.375-.239-.438-.0086-.0712.0941-.161-.00496-.141.174-.00792.167.0811.369-.16.384-.227.00918-.064.454-.327.315-.179-.0962.138-.355-.0628-.346-.178-.0281-.402-.0975-.434-.298-.022-.237.241-.376.421-.471.152-.0713.345-.0997.298-.318.0918.0192.0893.187.165.0376.0986-.101.527-.169.353-.34-.0825.0528-.398.3-.315.0411-.167.00581-.0145-.216-.115-.225zm-.662 6.16c-.0829.177-.256.266-.363.455.0155.178.102.304-.00259.472-.0971.169-.157.359-.268.521-.00739.133.124.256-.0238.355-.0423.176.158.287.191.454.115.209.111.482.307.642.122.159.288.311.44.401.146.211-.00729.498.055.746-.00411.25.0209.498.0323.748.016.287.0325.574.0491.861.118.15.186.36.206.534-.106.128-.0259.257.0345.385.0603.149.13.309.282.383.128.0923.215.0182.13-.108.0121-.146.203-.514-.056-.498.0128-.171.197-.359.0112-.506-.0468-.229.207.0874.182-.155-.0615-.194.0489-.187.164-.156.117-.118.245-.312.0192-.401-.0974-.112-.0222-.174.0737-.0661.22.106.235-.233.363-.347-.014-.155.118-.357.147-.535-.14-.257.2-.275.357-.355.174-.0797.177-.335.217-.499.0314-.254.0375-.511.104-.76.0349-.189.233-.315.223-.532-.00986-.172-.221-.213-.318-.329-.129-.0951-.307-.106-.432-.0997-.0571-.128-.239-.213-.292-.179.0398-.178-.416.12-.19-.0967.134-.188-.0158-.442-.181-.559-.208.0571-.273-.242-.432-.33-.155-.0224-.265-.181-.289-.26-.21.0383-.369 6.6e-5-.517-.15-.0073.102-.143.474-.126.184-.0113-.0713-.0599-.16-.0988-.22zm14.4.639c-.0543.237-.356.204-.352.46-.0612.0633-.0274.194-.162.103-.0575.155.0015.541.24.475.144.0593.277.0124.268-.154.1-.143.187-.292.0888-.467.0455-.15.126-.343-.0829-.416zm-1.55.135c.026.169.195.362.255.552.12.204.195.433.327.629.184.166.2-.221.0982-.321-.115-.159-.151-.379-.301-.509-.212-.0161-.18-.333-.379-.352zm2.82.633c-.149.0016-.148.0669-.0411.143.112.063-.0938.185.0947.213.2.0368.435.186.336.418.138.0129.338.247.447.0194.175.0216.239.348.462.318.137-.0418-.166-.221-.208-.31-.098-.0605.0564-.157-.0672-.204-.0449-.233-.319-.255-.487-.37-.113-.0806-.241-.123-.267.0598-.223.218-.173-.237-.268-.286zm.656 1.19c-.0445.183-.0687.42-.178.598-.157.112-.275-.101-.357-.209-.0093-.153.153-.373-.118-.328-.175-.0368-.305.183-.358.301.0182.165-.186-.0037-.178-.0911-.151-.0127-.235.233-.28.355-.131-.192-.0848.203-.242.231-.184.121-.401.156-.556.317-.0617.208-.0502.446-.0859.665.0077.174.0671.432-.0222.561-.0408.216.306.0142.426-.0041.163-.0407.303-.102.454-.188.147-.0312.373-.133.454.0532.0853.0769.0179.283.177.132.0636-.0335.19-.175.117-.0029-.072.151.0612.274.0201.435.0594.159.334.0235.32.152.217-.107.417-.245.533-.462.159-.147.283-.349.352-.55.0423-.192.116-.4.0449-.594.0101-.167-.249-.203-.213-.413-.0066-.147-.226-.153-.123-.32-.0055-.227-.119-.426-.188-.636zm-7.08.115c-.0246.128-.0866.242-.209.295-.138.0822-.239.133-.168.313.0384.239-.167.372-.108.607.026.0956.067.24.19.153.202-.0862.0667-.379.204-.541.0814-.189.109-.394.133-.597.0058-.0792-.0288-.154-.043-.231z"
     fill="#2e4e72"
     stroke="#fff"
     stroke-width=".075"
     id="path4" />
  <path
     d="m1.05 8.5h22.1"
     fill="none"
     stroke="#fff"
     stroke-width=".6"
     id="path6" />
  <path
     d="m15.5 3.81v16.4"
     fill="none"
     stroke="#fff"
     stroke-width=".6"
     id="path8" />
  <path
     d="m8.5 3.52v16.5"
     fill="none"
     stroke="#fff"
     stroke-width=".6"
     id="path10" />
  <path
     d="m.914 15.5h22.2"
     fill="none"
     stroke="#fff"
     stroke-width=".6"
     id="path12" />
  <rect
     x=".5"
     y="3.5"
     width="23"
     height="17"
     ry="4"
     fill="none"
     stroke="#385f8b"
     stroke-linejoin="round"
     id="rect14" />
  <path
     style="fill:#ec2606;stroke:#ffffff;stroke-width:0.26333982;stroke-opacity:1"
     inkscape:connector-curvature="0"
     id="path10-3"
     d="M 7.037829,23.544246 C 6.658679,23.302568 6.516371,23.046088 6.516371,22.60337 c 0,-0.714134 0.981002,-1.67035 2.664215,-2.5975 1.003088,-0.552388 1.077889,-0.404502 0.147238,0.290794 -1.129537,0.843989 -2.114696,2.123025 -2.122292,2.755614 -0.0033,0.265496 0.123693,0.222839 0.662132,-0.221628 1.500057,-1.238533 4.510786,-6.371231 5.569597,-9.494744 l 0.172154,-0.507982 -0.372723,-1.537535 c -0.288005,-1.188205 -0.381453,-1.794016 -0.411184,-2.665186 -0.04324,-1.270963 0.02287,-1.495417 0.551507,-1.867622 1.045302,-0.735665 1.883146,0.284469 1.741021,2.11993 -0.03289,0.425089 -0.21105,1.360179 -0.395843,2.078082 l -0.335983,1.305007 0.329556,0.71844 c 0.655786,1.429077 1.815122,2.918572 2.816056,3.617366 l 0.514998,0.359691 0.932226,-0.13591 c 1.124196,-0.1639 2.859474,-0.186776 3.347661,-0.04575 0.195077,0.05652 0.471063,0.215707 0.613322,0.353501 0.500407,0.484298 0.278941,1.472541 -0.457792,2.042691 -0.203923,0.158517 -0.460562,0.222435 -0.994807,0.250559 -1.073599,0.05652 -2.016623,-0.279625 -3.632714,-1.296395 l -0.584626,-0.367496 -1.279858,0.271955 c -0.703931,0.150309 -1.894214,0.467747 -2.645102,0.707137 -1.364741,0.434913 -1.365343,0.435182 -1.619145,0.886108 -1.175276,2.087501 -2.41614,3.632302 -3.188879,3.969656 -0.482748,0.210728 -1.124528,0.189736 -1.499189,-0.04844 z m 15.29425,-4.825891 c 0.498773,-0.144791 0.797328,-0.413651 0.713196,-0.642546 -0.03707,-0.09958 -0.249395,-0.284873 -0.472132,-0.409345 -0.369634,-0.206422 -0.52902,-0.224588 -1.827841,-0.207902 -0.782589,0.01749 -1.533277,0.06325 -1.668224,0.119762 -0.228845,0.09419 -0.188381,0.127837 0.603206,0.519823 0.750888,0.371399 1.717149,0.695161 2.144459,0.718306 0.08096,0 0.309257,-0.04171 0.507336,-0.09689 z m -7.378124,-1.069923 c 0.459661,-0.13887 1.023436,-0.283931 1.252815,-0.320936 0.22938,-0.03633 0.41706,-0.07536 0.41706,-0.08343 0,-0.01749 -0.225272,-0.268591 -0.500592,-0.576206 -0.592688,-0.661923 -1.353257,-1.762393 -1.785726,-2.583506 -0.170703,-0.324301 -0.33331,-0.58872 -0.361338,-0.587778 -0.02805,9.42e-4 -0.204156,0.515113 -0.39142,1.142588 -0.266387,0.892971 -1.039126,3.013036 -1.439193,3.948664 -0.02855,0.06728 0.403538,-0.05921 0.960303,-0.280971 0.556781,-0.222032 1.388429,-0.51767 1.848091,-0.657483 z M 14.675314,9.658928 c 0.243485,-0.969809 0.213187,-1.777733 -0.08213,-2.191116 -0.778382,-1.089031 -1.061494,1.184976 -0.456838,3.66877 0.05675,0.232931 0.07462,0.214496 0.198814,-0.205077 0.07512,-0.253654 0.228127,-0.826361 0.340188,-1.272577 z" />
  <path
     style="fill:#ffffff;stroke:#ec2606;stroke-width:0.26333982;opacity:0"
     inkscape:connector-curvature="0"
     id="path10-3-6"
     d="M 7.5428286,23.531546 C 7.1636794,23.289868 7.0213711,23.033388 7.0213711,22.59067 c 0,-0.714134 0.9810016,-1.67035 2.6642154,-2.5975 1.0030875,-0.552388 1.0778885,-0.404502 0.1472376,0.290794 -1.1295373,0.843989 -2.1146965,2.123025 -2.1222921,2.755614 -0.0033,0.265496 0.123693,0.222839 0.6621323,-0.221628 1.5000568,-1.238533 4.5107857,-6.371231 5.5695967,-9.494744 l 0.172154,-0.507982 -0.372723,-1.537535 c -0.288005,-1.188205 -0.381453,-1.7940162 -0.411184,-2.6651865 -0.04324,-1.2709626 0.02287,-1.4954164 0.551507,-1.867622 1.045302,-0.7356647 1.883146,0.2844695 1.741021,2.1199306 -0.03289,0.4250887 -0.21105,1.3601789 -0.395843,2.0780819 l -0.335983,1.305007 0.329556,0.71844 c 0.655786,1.429077 1.815122,2.918572 2.816056,3.617366 l 0.514998,0.359691 0.932226,-0.13591 c 1.124196,-0.1639 2.859474,-0.186776 3.347661,-0.04575 0.195077,0.05652 0.471063,0.215707 0.613322,0.353501 0.500407,0.484298 0.278941,1.472541 -0.457792,2.042691 -0.203923,0.158517 -0.460562,0.222435 -0.994807,0.250559 -1.073599,0.05652 -2.016623,-0.279625 -3.632714,-1.296395 l -0.584626,-0.367496 -1.279858,0.271955 c -0.703931,0.150309 -1.894214,0.467747 -2.645102,0.707137 -1.364741,0.434913 -1.365343,0.435182 -1.619145,0.886108 -1.175276,2.087501 -2.4161397,3.632302 -3.1888789,3.969656 -0.4827478,0.210728 -1.1245284,0.189736 -1.499189,-0.04844 z M 22.837079,18.705655 c 0.498773,-0.144791 0.797328,-0.413651 0.713196,-0.642546 -0.03707,-0.09958 -0.249395,-0.284873 -0.472132,-0.409345 -0.369634,-0.206422 -0.52902,-0.224588 -1.827841,-0.207902 -0.782589,0.01749 -1.533277,0.06325 -1.668224,0.119762 -0.228845,0.09419 -0.188381,0.127837 0.603206,0.519823 0.750888,0.371399 1.717149,0.695161 2.144459,0.718306 0.08096,0 0.309257,-0.04171 0.507336,-0.09689 z m -7.378124,-1.069923 c 0.459661,-0.13887 1.023436,-0.283931 1.252815,-0.320936 0.22938,-0.03633 0.41706,-0.07536 0.41706,-0.08343 0,-0.01749 -0.225272,-0.268591 -0.500592,-0.576206 -0.592688,-0.661923 -1.353257,-1.762393 -1.785726,-2.583506 -0.170703,-0.324301 -0.33331,-0.58872 -0.361338,-0.587778 -0.02805,9.42e-4 -0.204156,0.515113 -0.39142,1.142588 -0.266387,0.892971 -1.039126,3.013036 -1.439193,3.948664 -0.02855,0.06728 0.403538,-0.05921 0.960303,-0.280971 0.556781,-0.222032 1.388429,-0.51767 1.848091,-0.657483 z M 15.180314,9.6462278 c 0.243485,-0.9698085 0.213187,-1.777733 -0.08213,-2.1911155 -0.778382,-1.0890312 -1.061494,1.1849759 -0.456838,3.6687697 0.05675,0.232931 0.07462,0.214496 0.198814,-0.205077 0.07512,-0.253654 0.228127,-0.826361 0.340188,-1.2725772 z" />
</svg>
