<svg height='100px' width='100px'  fill="#000000" xmlns:x="http://ns.adobe.com/Extensibility/1.0/" xmlns:i="http://ns.adobe.com/AdobeIllustrator/10.0/" xmlns:graph="http://ns.adobe.com/Graphs/1.0/" xmlns="http://www.w3.org/2000/svg" xmlns:xlink="http://www.w3.org/1999/xlink" version="1.1" x="0px" y="0px" viewBox="0 0 100 100" style="enable-background:new 0 0 100 100;" xml:space="preserve"><g><g i:extraneous="self"><g><path d="M32.7,50.7c0-0.5,0.4-0.9,0.9-0.9h5.6c0.5,0,0.9,0.4,0.9,0.9v12H60V5.5c0-1.6-1.3-3-2.9-3H15.7c-1.6,0-2.9,1.3-2.9,3     v57.3h19.9V50.7z M46.4,9.7c0-0.5,0.4-0.9,0.9-0.9h5.6c0.5,0,0.9,0.4,0.9,0.9v5.6c0,0.5-0.4,0.9-0.9,0.9h-5.6     c-0.5,0-0.9-0.4-0.9-0.9V9.7z M46.4,23.4c0-0.5,0.4-0.9,0.9-0.9h5.6c0.5,0,0.9,0.4,0.9,0.9V29c0,0.5-0.4,0.9-0.9,0.9h-5.6     c-0.5,0-0.9-0.4-0.9-0.9V23.4z M46.4,37c0-0.5,0.4-0.9,0.9-0.9h5.6c0.5,0,0.9,0.4,0.9,0.9v5.6c0,0.5-0.4,0.9-0.9,0.9h-5.6     c-0.5,0-0.9-0.4-0.9-0.9V37z M46.4,50.7c0-0.5,0.4-0.9,0.9-0.9h5.6c0.5,0,0.9,0.4,0.9,0.9v5.6c0,0.5-0.4,0.9-0.9,0.9h-5.6     c-0.5,0-0.9-0.4-0.9-0.9V50.7z M32.7,9.7c0-0.5,0.4-0.9,0.9-0.9h5.6c0.5,0,0.9,0.4,0.9,0.9v5.6c0,0.5-0.4,0.9-0.9,0.9h-5.6     c-0.5,0-0.9-0.4-0.9-0.9V9.7z M32.7,23.4c0-0.5,0.4-0.9,0.9-0.9h5.6c0.5,0,0.9,0.4,0.9,0.9V29c0,0.5-0.4,0.9-0.9,0.9h-5.6     c-0.5,0-0.9-0.4-0.9-0.9V23.4z M32.7,37c0-0.5,0.4-0.9,0.9-0.9h5.6c0.5,0,0.9,0.4,0.9,0.9v5.6c0,0.5-0.4,0.9-0.9,0.9h-5.6     c-0.5,0-0.9-0.4-0.9-0.9V37z M26.4,56.4c0,0.5-0.4,0.9-0.9,0.9h-5.6c-0.5,0-0.9-0.4-0.9-0.9v-5.6c0-0.5,0.4-0.9,0.9-0.9h5.6     c0.5,0,0.9,0.4,0.9,0.9V56.4z M26.4,42.7c0,0.5-0.4,0.9-0.9,0.9h-5.6c-0.5,0-0.9-0.4-0.9-0.9V37c0-0.5,0.4-0.9,0.9-0.9h5.6     c0.5,0,0.9,0.4,0.9,0.9V42.7z M26.4,29c0,0.5-0.4,0.9-0.9,0.9h-5.6c-0.5,0-0.9-0.4-0.9-0.9v-5.6c0-0.5,0.4-0.9,0.9-0.9h5.6     c0.5,0,0.9,0.4,0.9,0.9V29z M26.4,15.3c0,0.5-0.4,0.9-0.9,0.9h-5.6c-0.5,0-0.9-0.4-0.9-0.9V9.7c0-0.5,0.4-0.9,0.9-0.9h5.6     c0.5,0,0.9,0.4,0.9,0.9V15.3z"></path><path d="M68.9,44.5c0,3.4,2.7,6.1,6.1,6.1c0.6,0,1.1-0.1,1.7-0.3v12.4h4.6V50.3c0.5,0.2,1.1,0.3,1.7,0.3c3.4,0,6.1-2.7,6.1-6.1     c0-1.3-0.4-2.5-1.1-3.5c1.2-1.2,2-2.9,2-4.7c0-2.5-1.4-4.7-3.5-5.8c-0.2-4-3.4-7.2-7.5-7.2c-2,0-3.8,0.8-5.2,2.1     c-1.3,1.3-2.2,3.1-2.3,5.1c-2,1.1-3.5,3.3-3.5,5.8c0,1.8,0.8,3.5,2,4.7C69.3,42,68.9,43.2,68.9,44.5z"></path><path d="M7.2,70.8h85.6c1.3,0,2.3-1,2.3-2.3c0-1.3-1-2.3-2.3-2.3H7.2c-1.3,0-2.3,1-2.3,2.3C4.9,69.8,5.9,70.8,7.2,70.8z"></path><path d="M10,79.6c-1.3,0-2.3,1-2.3,2.3c0,1.3,1,2.3,2.3,2.3h5.5c1.3,0,2.3-1,2.3-2.3c0-1.3-1-2.3-2.3-2.3H10z"></path><path d="M24.9,79.6c-1.3,0-2.3,1-2.3,2.3c0,1.3,1,2.3,2.3,2.3h5.5c1.3,0,2.3-1,2.3-2.3c0-1.3-1-2.3-2.3-2.3H24.9z"></path><path d="M39.8,79.6c-1.3,0-2.3,1-2.3,2.3c0,1.3,1,2.3,2.3,2.3h5.5c1.3,0,2.3-1,2.3-2.3c0-1.3-1-2.3-2.3-2.3H39.8z"></path><path d="M54.7,79.6c-1.3,0-2.3,1-2.3,2.3c0,1.3,1,2.3,2.3,2.3h5.5c1.3,0,2.3-1,2.3-2.3c0-1.3-1-2.3-2.3-2.3H54.7z"></path><path d="M69.6,79.6c-1.3,0-2.3,1-2.3,2.3c0,1.3,1,2.3,2.3,2.3h5.5c1.3,0,2.3-1,2.3-2.3c0-1.3-1-2.3-2.3-2.3H69.6z"></path><path d="M84.5,79.6c-1.3,0-2.3,1-2.3,2.3c0,1.3,1,2.3,2.3,2.3H90c1.3,0,2.3-1,2.3-2.3c0-1.3-1-2.3-2.3-2.3H84.5z"></path><path d="M92.8,92.9H7.2c-1.3,0-2.3,1-2.3,2.3c0,1.3,1,2.3,2.3,2.3h85.6c1.3,0,2.3-1,2.3-2.3C95.1,93.9,94.1,92.9,92.8,92.9z"></path></g></g></g></svg>
