<?xml version="1.0" encoding="UTF-8"?>
<svg width="610px" height="357px" viewBox="0 0 610 357" version="1.1" xmlns="http://www.w3.org/2000/svg" xmlns:xlink="http://www.w3.org/1999/xlink">
    <title>Group 6</title>
    <defs>
        <linearGradient x1="0%" y1="50.5%" x2="100%" y2="50.5%" id="linearGradient-1">
            <stop stop-color="#808080" stop-opacity="0.25" offset="0%"></stop>
            <stop stop-color="#808080" stop-opacity="0.12" offset="54%"></stop>
            <stop stop-color="#808080" stop-opacity="0.1" offset="100%"></stop>
        </linearGradient>
        <linearGradient x1="0%" y1="49.5%" x2="100.840336%" y2="49.5%" id="linearGradient-2">
            <stop stop-color="#808080" stop-opacity="0.25" offset="0%"></stop>
            <stop stop-color="#808080" stop-opacity="0.12" offset="54%"></stop>
            <stop stop-color="#808080" stop-opacity="0.1" offset="100%"></stop>
        </linearGradient>
        <linearGradient x1="0%" y1="50.5%" x2="100.840336%" y2="50.5%" id="linearGradient-3">
            <stop stop-color="#808080" stop-opacity="0.25" offset="0%"></stop>
            <stop stop-color="#808080" stop-opacity="0.12" offset="54%"></stop>
            <stop stop-color="#808080" stop-opacity="0.1" offset="100%"></stop>
        </linearGradient>
    </defs>
    <g id="Page-1" stroke="none" stroke-width="1" fill="none" fill-rule="evenodd">
        <g id="Group-6" fill-rule="nonzero">
            <path d="M29,303 C29.0071623,293.609061 36.6162233,286 46,286 C55.3837767,286 62.9928377,293.609061 63,303" id="Path" fill="#F2F2F2"></path>
            <path d="M45.5,303 C45.2437985,303 45.0361142,302.79175 45.03607,302.534892 L45.03607,293.465118 C45.03607,293.20824 45.2437785,293 45.5,293 C45.7562215,293 45.96393,293.20824 45.96393,293.465118 L45.96393,302.534892 C45.9638858,302.79175 45.7562015,303 45.5,303 L45.5,303 Z" id="Path" fill="#CCCCCC"></path>
            <path d="M45.5713948,299.999905 C45.4690577,300 45.3700854,299.958312 45.292548,299.882286 L40.1522657,294.860384 C40.0345654,294.747436 39.9791632,294.571282 40.0071458,294.398967 C40.0351284,294.226652 40.1421917,294.084682 40.2875861,294.027092 C40.4329805,293.969502 40.5943421,294.005151 40.7102547,294.120469 L45.8505925,299.142371 C45.9866236,299.275261 46.0355766,299.490511 45.9732812,299.681842 C45.9109859,299.873174 45.7506178,300.000119 45.5713579,300 L45.5713948,299.999905 Z" id="Path" fill="#CCCCCC"></path>
            <path d="M81,303 C81.0071623,293.609061 88.6162233,286 98,286 C107.383777,286 114.992838,293.609061 115,303" id="Path" fill="#F2F2F2"></path>
            <path d="M97.5,303 C97.2437847,303 97.036081,302.791763 97.03607,302.534892 L97.03607,293.465118 C97.03607,293.20824 97.2437785,293 97.5,293 C97.7562215,293 97.96393,293.20824 97.96393,293.465118 L97.96393,302.534892 C97.9638858,302.79175 97.7562015,303 97.5,303 L97.5,303 Z" id="Path" fill="#CCCCCC"></path>
            <path d="M97.5714117,299.999905 C97.4690801,300 97.3701132,299.958314 97.2925801,299.882292 L92.1525314,294.860636 C92.0346845,294.747734 91.9791656,294.571502 92.0071267,294.399082 C92.0350878,294.226663 92.1422231,294.084608 92.287715,294.02704 C92.4332069,293.969472 92.5946501,294.005255 92.7105362,294.120757 L97.8505849,299.142413 C97.9866181,299.27529 98.0355763,299.490533 97.9732849,299.68186 C97.9109935,299.873186 97.7506284,300.000127 97.5713748,300 L97.5714117,299.999905 Z" id="Path" fill="#CCCCCC"></path>
            <ellipse id="Oval" fill="#F2F2F2" cx="106.5" cy="332" rx="29.5" ry="7"></ellipse>
            <path d="M512.024096,274.789474 C512.563073,274.789474 513,274.35354 513,273.815789 C513,273.278039 512.563073,272.842105 512.024096,272.842105 L502.753012,272.842105 L502.753012,268.947368 L512.024096,268.947368 C512.563073,268.947368 513,268.511435 513,267.973684 C513,267.435933 512.563073,267 512.024096,267 L432.975904,267 C432.436927,267 432,267.435933 432,267.973684 C432,268.511435 432.436927,268.947368 432.975904,268.947368 L442.246988,268.947368 L442.246988,272.842105 L432.975904,272.842105 C432.436927,272.842105 432,273.278039 432,273.815789 C432,274.35354 432.436927,274.789474 432.975904,274.789474 L442.246988,274.789474 L442.246988,278.684211 L432.975904,278.684211 C432.436927,278.684211 432,279.120144 432,279.657895 C432,280.195646 432.436927,280.631579 432.975904,280.631579 L442.246988,280.631579 L442.246988,284.526316 L433.951807,284.526316 C432.873854,284.526316 432,285.398182 432,286.473684 C432,287.549186 432.873854,288.421053 433.951807,288.421053 L441.848624,288.421053 C441.791042,288.577018 441.760739,288.741693 441.759036,288.907895 L441.759036,302.539474 C441.759036,303.3461 442.414427,304 443.222892,304 C444.031357,304 444.686747,303.3461 444.686747,302.539474 L444.686747,288.907895 C444.685048,288.741694 444.654748,288.577019 444.597169,288.421053 L500.402841,288.421053 C500.345259,288.577018 500.314956,288.741693 500.313253,288.907895 L500.313253,302.539474 C500.313253,303.3461 500.968643,304 501.777108,304 C502.585573,304 503.240964,303.3461 503.240964,302.539474 L503.240964,288.907895 C503.239265,288.741694 503.208965,288.577019 503.151386,288.421053 L511.048193,288.421053 C512.126146,288.421053 513,287.549186 513,286.473684 C513,285.398182 512.126146,284.526316 511.048193,284.526316 L502.753012,284.526316 L502.753012,280.631579 L512.024096,280.631579 C512.563073,280.631579 513,280.195646 513,279.657895 C513,279.120144 512.563073,278.684211 512.024096,278.684211 L502.753012,278.684211 L502.753012,274.789474 L512.024096,274.789474 Z M444.198795,268.947368 L500.801205,268.947368 L500.801205,272.842105 L444.198795,272.842105 L444.198795,268.947368 Z M500.801205,284.526316 L444.198795,284.526316 L444.198795,280.631579 L500.801205,280.631579 L500.801205,284.526316 Z M500.801205,278.684211 L444.198795,278.684211 L444.198795,274.789474 L500.801205,274.789474 L500.801205,278.684211 Z" id="Shape" fill="#3F3D56"></path>
            <path d="M213,233.548729 C213,216.190417 198.896904,175 181.499966,175 C164.103027,175 150,216.190417 150,233.548729 C150,250.918786 164.10303,265 181.5,265 C198.89697,265 213,250.918786 213,233.548729 L213,233.548729 Z" id="Path" fill="#008C6F"></path>
            <path d="M205,233.548729 C205,216.190417 190.896904,175 173.499966,175 C156.103027,175 142,216.190417 142,233.548729 C142,250.918786 156.10303,265 173.5,265 C190.89697,265 205,250.918786 205,233.548729 L205,233.548729 Z" id="Path" fill="#A3D2C8"></path>
            <path d="M175,304 C174.447727,304 174.000028,303.557877 174,303.012515 L174,214.987485 C174,214.442112 174.447715,214 175,214 C175.552285,214 176,214.442112 176,214.987485 L176,303.012515 C176,303.557888 175.552285,304 175,304 Z" id="Path" fill="#354052"></path>
            <path d="M173.994685,230 C173.592364,230 173.229697,229.757532 173.075747,229.385847 C172.921797,229.014161 173.006872,228.586344 173.291313,228.301829 L186.301839,215.291346 C186.690317,214.902884 187.320164,214.902885 187.708642,215.291347 C188.097119,215.679809 188.097119,216.30963 187.708642,216.698092 L174.698126,229.708574 C174.511794,229.895485 174.258613,230.000374 173.994685,230 L173.994685,230 Z" id="Path" fill="#354052"></path>
            <path d="M536,304 C535.447727,304 535.000028,303.557877 535,303.012515 L535,214.987485 C535,214.442112 535.447715,214 536,214 C536.552285,214 537,214.442112 537,214.987485 L537,303.012515 C537,303.557888 536.552285,304 536,304 Z" id="Path" fill="#3F3D56"></path>
            <path d="M278.5,45 L262.5,45 C260.015861,44.9973043 258.002756,43.0279622 258,40.5978261 L258,4.40217391 C258.002756,1.97203785 260.015861,0.0026956609 262.5,0 L278.5,0 C280.984139,0.0026956609 282.997244,1.97203785 283,4.40217391 L283,40.5978261 C282.997244,43.0279622 280.984139,44.9973043 278.5,45 Z" id="Path" fill="#A3D2C8"></path>
            <path d="M340.671717,304 L260.328283,304 C255.730844,303.995995 252.005173,301.111348 252,297.551724 L252,46.4482759 C252.005173,42.8886517 255.730844,40.0040051 260.328283,40 L340.671717,40 C345.269174,40.0039718 348.99487,42.8886379 349,46.4482759 L349,297.551724 C348.99487,301.111362 345.269174,303.996028 340.671717,304 Z" id="Path" fill="#A3D2C8"></path>
            <path d="M292.671717,304 L212.328283,304 C207.730844,303.995995 204.005173,301.111348 204,297.551724 L204,46.4482759 C204.005173,42.8886517 207.730844,40.0040051 212.328283,40 L292.671717,40 C297.269156,40.0040051 300.994827,42.8886517 301,46.4482759 L301,297.551724 C300.994827,301.111348 297.269156,303.995995 292.671717,304 Z" id="Path" fill="#DFE2E5"></path>
            <path d="M264.5,45 L248.5,45 C246.015861,44.9973043 244.002756,43.0279622 244,40.5978261 L244,4.40217391 C244.002756,1.97203785 246.015861,0.0026956609 248.5,0 L264.5,0 C266.984139,0.0026956609 268.997244,1.97203785 269,4.40217391 L269,40.5978261 C268.997244,43.0279622 266.984139,44.9973043 264.5,45 Z" id="Path" fill="#DFE2E5"></path>
            <path d="M243.5,88 L224.5,88 C223.119941,87.9984703 222.001576,86.912998 222,85.5735294 L222,57.4264706 C222.001576,56.087002 223.119941,55.0015297 224.5,55 L243.5,55 C244.880059,55.0015297 245.998424,56.087002 246,57.4264706 L246,85.5735294 C245.998424,86.912998 244.880059,87.9984703 243.5,88 L243.5,88 Z" id="Path" fill="#FFFFFF"></path>
            <path d="M279.5,88 L260.5,88 C259.119941,87.9984703 258.001576,86.912998 258,85.5735294 L258,57.4264706 C258.001576,56.087002 259.119941,55.0015297 260.5,55 L279.5,55 C280.880059,55.0015297 281.998424,56.087002 282,57.4264706 L282,85.5735294 C281.998424,86.912998 280.880059,87.9984703 279.5,88 L279.5,88 Z" id="Path" fill="#008C6F"></path>
            <path d="M243.5,140 L224.5,140 C223.119941,139.99847 222.001576,138.912998 222,137.573529 L222,109.426471 C222.001576,108.087002 223.119941,107.00153 224.5,107 L243.5,107 C244.880059,107.00153 245.998424,108.087002 246,109.426471 L246,137.573529 C245.998424,138.912998 244.880059,139.99847 243.5,140 Z" id="Path" fill="#008C6F"></path>
            <path d="M279.5,140 L260.5,140 C259.119941,139.99847 258.001576,138.912998 258,137.573529 L258,109.426471 C258.001576,108.087002 259.119941,107.00153 260.5,107 L279.5,107 C280.880059,107.00153 281.998424,108.087002 282,109.426471 L282,137.573529 C281.998424,138.912998 280.880059,139.99847 279.5,140 Z" id="Path" fill="#FFFFFF"></path>
            <path d="M243.5,192 L224.5,192 C223.119941,191.99847 222.001576,190.912998 222,189.573529 L222,161.426471 C222.001576,160.087002 223.119941,159.00153 224.5,159 L243.5,159 C244.880059,159.00153 245.998424,160.087002 246,161.426471 L246,189.573529 C245.998424,190.912998 244.880059,191.99847 243.5,192 L243.5,192 Z" id="Path" fill="#FFFFFF"></path>
            <path d="M279.5,192 L260.5,192 C259.119941,191.99847 258.001576,190.912998 258,189.573529 L258,161.426471 C258.001576,160.087002 259.119941,159.00153 260.5,159 L279.5,159 C280.880059,159.00153 281.998424,160.087002 282,161.426471 L282,189.573529 C281.998424,190.912998 280.880059,191.99847 279.5,192 L279.5,192 Z" id="Path" fill="#FFFFFF"></path>
            <path d="M243.5,244 L224.5,244 C223.119941,243.99847 222.001576,242.912998 222,241.573529 L222,213.426471 C222.001576,212.087002 223.119941,211.00153 224.5,211 L243.5,211 C244.880059,211.00153 245.998424,212.087002 246,213.426471 L246,241.573529 C245.998424,242.912998 244.880059,243.99847 243.5,244 Z" id="Path" fill="#008C6F"></path>
            <path d="M279.5,244 L260.5,244 C259.119941,243.99847 258.001576,242.912998 258,241.573529 L258,213.426471 C258.001576,212.087002 259.119941,211.00153 260.5,211 L279.5,211 C280.880059,211.00153 281.998424,212.087002 282,213.426471 L282,241.573529 C281.998424,242.912998 280.880059,243.99847 279.5,244 Z" id="Path" fill="#FFFFFF"></path>
            <path d="M609.417825,305 L0.582174793,305 C0.260648533,305 0,304.552285 0,304 C0,303.447715 0.260648533,303 0.582174793,303 L609.417825,303 C609.739351,303 610,303.447715 610,304 C610,304.552285 609.739351,305 609.417825,305 Z" id="Path" fill="#E6E6E6"></path>
            <path d="M356.021053,340 L264.978947,340 C264.43829,340 264,339.552285 264,339 C264,338.447715 264.43829,338 264.978947,338 L356.021053,338 C356.56171,338 357,338.447715 357,339 C357,339.552285 356.56171,340 356.021053,340 Z" id="Path" fill="#E6E6E6"></path>
            <path d="M583.021053,340 L491.978947,340 C491.43829,340 491,339.552285 491,339 C491,338.447715 491.43829,338 491.978947,338 L583.021053,338 C583.56171,338 584,338.447715 584,339 C584,339.552285 583.56171,340 583.021053,340 Z" id="Path" fill="#E6E6E6"></path>
            <path d="M441,200.871469 C441,175.412612 420.628862,115 395.49995,115 C370.371039,115 350,175.412612 350,200.871469 C350,226.347553 370.371044,247 395.5,247 C420.628956,247 441,226.347553 441,200.871469 L441,200.871469 Z" id="Path" fill="#A3D2C8"></path>
            <path d="M430,200.871469 C430,175.412612 409.405003,115 383.99995,115 C358.594896,115 338,175.412612 338,200.871469 C338,226.347553 358.594902,247 384,247 C409.405098,247 430,226.347553 430,200.871469 L430,200.871469 Z" id="Path" fill="#008C6F"></path>
            <path d="M385.5,304 C384.67159,304 384.000041,303.356465 384,302.562661 L384,174.437339 C384,173.643519 384.671573,173 385.5,173 C386.328427,173 387,173.643519 387,174.437339 L387,302.562661 C387,303.356481 386.328427,304 385.5,304 Z" id="Path" fill="#354052"></path>
            <path d="M385.458871,195 C384.868801,195 384.336889,194.644381 384.111096,194.099242 C383.885303,193.554103 384.010079,192.926637 384.427259,192.509349 L403.509363,173.427308 C404.079131,172.857564 405.002907,172.857564 405.572674,173.427308 C406.142442,173.997053 406.142442,174.920791 405.572675,175.490535 L386.490585,194.572576 C386.217298,194.846712 385.845966,195.000549 385.458871,195 L385.458871,195 Z" id="Path" fill="#354052"></path>
            <path d="M546.5,245 L524.5,245 C523.119816,244.998726 522.001274,243.880184 522,242.5 L522,220.5 C522.001274,219.119816 523.119816,218.001274 524.5,218 L546.5,218 C547.880184,218.001274 548.998726,219.119816 549,220.5 L549,242.5 C548.998726,243.880184 547.880184,244.998726 546.5,245 Z" id="Path" fill="#3F3D56"></path>
            <path d="M83,265 L73,265 L73,261.695964 C76.1599557,259.302479 78.959715,259.510567 82.6428365,261.890314 L83,265 Z" id="Path" fill="#008C6F"></path>
            <polygon id="Path" fill="#FFB8B8" points="71 320 68.3902066 320 68 311 71 311"></polygon>
            <path d="M70.9998663,322 L64,321.999725 L64,321.905304 C64,321.134756 64.2870434,320.395767 64.7980019,319.850913 C65.3089604,319.30606 66.0019688,319 66.7245656,319 L66.7247375,319 L71,319.000183 L70.9998663,322 Z" id="Path" fill="#2F2E41"></path>
            <polygon id="Path" fill="#FFB8B8" points="83.0011477 320 85.6097934 320 86 311 83 311"></polygon>
            <path d="M83,319.000183 L87.2752683,319 L87.2754402,319 C87.9980363,319 88.6910433,319.306063 89.2020004,319.850917 C89.7129575,320.39577 90,321.134758 90,321.905304 L90,321.999725 L83.0001241,322 L83,319.000183 Z" id="Path" fill="#2F2E41"></path>
            <path d="M83.1249775,319 C82.738149,318.99875 82.4034665,318.729484 82.3180928,318.350827 L76.7382075,293.924551 C76.7129256,293.796422 76.599461,293.705126 76.4693515,293.708223 L76.4679654,293.708223 C76.3373076,293.705793 76.223982,293.798362 76.1998223,293.927254 L71.0756971,318.188855 C70.9933508,318.571224 70.657073,318.844632 70.2672876,318.846126 L67.8263458,318.846126 C67.5987197,318.846122 67.3811757,318.751884 67.2250415,318.585647 C67.0689073,318.41941 66.9880116,318.195898 67.001441,317.967846 L68.8195406,287.217222 L69.5511469,287 L69.5648699,287 L83.9354069,287.126378 L86.996062,317.843157 C87.0176651,318.064462 86.9497669,318.285198 86.8076231,318.455769 C86.6654792,318.62634 86.4610105,318.732442 86.2401582,318.750234 L83.1911568,318.997347 C83.168965,318.999116 83.1469053,319 83.1249775,319 Z" id="Path" fill="#2F2E41"></path>
            <circle id="Oval" fill="#FFB8B8" cx="77.5" cy="255.5" r="4.5"></circle>
            <path d="M74.4681538,290.999408 C73.6900604,291.009132 72.9150468,290.899016 72.1698289,290.672855 C70.8301844,290.264954 69.7168453,289.316565 69.0930627,288.051938 C68.9952689,287.86365 68.9735882,287.644412 69.0325789,287.440318 C69.5217166,285.754683 71.8854715,276.992807 70.3773108,270.027498 C69.9471878,268.072455 70.3222904,266.024862 71.4165567,264.35451 C72.4853583,262.69726 74.1752309,261.54965 76.0984309,261.175001 L76.0984309,261.174814 C76.3485837,261.125502 76.6000899,261.085078 76.8458807,261.054454 C78.9762623,260.789684 81.1124471,261.499327 82.6709488,262.989549 C84.2757469,264.509032 85.1244671,266.672849 84.985193,268.889729 L83.826148,287.670184 C83.8098839,287.956616 83.6453316,288.213196 83.3931321,288.34537 C82.0581952,289.051671 78.0480784,290.999408 74.4681538,290.999408 Z" id="Path" fill="#3F3D56"></path>
            <path d="M81.9722443,251.561128 C81.0345174,249.085818 78.5778365,247.635018 76.0770644,248.079712 L77.4582687,249.252029 C75.7421975,249.312736 73.9358053,249.183665 72.7105182,250.447124 C73.1005952,250.435751 73.6118535,251.312117 74.0019304,251.300754 C73.2584325,251.355697 72.6022374,251.831065 72.289177,252.541526 C71.9908397,253.247735 71.9210478,254.037175 72.0904842,254.789009 C72.5325064,255.89519 73.0465789,256.968062 73.6290484,258 C73.5781851,256.16969 77.0087792,251.803907 78.6840078,252.259575 C77.8328881,252.591258 77.094333,253.180231 76.5614822,253.952218 C77.7011765,253.348078 78.990147,253.126566 80.2537208,253.3177 C80.5422057,253.387186 80.8398335,253.404684 81.1338991,253.369448 C81.5003977,253.293297 81.8029409,253.022678 81.9328884,252.654768 C82.0628358,252.286857 82.0015367,251.87446 81.771003,251.565664 L81.9722443,251.561128 Z" id="Path" fill="#2F2E41"></path>
            <path d="M74.5414283,290 C74.4256017,290 74.3110752,289.976381 74.2050316,289.931323 L65.5057629,286.259071 C65.1237106,286.100644 64.9204825,285.694429 65.0291346,285.306379 L70.7881002,264.266336 C71.0043845,263.475473 71.5406182,262.802045 72.2759803,262.397783 C73.0113425,261.993521 73.8839712,261.892433 74.6972512,262.117297 L77,262.752895 L75.3789223,289.234767 C75.3620233,289.499917 75.2125156,289.740446 74.9783183,289.879262 C74.8470549,289.95785 74.6958078,289.999649 74.5414283,290 L74.5414283,290 Z" id="Path" fill="#008C6F"></path>
            <path d="M89.9705154,285.306057 L89.5877535,283.910523 L89.0333352,281.881307 L88.766333,280.908221 L88.2119248,278.884408 L84.21114,264.266455 C83.9955303,263.475258 83.4593722,262.801436 82.7237604,262.397176 C81.9881485,261.992916 81.1151316,261.892318 80.3018859,262.118102 L78,262.753584 L79.1406454,281.379428 L79.2583277,283.3238 L79.3329876,284.549636 L79.3329876,284.551437 L79.4524012,286.484984 L79.6205044,289.234536 C79.6489478,289.662834 80.0148869,289.997026 80.4586849,290 C80.5743613,289.999342 80.6886979,289.976002 80.7947805,289.931393 L89.494411,286.259315 C89.876789,286.1009 90.0799294,285.694172 89.9705154,285.306057 Z" id="Path" fill="#008C6F"></path>
            <polygon id="Path" fill="#CCCCCC" points="89 280.824161 80.1101119 283 80 281.24863 88.4814389 279"></polygon>
            <polygon id="Path" fill="#CCCCCC" points="90 284.204017 80.1168041 287 80 284.899577 80 284.897463 89.4591676 282"></polygon>
            <polygon id="Path" fill="#CCCCCC" points="75 281.963001 74.8877518 284 66 281.132613 66.5209466 279"></polygon>
            <polygon id="Path" fill="#CCCCCC" points="75 285.051 65.5441632 282 65 284.057 74.8849655 287"></polygon>
            <path d="M66.4388757,286.933194 C66.9906134,286.788055 67.4502278,286.404074 67.6940494,285.884568 C67.9378711,285.365062 67.9408549,284.763395 67.7021979,284.241459 L72,270.64328 L68.9524354,270 L65.0121065,283.332008 C64.1497675,283.804598 63.7744287,284.852531 64.138432,285.771275 C64.5024352,286.69002 65.4907274,287.189182 66.4388757,286.933174 L66.4388757,286.933194 Z" id="Path" fill="#FFB8B8"></path>
            <path d="M71.7267971,264 L71.7267971,264 C72.6545104,264.090254 73.1763075,265.085015 72.945653,266.323631 L71.8388129,272.267441 C71.7558416,272.713002 71.3713116,273.065796 71.0517601,272.989601 L67.3077819,272.097072 C67.0196944,272.028396 66.9135839,271.638057 67.0768403,271.247484 L69.3244554,265.870317 C69.6359101,264.828857 70.5945061,264.082552 71.7267971,264 Z" id="Path" fill="#3F3D56"></path>
            <path d="M77.7777778,247 L77.7777778,247 C80.8980265,247.000346 83.4540808,249.553853 83.5509702,252.767439 L84.6388962,252.767439 C84.8383277,252.76745 85,252.934038 85,253.139534 L85,254.627905 C85,254.833403 84.8383299,255 84.6388962,255 L72.3611135,255 C72.1616783,255 72,254.833405 72,254.627905 L72,252.953512 C72,251.374544 72.6087104,249.860241 73.6922559,248.743739 C74.7758014,247.627237 76.2454092,247 77.7777778,247 L77.7777778,247 Z" id="Path" fill="#008C6F"></path>
            <path d="M78.206811,283 L75.7931706,283 C75.6326607,283.000606 75.4982227,282.860804 75.4831313,282.67759 L75,277 L79,277 L78.5168779,282.677526 C78.5018082,282.860776 78.3673491,283.000614 78.206811,283 Z" id="Path" fill="#E6E6E6"></path>
            <path d="M78.6621561,278 L74.3378339,278 C74.151343,277.999848 74.0002201,277.89818 74,277.772721 L74,277.227279 C74.0002201,277.10182 74.151343,277.000152 74.3378339,277 L78.6621561,277 C78.8486509,277.000148 78.9997799,277.101818 79,277.227279 L79,277.772721 C78.9997799,277.898182 78.8486509,277.999852 78.6621561,278 Z" id="Path" fill="#CCCCCC"></path>
            <path d="M77.0887189,280.13456 C77.1874316,280.146281 77.2850915,280.16599 77.3807903,280.193503 L84.1410831,274.232032 L83.7459129,272.044703 L86.8781884,271 L87.943714,274.802309 C88.1205274,275.433284 87.8710838,276.108535 87.3314727,276.459664 L78.7698165,282.030831 C78.7822433,282.836671 78.308459,283.566342 77.5798897,283.863425 C76.8513203,284.160509 76.0199958,283.963014 75.4919872,283.367408 C74.9639787,282.771803 74.8494653,281.902373 75.2043825,281.183802 C75.5592997,280.46523 76.3095873,280.047462 77.0887576,280.13456 L77.0887189,280.13456 Z" id="Path" fill="#FFB8B8"></path>
            <path d="M84.4562859,264.053615 L84.4562859,264.053615 C85.3483271,263.793704 86.2396578,264.500421 86.5383123,265.704415 L87.9715512,271.482091 C88.0789841,271.915189 87.87032,272.375454 87.5444035,272.424253 L83.7263584,272.99588 C83.4325583,273.039866 83.1737078,272.726248 83.1629377,272.313264 L83.0146949,266.627691 C82.898162,265.532843 83.4835694,264.487551 84.4562859,264.053615 Z" id="Path" fill="#3F3D56"></path>
            <path d="M130.008533,280 L126.991467,280 C126.790817,280.000704 126.622764,279.837585 126.603911,279.623823 L126,273 L131,273 L130.396089,279.623741 C130.377274,279.837536 130.20921,280.0007 130.008533,280 Z" id="Path" fill="#E6E6E6"></path>
            <path d="M131.594597,274 L126.405413,274 C126.181621,273.999698 126.000269,273.796364 126,273.545446 L126,272.454543 C126.000275,272.203629 126.181625,272.000302 126.405413,272 L131.594597,272 C131.818381,272.000308 131.999725,272.203634 132,272.454543 L132,273.545446 C131.999731,273.79636 131.818385,273.999692 131.594597,274 L131.594597,274 Z" id="Path" fill="#CCCCCC"></path>
            <path d="M160.429965,317.62137 C158.135651,314.548655 156.321914,311.140497 155.051747,307.51526 C154.899798,307.06744 155.091792,306.574661 155.505629,306.350313 L163.356748,302.114678 C163.61412,301.974768 163.921202,301.962216 164.188991,302.080661 C164.461771,302.200008 164.664641,302.439348 164.738828,302.729342 C165.652639,306.222727 167.370339,309.450479 169.752961,312.151462 C169.95172,312.374235 170.037302,312.676867 169.9849,312.971643 C169.934526,313.26174 169.75406,313.512221 169.495808,313.650486 L161.64469,317.88611 C161.229957,318.108779 160.716117,317.996792 160.429965,317.62137 L160.429965,317.62137 Z" id="Path" fill="#CCCCCC"></path>
            <path d="M161.039924,316.895417 C161.122849,317 161.267636,317.030262 161.38477,316.967413 L168.85668,312.919829 C168.930236,312.881074 168.981585,312.80972 168.995418,312.727038 C169.011221,312.639754 168.985653,312.550027 168.92634,312.48462 C166.591982,309.827574 164.909089,306.652305 164.01382,303.21572 C163.992821,303.129643 163.933187,303.058461 163.852661,303.023354 C163.776795,302.98905 163.689408,302.992703 163.616603,303.033221 L156.144846,307.0807 C156.028079,307.144481 155.972745,307.283248 156.013111,307.411069 C157.200286,310.813271 158.895515,314.011749 161.039924,316.895417 L161.039924,316.895417 Z" id="Path" fill="#FFFFFF"></path>
            <path d="M164.581129,308.317545 L160.097344,309.950676 C159.74228,310.079616 159.327727,309.947064 159.170677,309.654376 L159.059781,309.447065 C158.903508,309.154095 159.064155,308.812036 159.418877,308.682457 L163.902662,307.049326 C164.257724,306.920382 164.672278,307.052936 164.829319,307.345626 L164.940226,307.552938 C165.096486,307.845908 164.935842,308.187959 164.581129,308.317545 Z" id="Path" fill="#CCCCCC"></path>
            <path d="M165.581129,311.317544 L161.097344,312.950676 C160.74228,313.079616 160.327727,312.947064 160.170677,312.654376 L160.059781,312.447064 C159.903508,312.154094 160.064155,311.812035 160.418877,311.682456 L164.902662,310.049324 C165.257727,309.920384 165.67228,310.052936 165.82933,310.345624 L165.940226,310.552936 C166.096486,310.845906 165.935842,311.187958 165.581129,311.317544 L165.581129,311.317544 Z" id="Path" fill="#CCCCCC"></path>
            <path d="M155.265793,308.616215 C154.668022,308.240213 154.271269,307.624625 154.182287,306.935085 C154.093306,306.245544 154.321235,305.55288 154.804748,305.043463 L153,280 L158.198616,280.492989 L158.341401,305.018083 C159.181199,305.888189 159.222717,307.234976 158.43804,308.152964 C157.653364,309.070951 156.290523,309.26997 155.265793,308.616215 L155.265793,308.616215 Z" id="Path" fill="#A0616A"></path>
            <path d="M154.783309,288.805359 C154.542077,288.624383 154.392563,288.339016 154.376796,288.029477 L154.004164,280.984828 C153.927798,279.539312 154.909885,278.266925 156.279897,278.0364 C157.64991,277.805876 158.965662,278.691617 159.328812,280.088878 L160.96571,286.387153 C161.107295,286.934345 160.797579,287.497838 160.27338,287.646768 L155.617084,288.963825 C155.330499,289.045515 155.023866,288.987237 154.783309,288.805359 L154.783309,288.805359 Z" id="Path" fill="#3F3D56"></path>
            <polygon id="Path" fill="#A0616A" points="145.999008 339 143.289683 338.999051 142 329 146 329"></polygon>
            <path d="M140.522455,339 L146,339 L146,342 L138,342 L138,341.448317 C138,340.798986 138.265744,340.176247 138.738797,339.717098 C139.21185,339.257948 139.853452,339 140.522455,339 L140.522455,339 Z" id="Path" fill="#2F2E41"></path>
            <polygon id="Path" fill="#A0616A" points="155.999008 339 153.289683 338.999051 152 329 156 329"></polygon>
            <path d="M150.522455,339 L156,339 L156,342 L148,342 L148,341.448317 C148,340.798986 148.265744,340.176247 148.738797,339.717098 C149.21185,339.257948 149.853452,339 150.522455,339 L150.522455,339 Z" id="Path" fill="#2F2E41"></path>
            <path d="M145.9071,333.998713 L142.98719,333.857863 C142.47071,333.833105 142.063501,333.404124 142.059939,332.881035 C141.290145,320.860503 140.22403,307.971283 141.856157,302.99193 C141.854214,302.704818 141.976172,302.431135 142.190121,302.242491 C142.40407,302.053847 142.688719,301.969014 142.969587,302.01019 L154.651012,303.72572 C155.128188,303.793306 155.483567,304.205678 155.484723,304.693137 C156.976092,310.588898 157.043534,321.280078 156.987122,332.388534 C156.989063,332.651044 156.887351,332.903478 156.704563,333.089806 C156.521774,333.276134 156.273032,333.38094 156.013547,333.380961 L152.86566,333.380961 C152.385665,333.382919 151.97659,333.029071 151.903921,332.54906 L149.961751,320.058336 C149.903065,319.680424 149.577804,319.404238 149.19974,319.411294 C148.821676,319.418351 148.506706,319.706487 148.461837,320.086331 L146.920124,333.13197 C146.860036,333.626409 146.445722,333.998393 145.953317,334 C145.938008,334 145.922602,333.999571 145.9071,333.998713 Z" id="Path" fill="#2F2E41"></path>
            <path d="M148.423969,304.969203 C146.719742,303.969757 144.830981,303.323945 142.870805,303.070446 C142.610466,303.045376 142.371806,302.914855 142.2105,302.709331 C142.045603,302.502378 141.972834,302.237025 142.009145,301.975086 L144.806816,281.24076 C145.134321,278.77433 146.719102,276.653619 148.994097,275.637454 C151.196236,274.626912 153.765712,274.827968 155.783226,276.168689 C155.879103,276.232358 155.973181,276.297357 156.065461,276.363687 C158.402017,278.072696 159.479906,281.016644 158.798041,283.82696 C157.082436,290.832985 156.493151,302.318705 156.392415,304.550115 C156.376238,304.93904 156.127319,305.280083 155.761419,305.414643 C154.705873,305.797565 153.591986,305.995545 152.46891,306 C151.05435,306.008407 149.661379,305.65348 148.423969,304.969203 L148.423969,304.969203 Z" id="Path" fill="#3F3D56"></path>
            <circle id="Oval" fill="#A0616A" cx="150.5" cy="267.5" r="5.5"></circle>
            <path d="M154.331023,271.42455 C153.856759,271.936938 153.129164,272.127584 152.465279,271.913417 C151.801395,271.699249 151.321484,271.119064 151.234663,270.425671 C151.224071,270.30834 151.22484,270.190256 151.236957,270.073073 C151.439344,269.429295 151.56136,268.762875 151.600217,268.089038 C151.579287,267.913124 151.513874,267.745478 151.410176,267.601988 C150.584252,266.493802 148.645453,268.097643 147.865962,267.094411 C147.388009,266.479266 147.949846,265.510761 147.583064,264.823233 C147.098979,263.91581 145.665117,264.363464 144.765958,263.866497 C143.765515,263.313584 143.825349,261.775565 144.483913,260.840067 C145.351743,259.720922 146.672096,259.047393 148.085839,259.00268 C149.48398,258.969713 150.872599,259.241259 152.15577,259.798558 C153.671167,260.292424 155.008395,261.221443 156.001389,262.470243 C157.041817,264.128464 157.283427,266.1674 156.659455,268.023632 C156.116061,269.300763 155.32456,270.456834 154.331023,271.42455 L154.331023,271.42455 Z" id="Path" fill="#2F2E41"></path>
            <path d="M158.997771,276.486528 C158.90154,276.041324 158.076119,275.433036 156.894928,274.93714 C153.04396,273.400505 148.679537,273.769058 145.150179,275.928922 C144.900641,275.94214 144.690882,276.118106 144.637868,276.358697 L140.664734,293.670695 L140.147947,295.925322 L139.80572,297.417402 L139.288943,299.665432 L139.013782,300.866577 C138.978176,301.021921 139.012315,301.184846 139.107449,301.313601 C139.202584,301.442356 139.349468,301.524426 139.51046,301.53878 L156.666734,302.997794 C156.682356,302.997794 156.700267,303 156.715929,303 C157.009618,302.998252 157.251913,302.77302 157.270728,302.484273 L157.434035,300.035692 L157.608586,297.417402 L157.684608,296.282358 L157.85687,293.670695 L159,276.515163 L159,276.499753 L158.997771,276.486528 Z" id="Path" fill="#008C6F"></path>
            <path d="M130.604039,277.784338 C130.631321,277.903223 130.649104,278.024054 130.657226,278.14571 L140.205167,283.605936 L142.525931,282.281549 L145,285.492225 L140.035233,289 L129.142488,280.481445 C128.232849,280.815121 127.209831,280.556046 126.573101,279.830757 C125.936371,279.105469 125.818782,278.065297 126.277766,277.218287 C126.736751,276.371277 127.676543,275.894155 128.638126,276.019961 C129.599709,276.145766 130.38245,276.848248 130.604039,277.784299 L130.604039,277.784338 Z" id="Path" fill="#A0616A"></path>
            <path d="M140.005775,282.451502 C139.973089,282.152573 140.080334,281.855229 140.297366,281.643049 L145.227203,276.803743 C146.238839,275.810801 147.851088,275.727688 148.963155,276.611151 C150.075222,277.494613 150.328168,279.059499 149.549289,280.237351 L146.038515,285.546594 C145.73307,286.00738 145.105208,286.138562 144.635005,285.839834 L140.462585,283.182451 C140.205343,283.019303 140.037346,282.750488 140.005775,282.451502 L140.005775,282.451502 Z" id="Path" fill="#3F3D56"></path>
            <polygon id="Path" fill="#CCCCCC" points="157 293 156.835195 296 140 295.589928 140.496343 293"></polygon>
            <polygon id="Path" fill="#CCCCCC" points="157 297 156.828355 300 139 299.576124 139.508029 297"></polygon>
            <path d="M150.8889,257 L150.8889,257 C147.048603,257.000387 143.902696,259.873082 143.783445,263.488369 L142.444438,263.488369 C142.198982,263.488379 142,263.675792 142,263.906977 L142,265.581392 C142,265.812577 142.198982,266 142.444438,266 L157.555553,266 C157.801012,266 158,265.812581 158,265.581392 L158,263.697659 C158,261.921324 157.250807,260.217741 155.917215,258.961684 C154.583622,257.705627 152.774882,257 150.8889,257 Z" id="Path" fill="#008C6F"></path>
            <path d="M189.5,327.999623 L187.97168,327.999623 C187.96192,327.814539 185.91016,322.998993 185.91016,322.998993 L184.66993,319.998616 L183.8501,317.998364 L182.60987,314.997987 L181.18995,311.547553 C181.115128,311.226866 180.829265,311 180.5,311 C180.170745,311 179.884882,311.226866 179.81006,311.547553 L178.39014,314.997987 L177.14991,317.998364 L176.33008,319.998616 L175.08985,322.998993 C175.08985,322.998993 173.03809,327.814539 173.02832,327.999623 L171.5,327.999623 C170.671573,327.999623 170,328.67128 170,329.499811 C170,330.328343 170.671573,331 171.5,331 L189.5,331 C190.328427,331 191,330.328343 191,329.499811 C191,328.67128 190.328427,327.999623 189.5,327.999623 Z" id="Path" fill="#FF6584"></path>
            <path d="M188.5,354 L187.90772,354 C187.96192,353.87207 185.33008,347.139999 185.33008,347.139999 L183.75,343.289998 L182.68995,340.709998 L181.10987,336.859997 L179.39014,332.689996 C179.290556,332.284833 178.927237,332 178.510015,332 C178.092793,332 177.729474,332.284833 177.62989,332.689996 L175.91016,336.859997 L174.33008,340.709998 L173.25977,343.289998 L171.68018,347.139999 C171.68018,347.139999 169.05811,353.87206 169.11231,354 L168.5,354 C167.671573,354 167,354.671573 167,355.5 C167,356.328427 167.671573,357 168.5,357 L188.5,357 C189.328427,357 190,356.328427 190,355.5 C190,354.671573 189.328427,354 188.5,354 L188.5,354 Z" id="Path" fill="#FF6584"></path>
            <polygon id="Path" fill="#F2F2F2" points="184 318 177 318 178.295522 315 182.704478 315"></polygon>
            <polygon id="Path" fill="#F2F2F2" points="186 323 175 323 176.260628 320 184.739372 320"></polygon>
            <polygon id="Path" fill="#F2F2F2" points="183 340 175 340 176.511962 336 181.488038 336"></polygon>
            <polygon id="Path" fill="#F2F2F2" points="185 347 172 347 173.504762 343 183.495238 343"></polygon>
            <path d="M568.794266,272.948627 C568.281218,272.824587 567.847298,272.470359 567.609261,271.981255 C567.371224,271.492152 567.353522,270.918413 567.560917,270.414416 L561,254.984055 L564.75318,254 L570.022189,269.47702 C570.830167,269.905253 571.202771,270.894893 570.889497,271.780598 C570.576223,272.666302 569.67609,273.168117 568.794266,272.948667 L568.794266,272.948627 Z" id="Path" fill="#A0616A"></path>
            <path d="M561.914683,259.926194 C561.689077,259.826027 561.518653,259.633274 561.447911,259.398266 L560.226117,255.342287 C559.669984,254.172206 560.174985,252.776277 561.354068,252.22439 C562.53315,251.672504 563.93982,252.173649 564.495953,253.343729 L566.858758,256.884856 C566.995189,257.089363 567.035165,257.342673 566.968267,257.578779 C566.901369,257.814886 566.734224,258.010404 566.510385,258.114385 L562.622497,259.920358 C562.398667,260.02447 562.140226,260.026601 561.914683,259.926194 L561.914683,259.926194 Z" id="Path" fill="#008C6F"></path>
            <path d="M575.867089,258.216378 L571.642229,260.944894 C571.531174,261.018369 571.380917,261.018369 571.269863,260.944894 L570.128236,260.162922 C570.051353,260.111633 570.004256,260.0312 570.000274,259.94439 C569.996293,259.85758 570.03586,259.77384 570.107778,259.716871 L573.358766,257.072342 C573.44575,257.003029 573.566833,256.981652 573.675885,257.016357 L575.791384,257.706877 C575.902122,257.744177 575.981248,257.834187 575.997102,257.940893 C576.012956,258.047599 575.962949,258.153573 575.867089,258.216415 L575.867089,258.216378 Z" id="Path" fill="#3F3D56"></path>
            <path d="M575.992976,257.925416 C576.014315,257.86072 575.985424,257.788773 575.928118,257.763904 L574.045225,257.007388 C574.007067,256.992078 573.964527,257.000926 573.933783,257.030568 L571.036262,259.932231 L571.020407,259.95146 C571.003598,259.977592 570.996768,260.010175 571.001432,260.041983 C571.006096,260.073791 571.021868,260.102194 571.04525,260.120895 L572.059829,260.97635 C572.099137,261.008366 572.152448,261.007829 572.191238,260.975026 L575.953447,257.983815 C575.971525,257.969224 575.985294,257.948882 575.992976,257.925416 Z" id="Path" fill="#FFFFFF"></path>
            <polygon id="Path" fill="#A0616A" points="561 302 563.032505 302 564 294 561 294"></polygon>
            <path d="M560,301.000185 L564.275264,301 L564.275437,301 C564.998034,301 565.691041,301.30607 566.201998,301.850924 C566.712955,302.395777 567,303.134764 567,303.905309 L567,303.999717 L560.000123,304 L560,301.000185 Z" id="Path" fill="#2F2E41"></path>
            <polygon id="Path" fill="#A0616A" points="554 302 556.033461 302 557 294 554 294"></polygon>
            <path d="M553,301.000185 L557.275274,301 L557.275437,301 C557.998036,301 558.691045,301.306062 559.202004,301.850917 C559.712962,302.395772 560,303.134762 560,303.905309 L560,303.999717 L553.000133,304 L553,301.000185 Z" id="Path" fill="#2F2E41"></path>
            <path d="M553.333062,299.777822 C553.187261,299.612896 553.105504,299.402148 553.102377,299.18318 C552.595318,294.027576 553.975316,266.925466 557.164001,264.611175 L557.183734,264.592251 L566.516242,263 L566.516242,263 L566.689781,263.171475 C566.70325,263.410432 568.400027,287.16658 563.71446,299.290863 C563.597279,299.586773 563.308504,299.78145 562.986923,299.781332 L561.123801,299.781332 C560.906058,299.781336 560.698202,299.691505 560.550392,299.533519 C560.402581,299.375532 560.328241,299.163739 560.345312,298.949247 L561.85373,276.247312 C561.86456,276.112419 561.767762,275.992304 561.632287,275.972526 C561.496813,275.952748 561.368998,276.040073 561.339887,276.172297 L557.091686,299.213663 C557.016717,299.546662 556.730525,299.792281 556.386342,299.819013 L553.939654,299.998023 C553.920308,299.999341 553.901016,300 553.881777,300 C553.67644,300 553.479338,299.920216 553.333062,299.777822 Z" id="Path" fill="#2F2E41"></path>
            <circle id="Oval" fill="#A0616A" cx="565" cy="245" r="4"></circle>
            <path d="M555.277703,267.792938 C555.104898,267.610406 555.005589,267.366336 555,267.11043 L556.669383,258.994201 C555.337848,253.117439 557.110602,252.015735 559.111316,250.90207 L559.098513,250.895183 L559.934059,248.546893 C559.987697,248.33539 560.129393,248.159761 560.320519,248.067883 C560.511646,247.976005 560.732277,247.977458 560.922266,248.071845 L565.183115,250.422777 C565.374788,250.534853 565.516685,250.720293 565.578517,250.939514 C565.650561,251.172378 565.64564,251.42356 565.564534,251.653187 L565.249902,252.537495 C566.063499,253.666099 567.321692,258.129975 565.990157,259.858436 L566.994977,265.618691 C567.040073,266.055927 566.777432,266.46403 566.371164,266.588002 L555.872312,267.987044 C555.831535,267.995664 555.790027,268 555.748413,268 C555.571498,267.997431 555.402565,267.923118 555.277703,267.792938 L555.277703,267.792938 Z" id="Path" fill="#008C6F"></path>
            <path d="M571.08953,259.084593 C571.023024,259.145355 570.961555,259.211116 570.905694,259.281264 L562.741965,258.733371 L561.866169,257 L559,257.941808 L560.243383,261.156739 C560.449712,261.69024 560.993861,262.027421 561.57895,261.984322 L570.862204,261.300562 C571.282998,261.868217 572.021544,262.123751 572.717085,261.942344 C573.412626,261.760937 573.920022,261.180444 573.991425,260.484418 C574.062828,259.788391 573.68334,259.122073 573.038327,258.810938 C572.393315,258.499803 571.617375,258.608778 571.08953,259.08463 L571.08953,259.084593 Z" id="Path" fill="#A0616A"></path>
            <path d="M562.472965,258.77731 L558.781299,259.961986 C558.568752,260.030185 558.335934,260.005832 558.143512,259.895272 C557.95109,259.784712 557.818122,259.598896 557.779255,259.386242 L557.106536,255.703819 C556.739907,254.6231 557.349916,253.460242 558.470214,253.104242 C559.590512,252.748242 560.798379,253.333429 561.170408,254.412432 L562.917025,257.73751 C563.018158,257.930183 563.027275,258.155746 562.942002,258.35542 C562.856728,258.555095 562.68551,258.709102 562.472965,258.77731 L562.472965,258.77731 Z" id="Path" fill="#008C6F"></path>
            <circle id="Oval" fill="#2F2E41" cx="563.5" cy="237.5" r="3.5"></circle>
            <path d="M569.373629,245.346132 C569.699485,245.415765 570.037155,245.38557 570.347606,245.259037 C570.66845,245.064823 570.883249,244.718955 570.925844,244.327961 C571.552728,239.883179 568.010937,240.248796 567.592005,240.056294 C567.327669,239.890886 567.079516,239.697651 566.85126,239.47948 C566.261438,239.130222 565.588876,238.972374 564.91616,239.025318 C564.120809,238.946799 563.318931,239.05142 562.564737,239.332109 C561.907808,239.660564 561.361948,240.197475 561.001755,240.869469 C560.645318,241.538601 560.384129,242.260586 560.226758,243.011725 C559.978596,243.86173 559.933289,244.764413 560.094952,245.637841 C560.447747,246.974417 561.557847,247.923752 562.857129,248 C562.648206,246.925028 563.14078,245.83411 564.058818,245.338586 C564.768998,244.965838 565.577192,244.863146 566.349537,245.047519 C566.850502,245.155821 567.358458,245.223323 567.869014,245.249441 C568.36998,245.26944 568.971479,245.300783 569.373629,245.346132 Z" id="Path" fill="#2F2E41"></path>
            <g id="Group-5" transform="translate(386.000000, 259.000000)">
                <rect id="Rectangle" fill="#FFFFFF" opacity="0.4" transform="translate(18.552116, 56.310612) rotate(-180.000000) translate(-18.552116, -56.310612) " x="16.107672" y="53.3758289" width="4.88888889" height="5.86956522"></rect>
                <rect id="Rectangle" fill="#FFFFFF" opacity="0.4" transform="translate(18.552116, 65.114959) rotate(-180.000000) translate(-18.552116, -65.114959) " x="16.107672" y="62.1801767" width="4.88888889" height="5.86956522"></rect>
                <path d="M18.1611984,48.4083126 C18.0344126,48.5064246 17.9652566,48.5607366 17.9652566,48.5607366 C18.0372006,48.5203569 18.1032121,48.4690062 18.1611984,48.4083126 Z" id="Path" fill="url(#linearGradient-1)"></path>
                <path d="M18.1611984,48.4083126 C18.0344126,48.5064246 17.9652566,48.5607366 17.9652566,48.5607366 C18.0372006,48.5203569 18.1032121,48.4690062 18.1611984,48.4083126 Z" id="Path" fill="url(#linearGradient-2)"></path>
                <path d="M18.1611984,48.4083126 C18.0344126,48.5064246 17.9652566,48.5607366 17.9652566,48.5607366 C18.0372006,48.5203569 18.1032121,48.4690062 18.1611984,48.4083126 Z" id="Path" fill="url(#linearGradient-3)"></path>
                <path d="M36.046643,83.5317666 C36.046643,83.5317666 33.36802,87.5310591 31.5817276,87.4519674 C31.5817276,87.4519674 26.596422,88.4715634 30.0189256,89.4120677 C33.4414293,90.3525721 43.4854498,86.8243914 43.4854498,86.8243914 L42.2913255,82.723655 L36.046643,83.5317666 Z" id="Path" fill="#333333"></path>
                <path d="M24.907672,56.5080631 L28.7266654,66.5479282 L32.0301112,72.3802917 C32.0301112,72.3802917 36.5600351,82.6873265 36.2612145,84.6801767 L43.4854498,83.492196 C43.4854498,83.492196 37.8686068,67.6972617 36.2973356,65.5599047 C36.2973356,65.5599047 34.655464,64.5634796 34.7244226,62.8714052 L32.7032786,52.8315401 C32.7032786,52.8315401 34.6735246,50.8890992 33.5701868,48.4627285 C33.5143632,48.3383854 33.4497829,48.2129221 33.376446,48.0863385 C31.865924,45.4801744 26.1817644,46.9302838 26.1817644,46.9302838 L24.907672,56.5080631 Z" id="Path" fill="#535461"></path>
                <path d="M24.907672,56.5080631 L28.7266654,66.5479282 L32.0301112,72.3802917 C32.0301112,72.3802917 36.5600351,82.6873265 36.2612145,84.6801767 L43.4854498,83.492196 C43.4854498,83.492196 37.8686068,67.6972617 36.2973356,65.5599047 C36.2973356,65.5599047 34.655464,64.5634796 34.7244226,62.8714052 L32.7032786,52.8315401 C32.7032786,52.8315401 34.6735246,50.8890992 33.5701868,48.4627285 C33.5143632,48.3383854 33.4497829,48.2129221 33.376446,48.0863385 C31.865924,45.4801744 26.1817644,46.9302838 26.1817644,46.9302838 L24.907672,56.5080631 Z" id="Path" fill="#000000" opacity="0.03"></path>
                <path d="M10.7912996,80.7671333 C10.7912996,80.7671333 7.64494551,83.112842 4.58139023,83.1869489 C4.58139023,83.1869489 -0.766031716,83.0493219 0.726071503,84.083793 C2.21817472,85.1182642 15.5160056,86.6366985 15.5160056,86.6366985 L16.107672,82.6001436 L10.7912996,80.7671333 Z" id="Path" fill="#333333"></path>
                <g id="Group" opacity="0.1" transform="translate(10.241005, 44.571481)" fill="#000000">
                    <path d="M11.6407887,1.10564292 C11.6407887,1.10564292 6.66651643,8.16910268 4.69994366,15.3074931 C4.69994366,15.3074931 2.96638498,18.3446809 3.19278873,21.4584644 L0.0330516432,36.8758557 L5.83692019,39.0788159 C5.83692019,39.0788159 5.53615023,37.1805735 6.66321127,36.1165587 C7.7902723,35.0525439 10.4310986,24.2691952 10.2063474,22.5990749 C10.2063474,22.5990749 13.8238498,13.4858464 17.4413521,9.91581869 C21.0588545,6.34579093 22.860169,5.52321924 23.3906488,2.44107308 C23.3939531,2.44107308 14.8815023,-1.70508788 11.6407887,1.10564292 Z" id="Path"></path>
                </g>
                <path d="M21.9095773,45.5532375 C21.9095773,45.5532375 16.9120813,52.6493434 14.9363271,59.8207261 C14.9363271,59.8207261 13.1946748,62.8719513 13.4221356,66.0001262 L10.2410053,81.488774 L16.0719707,83.7019159 C16.0719707,83.7019159 15.7697965,81.7949002 16.9021195,80.7259677 C18.0344425,79.6570352 20.6875982,68.8238477 20.4617977,67.1460084 C20.4617977,67.1460084 24.0961893,57.9906602 27.7305808,54.4041324 C31.3649724,50.8176046 33.1746969,49.9912311 33.707672,46.8948398 C33.7225951,46.8948398 25.1704019,42.729516 21.9095773,45.5532375 Z" id="Path" fill="#535461"></path>
                <g id="Group" opacity="0.1" transform="translate(16.107672, 44.571481)" fill="#000000">
                    <path d="M9.0373578,0.0532839963 C12.6881468,0.0982423682 17.2350826,2.36447734 17.2350826,2.36447734 C16.715156,5.4466235 14.9567706,6.26919519 11.4222385,9.83922294 C7.88770642,13.4092507 4.35155963,22.5208141 4.35155963,22.5208141 C4.57277064,24.1859389 1.99574312,34.9759482 0.889688073,36.0382979 C-0.0791192661,36.9641073 0.0274495413,38.5209991 0.0678165138,38.9106383 L0.300330275,39.000555 C0.300330275,39.000555 0.0064587156,37.1023127 1.10766972,36.0382979 C2.20888073,34.9742831 4.79398165,24.1859389 4.57277064,22.5208141 C4.57277064,22.5208141 8.10730275,13.4075856 11.6418349,9.83755782 C15.176367,6.26753006 16.936367,5.44495837 17.4546793,2.36281221 C17.4562936,2.37280296 12.722055,0.00666049954 9.0373578,0.0532839963 Z" id="Path"></path>
                </g>
                <path d="M17.7141766,33.8106115 C17.7141766,33.8106115 14.1958987,38.418604 11.8218287,39.4197503 C11.5607465,39.5299214 11.3079187,39.6606038 11.0654879,39.8106903 C10.7341556,40.031717 10.3654192,40.1834965 9.97945997,40.2577217 C9.6954233,40.2867733 9.41767689,40.3636767 9.15685848,40.4854867 C7.92214818,41.0837948 5.07455715,42.6951475 6.95409652,44.1229282 C9.31200532,45.9059545 12.4828189,41.7976852 12.4828189,41.7976852 C12.4828189,41.7976852 13.829041,40.9104215 14.6209364,40.711552 C15.4128317,40.5126825 19.0410053,37.845792 19.0410053,37.845792 L17.7141766,33.8106115 Z" id="Path" fill="#FDA57D"></path>
                <polygon id="Path" fill="#008C6F" points="18.4116135 33.8106115 17.0854498 35.090764 19.0410053 37.723655"></polygon>
                <g id="Group" opacity="0.1" transform="translate(17.085450, 33.810612)" fill="#000000">
                    <polygon id="Path" points="1.29625397 0.00489130435 0.0866031746 1.2701087 1.87034921 3.87228261"></polygon>
                </g>
                <path d="M22.4642404,18.1584376 C22.4642404,18.1584376 18.9596364,21.180985 20.4266407,22.0321914 L18.0632275,27.9209767 L18.8786051,49.4627854 L22.2194583,43.8832208 L19.9370765,31.7947305 C19.9370765,31.7947305 19.2854498,24.5875096 21.1592987,22.8833978 L22.9521164,19.3154667 L22.4642404,18.1584376 Z" id="Path" fill="#008C6F"></path>
                <g id="Group" opacity="0.1" transform="translate(18.063228, 18.158438)" fill="#000000">
                    <path d="M4.38207407,0.0423031727 C4.38207407,0.0423031727 0.998962963,3.05259694 2.41511111,3.90035253 L0.13362963,9.76526439 L0.920740741,31.2197415 L4.14577778,25.6627967 L1.94251852,13.6233137 C1.94251852,13.6233137 1.31348148,6.4453114 3.12237037,4.74810811 L4.85303704,1.1946416 L4.38207407,0.0423031727 Z" id="Path"></path>
                </g>
                <path d="M19.0410053,15.2205647 C19.0410053,15.2205647 22.11327,18.6644424 22.0295472,20.6549097 C21.9458243,22.6453769 27.8410053,17.211032 27.8410053,17.211032 C27.8410053,17.211032 25.6005089,14.6851861 26.1811087,12.0082929 C26.7617085,9.33139968 19.0410053,15.2205647 19.0410053,15.2205647 Z" id="Path" fill="#FDA57D"></path>
                <path d="M36.6410053,32.9168326 L37.4140577,38.9761273 L37.4140577,44.9540558 C37.4140577,44.9540558 36.3307672,52.6788678 39.7332147,51.2408439 C43.1356623,49.80282 40.6605385,44.5007295 40.6605385,44.5007295 C40.6605385,44.5007295 40.6605385,41.5466366 41.125048,40.032228 C41.5895576,38.5178195 40.8877074,31.8540898 40.8877074,31.8540898 L36.6410053,32.9168326 Z" id="Path" fill="#FDA57D"></path>
                <path d="M25.8854498,18.1584376 C25.8854498,18.1584376 23.8034157,20.1210695 22.7226523,19.4409332 L21.2410424,23.0435045 C20.3355299,25.2456815 19.924828,27.6126884 20.0368116,29.9838739 L20.5645082,43.5932202 L22.8782552,43.2920406 L23.6495042,30.3843435 L24.8063777,22.5354708 L25.8854498,18.1584376 Z" id="Path" fill="#F2F2F2"></path>
                <g id="Group" opacity="0.1" transform="translate(18.063228, 16.201916)" fill="#000000">
                    <path d="M8.67215094,0.156330859 C8.67215094,0.156330859 5.98233962,2.0752492 5.23018868,3.72101803 C5.23018868,3.72101803 5.15381132,5.52311771 4.54943396,6.30648993 C3.9450566,7.08986214 3.33735849,11.0084411 3.18626415,15.7086744 C3.03516981,20.4089077 2.35607547,26.6776034 2.35607547,26.6776034 C2.35607547,26.6776034 1.22037736,32.7882503 0.00830188679,33.4152916 C0.00830188679,33.4152916 5.61207547,29.02772 8.33841509,30.5154401 C11.0647547,32.0031601 14.1696604,35.6090774 15.0778868,35.0593425 C15.0778868,35.0593425 14.858717,28.1876564 15.853283,24.5302015 C15.8721006,24.4603393 15.8914717,24.3921951 15.9113962,24.3257688 C16.9723774,20.7181336 16.2899623,15.7859809 17.5020377,13.6746554 C17.5020377,13.6746554 17.5020377,9.84540827 16.8030189,6.98506893 C16.4372155,5.50673596 15.4587829,4.27117521 14.1298113,3.60935313 L10.762566,1.92235419 C10.762566,1.92235419 8.97433962,1.6440509 8.67215094,0.156330859 Z" id="Path"></path>
                </g>
                <path d="M26.5942319,16.2019159 C26.5942319,16.2019159 24.0797075,18.0630579 23.3178317,19.6303354 C23.3178317,19.6303354 23.2409758,21.3429126 22.6328117,22.0873694 C22.0246477,22.8318262 21.4131421,26.5557428 21.2611011,31.0224837 C21.1090601,35.4892245 20.4257109,41.4465116 20.4257109,41.4465116 C20.4257109,41.4465116 19.2828972,47.2536012 18.0632275,47.8494932 C18.0632275,47.8494932 23.7021111,43.679882 26.4455324,45.0936969 C29.1889537,46.5075118 32.3083006,49.9261359 33.2238882,49.4102404 C33.2238882,49.4102404 33.0033452,42.8799175 34.0041427,39.4041531 C34.0230782,39.3377615 34.0425706,39.2730025 34.06262,39.209876 C35.1302486,35.7814565 34.4435579,31.0943172 35.6632275,29.0878755 C35.6632275,29.0878755 35.6632275,25.4488531 34.959829,22.7306062 C34.5917337,21.325712 33.6071708,20.15153 32.2698727,19.5225851 L28.8815302,17.9193908 C28.8815302,17.9193908 27.1656388,17.5047153 26.5942319,16.2019159 Z" id="Path" fill="#008C6F"></path>
                <g id="Group" opacity="0.1" transform="translate(29.796561, 20.114959)" fill="#000000">
                    <path d="M4.13045439,0.594028287 C4.13045439,0.594028287 11.5614196,9.90754322 10.5372338,14.3415401 C10.5372338,14.3415401 6.7294461,13.3744762 5.70526036,14.6633054 C5.70526036,14.6633054 4.90260697,11.6790204 2.48340962,9.98710058 C0.064212272,8.29518072 -2.16716418,-2.55113934 4.13045439,0.594028287 Z" id="Path"></path>
                </g>
                <path d="M33.9527657,20.685151 C33.9527657,20.685151 41.4930241,30.0214672 40.4537748,34.4663193 C40.4537748,34.4663193 36.5899829,33.4968879 35.5507337,34.7888724 C35.5507337,34.7888724 34.736275,31.7972813 32.2814966,30.1012193 C29.8267181,28.4051573 27.562523,17.5322834 33.9527657,20.685151 Z" id="Path" fill="#008C6F"></path>
                <g id="Group" opacity="0.1" transform="translate(20.018783, 12.288872)" fill="#000000">
                    <path d="M6.60146667,1.93817935 C6.47826667,1.37567935 6.58093333,1.3267663 6.71782222,0.715353261 C7.26366667,-1.73029891 0.00684444444,3.64402174 0.00684444444,3.64402174 C0.00684444444,3.64402174 0.410666667,4.0827106 0.912022222,4.72775136 C1.28189433,4.79587813 1.65856945,4.83016421 2.03622222,4.83016421 C4.02111111,4.83169158 5.621,3.33525815 6.60146667,1.93817935 Z" id="Path"></path>
                </g>
                <ellipse id="Oval" fill="#FDA57D" cx="21.4854498" cy="10.8214811" rx="5.37777778" ry="5.38043478"></ellipse>
                <g id="Group" opacity="0.1" transform="translate(15.129894, 0.549742)" fill="#000000">
                    <path d="M1.97284678,8.78585762 C1.18733099,8.89593884 0.18608655,8.61385571 0.0345824561,7.81060678 C-0.156444444,6.77859532 1.15768889,6.11638796 1.36189006,5.09125657 C1.43764211,4.70597229 1.34706901,4.30520784 1.39153216,3.91648352 C1.48045848,3.13043478 2.08812164,2.52670807 2.70895906,2.06918299 C4.66817524,0.633902103 7.05122425,-0.0291884936 9.43442339,0.197802198 C9.73207959,0.20174909 10.0219795,0.297493703 10.2676959,0.473005256 C10.5262409,0.694887721 10.6266947,1.05609173 10.8029006,1.35365504 C11.4122105,2.38566651 12.7790409,2.50090779 13.7572304,3.1407549 C14.9099789,3.88896321 15.4715322,5.35785953 15.5225825,6.7682752 C15.5736327,8.17869087 15.1932257,9.56330626 14.8062316,10.9186813 C14.4768749,12.0710941 14.1475181,13.2544673 13.4295205,14.1970377 C12.7115228,15.1396082 11.5373661,15.8000956 10.4192,15.5162924 C10.9313497,15.1310081 10.5591766,14.2365982 10.0042105,13.9218347 C9.44924444,13.6070712 8.76088889,13.5537506 8.2866152,13.1203058 C7.81234152,12.686861 7.67071813,11.9782131 7.51592047,11.3332059 C7.3216,10.5196369 7.03835322,9.69402771 6.47021287,9.09718108 C5.35204678,7.93616818 3.34132398,8.59321548 1.97284678,8.78585762 Z" id="Path"></path>
                </g>
                <path d="M17.1038419,9.73751779 C16.3115956,9.8422146 15.3017721,9.57392902 15.1489698,8.80996946 C14.9563062,7.82843684 16.2816995,7.19862007 16.4876503,6.223631 C16.5640514,5.85719215 16.4727023,5.47603031 16.5175464,5.10631969 C16.6072347,4.35871901 17.2201045,3.78452243 17.8462615,3.3493763 C19.822265,1.98429939 22.2257328,1.35364259 24.6293521,1.56953047 C24.9295587,1.57328431 25.2219426,1.66434576 25.4697644,1.8312725 C25.7305247,2.04230202 25.8318393,2.38583844 26.0095549,2.66884701 C26.6240856,3.65037963 28.0026276,3.75998411 28.9891985,4.36853434 C30.1518242,5.08014549 30.718189,6.47719359 30.7696768,7.81862151 C30.8211645,9.16004943 30.437498,10.476939 30.0471879,11.7660185 C29.7150091,12.8620633 29.3828304,13.9875541 28.6586806,14.8840205 C27.9345309,15.780487 26.7503136,16.4086679 25.6225666,16.1387464 C26.1391046,15.7723075 25.7637426,14.9216459 25.2040214,14.6222785 C24.6443001,14.322911 23.9500465,14.2721985 23.4717091,13.8599548 C22.9933716,13.4477111 22.8521956,12.7737254 22.6861063,12.1602675 C22.4901208,11.3864926 22.204447,10.6012665 21.6314386,10.0336135 C20.5136571,8.92775338 18.4840447,9.55429837 17.1038419,9.73751779 Z" id="Path" fill="#72351C"></path>
                <path d="M25.3193184,3.72032482 L25.8812385,1.12601701 C25.8924897,1.07576002 25.8809821,1.02353241 25.84928,0.980972556 C25.8175779,0.938412697 25.7683156,0.909057145 25.7124707,0.899447464 L23.727531,0.553539756 C23.671803,0.543393113 23.6138899,0.553771005 23.566697,0.582360834 C23.5195041,0.610950663 23.4869529,0.655376722 23.4762971,0.705739147 L22.914377,3.30004696 L20.9965609,9.71317586 L24.5157534,10.3323507 L25.3193184,3.72032482 Z" id="Path" fill="#CBDAE3"></path>
                <g id="Group" opacity="0.1" transform="translate(20.018783, 8.375829)" fill="#000000">
                    <ellipse id="Oval" cx="2.91555556" cy="2.95790514" rx="2.83733333" ry="2.83873518"></ellipse>
                </g>
                <ellipse id="Oval" fill="#CBDAE3" cx="23.4410053" cy="11.799742" rx="2.44444444" ry="2.44565217"></ellipse>
                <ellipse id="Oval" fill="#E9E9E9" cx="22.9521164" cy="12.2888724" rx="1.95555556" ry="1.95652174"></ellipse>
                <ellipse id="Oval" fill="#F48681" cx="22.4632275" cy="11.799742" rx="1" ry="1"></ellipse>
                <polygon id="Rectangle" fill="#000000" opacity="0.05" transform="translate(24.084600, 3.870250) rotate(11.050000) translate(-24.084600, -3.870250) " points="23.0325657 3.8287961 25.1364166 3.83484628 25.1366346 3.91170449 23.0327836 3.90565431"></polygon>
                <path d="M9.08881294,39.9527576 C9.78771756,39.9485875 10.3576722,40.5117812 10.3618422,41.2106858 C10.3618721,41.2156958 10.3618723,41.2207059 10.3618427,41.2257158 L10.3396781,44.9758005 C10.3354835,45.6855028 9.76121273,46.2598058 9.0515107,46.2640403 C8.35260608,46.2682104 7.78265145,45.7050167 7.7784814,45.0061121 C7.77845151,45.0011021 7.77845137,44.996092 7.77848098,44.9910821 L7.8006455,41.2409973 C7.80484013,40.5312951 8.37911091,39.956992 9.08881294,39.9527576 Z" id="Rectangle" fill="#CBDAE3" transform="translate(9.070162, 43.108399) rotate(-25.740000) translate(-9.070162, -43.108399) "></path>
                <g id="Group" opacity="0.1" transform="translate(5.352116, 39.680177)" fill="#000000">
                    <path d="M3.52329938,0.414145383 C4.11702643,0.389630894 4.61821022,0.851068846 4.64272471,1.4447959 C4.64390837,1.4734634 4.64394486,1.50216678 4.6428341,1.5308372 L4.49832147,5.26091692 C4.47283588,5.91873692 3.94628687,6.44662643 3.28853379,6.4737845 C2.69480674,6.49829899 2.19362295,6.03686103 2.16910846,5.44313398 C2.1679248,5.41446648 2.16788831,5.3857631 2.16899908,5.35709268 L2.3135117,1.62701296 C2.3389973,0.969192961 2.8655463,0.441303454 3.52329938,0.414145383 Z" id="Rectangle" transform="translate(3.405917, 3.443965) rotate(-25.740000) translate(-3.405917, -3.443965) "></path>
                </g>
                <path d="M9.32568995,39.8367803 C10.0448723,39.8324893 10.6313633,40.4120232 10.6356543,41.1312055 C10.6356851,41.1363608 10.6356852,41.1415163 10.6356548,41.1466716 L10.6139294,44.8224469 C10.6096131,45.5527401 10.0186807,46.1437057 9.28838771,46.1480631 C8.56920539,46.1523541 7.98271436,45.5728202 7.97842333,44.8536379 C7.97839257,44.8484826 7.97839242,44.8433271 7.97842289,44.8381718 L8.00014821,41.1623965 C8.00446454,40.4321032 8.59539695,39.8411376 9.32568995,39.8367803 Z" id="Rectangle" fill="#CBDAE3" transform="translate(9.307039, 42.992422) rotate(-25.740000) translate(-9.307039, -42.992422) "></path>
                <polygon id="Rectangle" fill="#F2F2F2" transform="translate(9.174486, 42.717528) rotate(-25.740000) translate(-9.174486, -42.717528) " points="8.19289365 40.3288155 10.1843854 40.3169332 10.1560787 45.1062399 8.1645869 45.1181223"></polygon>
                <circle id="Oval" fill="#F2F2F2" transform="translate(10.464887, 45.345669) rotate(-25.740000) translate(-10.464887, -45.345669) " cx="10.4648872" cy="45.3456691" r="1"></circle>
            </g>
        </g>
    </g>
</svg>
