<?xml version="1.0" encoding="UTF-8"?>
<svg width="1029px" height="437px" viewBox="0 0 1029 437" version="1.1" xmlns="http://www.w3.org/2000/svg" xmlns:xlink="http://www.w3.org/1999/xlink">
    <title>undraw_city_life_gnpr</title>
    <defs>
        <linearGradient x1="0%" y1="50.5%" x2="100%" y2="50.5%" id="linearGradient-1">
            <stop stop-color="#808080" stop-opacity="0.25" offset="0%"></stop>
            <stop stop-color="#808080" stop-opacity="0.12" offset="54%"></stop>
            <stop stop-color="#808080" stop-opacity="0.1" offset="100%"></stop>
        </linearGradient>
        <linearGradient x1="0%" y1="49.5%" x2="100.840336%" y2="49.5%" id="linearGradient-2">
            <stop stop-color="#808080" stop-opacity="0.25" offset="0%"></stop>
            <stop stop-color="#808080" stop-opacity="0.12" offset="54%"></stop>
            <stop stop-color="#808080" stop-opacity="0.1" offset="100%"></stop>
        </linearGradient>
        <linearGradient x1="0%" y1="50.5%" x2="100.840336%" y2="50.5%" id="linearGradient-3">
            <stop stop-color="#808080" stop-opacity="0.25" offset="0%"></stop>
            <stop stop-color="#808080" stop-opacity="0.12" offset="54%"></stop>
            <stop stop-color="#808080" stop-opacity="0.1" offset="100%"></stop>
        </linearGradient>
    </defs>
    <g id="Page-1" stroke="none" stroke-width="1" fill="none" fill-rule="evenodd">
        <g id="Login-1" transform="translate(-162.000000, -735.000000)" fill-rule="nonzero">
            <g id="undraw_city_life_gnpr" transform="translate(162.000000, 735.000000)">
                <path d="M29,383 C29.0071623,373.609061 36.6162233,366 46,366 C55.3837767,366 62.9928377,373.609061 63,383" id="Path" fill="#F2F2F2"></path>
                <path d="M45.5,383 C45.2437985,383 45.0361142,382.79175 45.03607,382.534892 L45.03607,373.465118 C45.03607,373.20824 45.2437785,373 45.5,373 C45.7562215,373 45.96393,373.20824 45.96393,373.465118 L45.96393,382.534892 C45.9638858,382.79175 45.7562015,383 45.5,383 L45.5,383 Z" id="Path" fill="#CCCCCC"></path>
                <path d="M45.5713948,379.999905 C45.4690577,380 45.3700854,379.958312 45.292548,379.882286 L40.1522657,374.860384 C40.0345654,374.747436 39.9791632,374.571282 40.0071458,374.398967 C40.0351284,374.226652 40.1421917,374.084682 40.2875861,374.027092 C40.4329805,373.969502 40.5943421,374.005151 40.7102547,374.120469 L45.8505925,379.142371 C45.9866236,379.275261 46.0355766,379.490511 45.9732812,379.681842 C45.9109859,379.873174 45.7506178,380.000119 45.5713579,380 L45.5713948,379.999905 Z" id="Path" fill="#CCCCCC"></path>
                <path d="M81,383 C81.0071623,373.609061 88.6162233,366 98,366 C107.383777,366 114.992838,373.609061 115,383" id="Path" fill="#F2F2F2"></path>
                <path d="M97.5,383 C97.2437847,383 97.036081,382.791763 97.03607,382.534892 L97.03607,373.465118 C97.03607,373.20824 97.2437785,373 97.5,373 C97.7562215,373 97.96393,373.20824 97.96393,373.465118 L97.96393,382.534892 C97.9638858,382.79175 97.7562015,383 97.5,383 L97.5,383 Z" id="Path" fill="#CCCCCC"></path>
                <path d="M97.5714117,379.999905 C97.4690801,380 97.3701132,379.958314 97.2925801,379.882292 L92.1525314,374.860636 C92.0346845,374.747734 91.9791656,374.571502 92.0071267,374.399082 C92.0350878,374.226663 92.1422231,374.084608 92.287715,374.02704 C92.4332069,373.969472 92.5946501,374.005255 92.7105362,374.120757 L97.8505849,379.142413 C97.9866181,379.27529 98.0355763,379.490533 97.9732849,379.68186 C97.9109935,379.873186 97.7506284,380.000127 97.5713748,380 L97.5714117,379.999905 Z" id="Path" fill="#CCCCCC"></path>
                <ellipse id="Oval" fill="#F2F2F2" cx="106.5" cy="412" rx="29.5" ry="7"></ellipse>
                <path d="M512.024096,354.789474 C512.563073,354.789474 513,354.35354 513,353.815789 C513,353.278039 512.563073,352.842105 512.024096,352.842105 L502.753012,352.842105 L502.753012,348.947368 L512.024096,348.947368 C512.563073,348.947368 513,348.511435 513,347.973684 C513,347.435933 512.563073,347 512.024096,347 L432.975904,347 C432.436927,347 432,347.435933 432,347.973684 C432,348.511435 432.436927,348.947368 432.975904,348.947368 L442.246988,348.947368 L442.246988,352.842105 L432.975904,352.842105 C432.436927,352.842105 432,353.278039 432,353.815789 C432,354.35354 432.436927,354.789474 432.975904,354.789474 L442.246988,354.789474 L442.246988,358.684211 L432.975904,358.684211 C432.436927,358.684211 432,359.120144 432,359.657895 C432,360.195646 432.436927,360.631579 432.975904,360.631579 L442.246988,360.631579 L442.246988,364.526316 L433.951807,364.526316 C432.873854,364.526316 432,365.398182 432,366.473684 C432,367.549186 432.873854,368.421053 433.951807,368.421053 L441.848624,368.421053 C441.791042,368.577018 441.760739,368.741693 441.759036,368.907895 L441.759036,382.539474 C441.759036,383.3461 442.414427,384 443.222892,384 C444.031357,384 444.686747,383.3461 444.686747,382.539474 L444.686747,368.907895 C444.685048,368.741694 444.654748,368.577019 444.597169,368.421053 L500.402841,368.421053 C500.345259,368.577018 500.314956,368.741693 500.313253,368.907895 L500.313253,382.539474 C500.313253,383.3461 500.968643,384 501.777108,384 C502.585573,384 503.240964,383.3461 503.240964,382.539474 L503.240964,368.907895 C503.239265,368.741694 503.208965,368.577019 503.151386,368.421053 L511.048193,368.421053 C512.126146,368.421053 513,367.549186 513,366.473684 C513,365.398182 512.126146,364.526316 511.048193,364.526316 L502.753012,364.526316 L502.753012,360.631579 L512.024096,360.631579 C512.563073,360.631579 513,360.195646 513,359.657895 C513,359.120144 512.563073,358.684211 512.024096,358.684211 L502.753012,358.684211 L502.753012,354.789474 L512.024096,354.789474 Z M444.198795,348.947368 L500.801205,348.947368 L500.801205,352.842105 L444.198795,352.842105 L444.198795,348.947368 Z M500.801205,364.526316 L444.198795,364.526316 L444.198795,360.631579 L500.801205,360.631579 L500.801205,364.526316 Z M500.801205,358.684211 L444.198795,358.684211 L444.198795,354.789474 L500.801205,354.789474 L500.801205,358.684211 Z" id="Shape" fill="#3F3D56"></path>
                <path d="M213,313.548729 C213,296.190417 198.896904,255 181.499966,255 C164.103027,255 150,296.190417 150,313.548729 C150,330.918786 164.10303,345 181.5,345 C198.89697,345 213,330.918786 213,313.548729 L213,313.548729 Z" id="Path" fill="#008C6F"></path>
                <path d="M205,313.548729 C205,296.190417 190.896904,255 173.499966,255 C156.103027,255 142,296.190417 142,313.548729 C142,330.918786 156.10303,345 173.5,345 C190.89697,345 205,330.918786 205,313.548729 L205,313.548729 Z" id="Path" fill="#A3D2C8"></path>
                <path d="M175,384 C174.447727,384 174.000028,383.557877 174,383.012515 L174,294.987485 C174,294.442112 174.447715,294 175,294 C175.552285,294 176,294.442112 176,294.987485 L176,383.012515 C176,383.557888 175.552285,384 175,384 Z" id="Path" fill="#354052"></path>
                <path d="M173.994685,310 C173.592364,310 173.229697,309.757532 173.075747,309.385847 C172.921797,309.014161 173.006872,308.586344 173.291313,308.301829 L186.301839,295.291346 C186.690317,294.902884 187.320164,294.902885 187.708642,295.291347 C188.097119,295.679809 188.097119,296.30963 187.708642,296.698092 L174.698126,309.708574 C174.511794,309.895485 174.258613,310.000374 173.994685,310 L173.994685,310 Z" id="Path" fill="#354052"></path>
                <path d="M536,384 C535.447727,384 535.000028,383.557877 535,383.012515 L535,294.987485 C535,294.442112 535.447715,294 536,294 C536.552285,294 537,294.442112 537,294.987485 L537,383.012515 C537,383.557888 536.552285,384 536,384 Z" id="Path" fill="#3F3D56"></path>
                <path d="M641,313.548729 C641,296.190417 626.896904,255 609.499966,255 C592.103027,255 578,296.190417 578,313.548729 C578,330.918786 592.10303,345 609.5,345 C626.89697,345 641,330.918786 641,313.548729 L641,313.548729 Z" id="Path" fill="#008C6F"></path>
                <path d="M633,313.548729 C633,296.190417 618.896904,255 601.499966,255 C584.103027,255 570,296.190417 570,313.548729 C570,330.918786 584.10303,345 601.5,345 C618.89697,345 633,330.918786 633,313.548729 L633,313.548729 Z" id="Path" fill="#A3D2C8"></path>
                <path d="M603,384 C602.447727,384 602.000028,383.557877 602,383.012515 L602,294.987485 C602,294.442112 602.447715,294 603,294 C603.552285,294 604,294.442112 604,294.987485 L604,383.012515 C604,383.557888 603.552285,384 603,384 Z" id="Path" fill="#273142"></path>
                <path d="M602.994685,310 C602.592364,310 602.229697,309.757532 602.075747,309.385847 C601.921797,309.014161 602.006872,308.586344 602.291313,308.301829 L615.301839,295.291347 C615.690316,294.902884 616.320164,294.902884 616.708642,295.291347 C617.097119,295.679809 617.097119,296.30963 616.708642,296.698092 L603.698126,309.708574 C603.511794,309.895485 603.258613,310.000374 602.994685,310 L602.994685,310 Z" id="Path" fill="#273142"></path>
                <path d="M278.5,45 L262.5,45 C260.015861,44.9973043 258.002756,43.0279622 258,40.5978261 L258,4.40217391 C258.002756,1.97203785 260.015861,0.0026956609 262.5,0 L278.5,0 C280.984139,0.0026956609 282.997244,1.97203785 283,4.40217391 L283,40.5978261 C282.997244,43.0279622 280.984139,44.9973043 278.5,45 Z" id="Path" fill="#A3D2C8"></path>
                <path d="M340.671717,384 L260.328283,384 C255.730844,383.994812 252.005173,380.257883 252,375.646552 L252,50.3534483 C252.005173,45.742117 255.730844,42.0051885 260.328283,42 L340.671717,42 C345.269174,42.0051452 348.99487,45.7420991 349,50.3534483 L349,375.646552 C348.99487,380.257901 345.269174,383.994855 340.671717,384 Z" id="Path" fill="#A3D2C8"></path>
                <path d="M292.671717,384 L212.328283,384 C207.730844,383.994812 204.005173,380.257883 204,375.646552 L204,50.3534483 C204.005173,45.742117 207.730844,42.0051885 212.328283,42 L292.671717,42 C297.269156,42.0051885 300.994827,45.742117 301,50.3534483 L301,375.646552 C300.994827,380.257883 297.269156,383.994812 292.671717,384 Z" id="Path" fill="#DFE2E5"></path>
                <path d="M264.5,45 L248.5,45 C246.015861,44.9973043 244.002756,43.0279622 244,40.5978261 L244,4.40217391 C244.002756,1.97203785 246.015861,0.0026956609 248.5,0 L264.5,0 C266.984139,0.0026956609 268.997244,1.97203785 269,4.40217391 L269,40.5978261 C268.997244,43.0279622 266.984139,44.9973043 264.5,45 Z" id="Path" fill="#DFE2E5"></path>
                <path d="M243.5,115 L224.5,115 C223.119941,114.99847 222.001576,113.912998 222,112.573529 L222,84.4264706 C222.001576,83.087002 223.119941,82.0015297 224.5,82 L243.5,82 C244.880059,82.0015297 245.998424,83.087002 246,84.4264706 L246,112.573529 C245.998424,113.912998 244.880059,114.99847 243.5,115 Z" id="Path" fill="#008C6F"></path>
                <path d="M279.5,115 L260.5,115 C259.119941,114.99847 258.001576,113.912998 258,112.573529 L258,84.4264706 C258.001576,83.087002 259.119941,82.0015297 260.5,82 L279.5,82 C280.880059,82.0015297 281.998424,83.087002 282,84.4264706 L282,112.573529 C281.998424,113.912998 280.880059,114.99847 279.5,115 Z" id="Path" fill="#FFFFFF"></path>
                <path d="M243.5,168 L224.5,168 C223.119941,167.99847 222.001576,166.912998 222,165.573529 L222,137.426471 C222.001576,136.087002 223.119941,135.00153 224.5,135 L243.5,135 C244.880059,135.00153 245.998424,136.087002 246,137.426471 L246,165.573529 C245.998424,166.912998 244.880059,167.99847 243.5,168 L243.5,168 Z" id="Path" fill="#FFFFFF"></path>
                <path d="M279.5,168 L260.5,168 C259.119941,167.99847 258.001576,166.912998 258,165.573529 L258,137.426471 C258.001576,136.087002 259.119941,135.00153 260.5,135 L279.5,135 C280.880059,135.00153 281.998424,136.087002 282,137.426471 L282,165.573529 C281.998424,166.912998 280.880059,167.99847 279.5,168 L279.5,168 Z" id="Path" fill="#008C6F"></path>
                <path d="M243.5,220 L224.5,220 C223.119941,219.99847 222.001576,218.912998 222,217.573529 L222,189.426471 C222.001576,188.087002 223.119941,187.00153 224.5,187 L243.5,187 C244.880059,187.00153 245.998424,188.087002 246,189.426471 L246,217.573529 C245.998424,218.912998 244.880059,219.99847 243.5,220 Z" id="Path" fill="#008C6F"></path>
                <path d="M279.5,220 L260.5,220 C259.119941,219.99847 258.001576,218.912998 258,217.573529 L258,189.426471 C258.001576,188.087002 259.119941,187.00153 260.5,187 L279.5,187 C280.880059,187.00153 281.998424,188.087002 282,189.426471 L282,217.573529 C281.998424,218.912998 280.880059,219.99847 279.5,220 Z" id="Path" fill="#FFFFFF"></path>
                <path d="M243.5,272 L224.5,272 C223.119941,271.99847 222.001576,270.912998 222,269.573529 L222,241.426471 C222.001576,240.087002 223.119941,239.00153 224.5,239 L243.5,239 C244.880059,239.00153 245.998424,240.087002 246,241.426471 L246,269.573529 C245.998424,270.912998 244.880059,271.99847 243.5,272 L243.5,272 Z" id="Path" fill="#FFFFFF"></path>
                <path d="M279.5,272 L260.5,272 C259.119941,271.99847 258.001576,270.912998 258,269.573529 L258,241.426471 C258.001576,240.087002 259.119941,239.00153 260.5,239 L279.5,239 C280.880059,239.00153 281.998424,240.087002 282,241.426471 L282,269.573529 C281.998424,270.912998 280.880059,271.99847 279.5,272 L279.5,272 Z" id="Path" fill="#FFFFFF"></path>
                <path d="M243.5,324 L224.5,324 C223.119941,323.99847 222.001576,322.912998 222,321.573529 L222,293.426471 C222.001576,292.087002 223.119941,291.00153 224.5,291 L243.5,291 C244.880059,291.00153 245.998424,292.087002 246,293.426471 L246,321.573529 C245.998424,322.912998 244.880059,323.99847 243.5,324 Z" id="Path" fill="#008C6F"></path>
                <path d="M279.5,324 L260.5,324 C259.119941,323.99847 258.001576,322.912998 258,321.573529 L258,293.426471 C258.001576,292.087002 259.119941,291.00153 260.5,291 L279.5,291 C280.880059,291.00153 281.998424,292.087002 282,293.426471 L282,321.573529 C281.998424,322.912998 280.880059,323.99847 279.5,324 Z" id="Path" fill="#FFFFFF"></path>
                <path d="M684.5,217 L668.5,217 C666.015879,216.997294 664.0028,215.051317 664,212.65 L664,192.35 C664.0028,189.948683 666.015879,188.002706 668.5,188 L684.5,188 C686.984123,188.002701 688.997206,189.948681 689,192.35 L689,212.65 C688.997206,215.051319 686.984123,216.997299 684.5,217 L684.5,217 Z" id="Path" fill="#A3D2C8"></path>
                <path d="M816.671717,385 L736.328283,385 C731.730828,384.994848 728.005135,381.257153 728,376.644886 L728,220.355114 C728.005135,215.742847 731.730828,212.005152 736.328283,212 L816.671717,212 C821.269174,212.005146 824.99487,215.742845 825,220.355114 L825,376.644886 C824.99487,381.257155 821.269174,384.994854 816.671717,385 Z" id="Path" fill="#A3D2C8"></path>
                <path d="M768.660377,385 L629.339623,385 C624.735908,384.994848 621.005142,381.257153 621,376.644886 L621,220.355114 C621.005142,215.742847 624.735908,212.005152 629.339623,212 L768.660377,212 C773.264094,212.005146 776.994863,215.742845 777,220.355114 L777,376.644886 C776.994863,381.257155 773.264094,384.994854 768.660377,385 Z" id="Path" fill="#DFE2E5"></path>
                <path d="M669.5,217 L653.5,217 C651.015879,216.997294 649.0028,215.051317 649,212.65 L649,192.35 C649.0028,189.948683 651.015879,188.002706 653.5,188 L669.5,188 C671.984123,188.002701 673.997206,189.948681 674,192.35 L674,212.65 C673.997206,215.051319 671.984123,216.997299 669.5,217 L669.5,217 Z" id="Path" fill="#DFE2E5"></path>
                <path d="M690.5,289 L671.5,289 C670.119962,288.998422 669.001626,287.912978 669,286.573529 L669,258.426471 C669.001626,257.087022 670.119962,256.001578 671.5,256 L690.5,256 C691.88004,256.001572 692.99838,257.08702 693,258.426471 L693,286.573529 C692.99838,287.91298 691.88004,288.998428 690.5,289 L690.5,289 Z" id="Path" fill="#008C6F"></path>
                <path d="M726.5,289 L707.5,289 C706.119962,288.998422 705.001626,287.912978 705,286.573529 L705,258.426471 C705.001626,257.087022 706.119962,256.001578 707.5,256 L726.5,256 C727.88004,256.001572 728.99838,257.08702 729,258.426471 L729,286.573529 C728.99838,287.91298 727.88004,288.998428 726.5,289 Z" id="Path" fill="#FFFFFF"></path>
                <path d="M690.5,341 L671.5,341 C670.119962,340.998422 669.001626,339.912978 669,338.573529 L669,310.426471 C669.001626,309.087022 670.119962,308.001578 671.5,308 L690.5,308 C691.88004,308.001572 692.99838,309.08702 693,310.426471 L693,338.573529 C692.99838,339.91298 691.88004,340.998428 690.5,341 L690.5,341 Z" id="Path" fill="#FFFFFF"></path>
                <path d="M726.5,341 L707.5,341 C706.119962,340.998422 705.001626,339.912978 705,338.573529 L705,310.426471 C705.001626,309.087022 706.119962,308.001578 707.5,308 L726.5,308 C727.88004,308.001572 728.99838,309.08702 729,310.426471 L729,338.573529 C728.99838,339.91298 727.88004,340.998428 726.5,341 Z" id="Path" fill="#008C6F"></path>
                <path d="M1028.01794,385 L0.982062068,385 C0.439684165,385 0,384.552285 0,384 C0,383.447715 0.439684165,383 0.982062068,383 L1028.01794,383 C1028.56032,383 1029,383.447715 1029,384 C1029,384.552285 1028.56032,385 1028.01794,385 Z" id="Path" fill="#E6E6E6"></path>
                <path d="M356.021053,420 L264.978947,420 C264.43829,420 264,419.552285 264,419 C264,418.447715 264.43829,418 264.978947,418 L356.021053,418 C356.56171,418 357,418.447715 357,419 C357,419.552285 356.56171,420 356.021053,420 Z" id="Path" fill="#E6E6E6"></path>
                <path d="M583.021053,420 L491.978947,420 C491.43829,420 491,419.552285 491,419 C491,418.447715 491.43829,418 491.978947,418 L583.021053,418 C583.56171,418 584,418.447715 584,419 C584,419.552285 583.56171,420 583.021053,420 Z" id="Path" fill="#E6E6E6"></path>
                <path d="M810.021053,420 L718.978947,420 C718.43829,420 718,419.552285 718,419 C718,418.447715 718.43829,418 718.978947,418 L810.021053,418 C810.56171,418 811,418.447715 811,419 C811,419.552285 810.56171,420 810.021053,420 Z" id="Path" fill="#E6E6E6"></path>
                <path d="M441,280.871469 C441,255.412612 420.628862,195 395.49995,195 C370.371039,195 350,255.412612 350,280.871469 C350,306.347553 370.371044,327 395.5,327 C420.628956,327 441,306.347553 441,280.871469 L441,280.871469 Z" id="Path" fill="#A3D2C8"></path>
                <path d="M430,280.871469 C430,255.412612 409.405003,195 383.99995,195 C358.594896,195 338,255.412612 338,280.871469 C338,306.347553 358.594902,327 384,327 C409.405098,327 430,306.347553 430,280.871469 L430,280.871469 Z" id="Path" fill="#008C6F"></path>
                <path d="M385.5,384 C384.67159,384 384.000041,383.356465 384,382.562661 L384,254.437339 C384,253.643519 384.671573,253 385.5,253 C386.328427,253 387,253.643519 387,254.437339 L387,382.562661 C387,383.356481 386.328427,384 385.5,384 Z" id="Path" fill="#354052"></path>
                <path d="M385.458871,275 C384.868801,275 384.336889,274.644381 384.111096,274.099242 C383.885303,273.554103 384.010079,272.926637 384.427259,272.509349 L403.509363,253.427308 C404.079131,252.857564 405.002907,252.857564 405.572674,253.427308 C406.142442,253.997053 406.142442,254.920791 405.572675,255.490535 L386.490585,274.572576 C386.217298,274.846712 385.845966,275.000549 385.458871,275 L385.458871,275 Z" id="Path" fill="#354052"></path>
                <path d="M910,313.548729 C910,296.190417 895.896904,255 878.499966,255 C861.103027,255 847,296.190417 847,313.548729 C847,330.918786 861.10303,345 878.5,345 C895.89697,345 910,330.918786 910,313.548729 L910,313.548729 Z" id="Path" fill="#008C6F"></path>
                <path d="M902,313.548729 C902,296.190417 887.896904,255 870.499966,255 C853.103027,255 839,296.190417 839,313.548729 C839,330.918786 853.10303,345 870.5,345 C887.89697,345 902,330.918786 902,313.548729 L902,313.548729 Z" id="Path" fill="#A3D2C8"></path>
                <path d="M872,384 C871.447727,384 871.000028,383.557877 871,383.012515 L871,294.987485 C871,294.442112 871.447715,294 872,294 C872.552285,294 873,294.442112 873,294.987485 L873,383.012515 C873,383.557888 872.552285,384 872,384 Z" id="Path" fill="#354052"></path>
                <path d="M871.994685,310 C871.592364,310 871.229697,309.757532 871.075747,309.385847 C870.921797,309.014161 871.006872,308.586344 871.291313,308.301829 L884.301839,295.291347 C884.690316,294.902884 885.320164,294.902884 885.708642,295.291347 C886.097119,295.679809 886.097119,296.30963 885.708642,296.698092 L872.698126,309.708574 C872.511794,309.895485 872.258613,310.000374 871.994685,310 L871.994685,310 Z" id="Path" fill="#354052"></path>
                <path d="M546.5,325 L524.5,325 C523.119816,324.998726 522.001274,323.880184 522,322.5 L522,300.5 C522.001274,299.119816 523.119816,298.001274 524.5,298 L546.5,298 C547.880184,298.001274 548.998726,299.119816 549,300.5 L549,322.5 C548.998726,323.880184 547.880184,324.998726 546.5,325 Z" id="Path" fill="#3F3D56"></path>
                <path d="M756.980605,335.056764 C757.427978,335.179298 757.800352,335.502295 757.997526,335.93884 C758.1947,336.375385 758.196418,336.880633 758.002219,337.318627 L762,341.341275 L759.183716,342 L755.819097,338.079041 C755.120094,337.681193 754.81679,336.80071 755.11312,336.029609 C755.40945,335.258508 756.211736,334.840551 756.980541,335.056764 L756.980605,335.056764 Z" id="Path" fill="#FFB8B8"></path>
                <path d="M762.316011,346.518397 L757.227859,341.680198 C757.085968,341.545263 757.00385,341.357969 757.000132,341.160798 C756.996414,340.963627 757.071409,340.773289 757.208109,340.632957 L758.247113,339.566437 C758.502581,339.304896 758.909861,339.276122 759.198657,339.499211 L763.462586,342.802127 L766.122832,336.262839 C766.335006,335.741304 766.750706,335.332051 767.271214,335.132266 C767.791722,334.932481 768.370602,334.959986 768.870386,335.208252 L768.870386,335.208252 C769.671002,335.600917 770.11984,336.482056 769.972064,337.371019 C769.48923,340.345506 766.564839,344.277732 764.864551,346.356967 C764.388612,346.937438 763.603468,347.150983 762.904756,346.889995 C762.686052,346.807102 762.485888,346.680764 762.316011,346.518397 Z" id="Path" fill="#008C6F"></path>
                <path d="M759.189949,340.865394 L755.062307,335.588915 C754.951776,335.447266 754.992203,335.253493 755.152677,335.155762 L755.31848,335.055012 C755.395643,335.008136 755.490775,334.990197 755.582946,335.005141 C755.675118,335.020084 755.756778,335.066686 755.809962,335.134695 L759.937531,340.411173 C759.990742,340.479165 760.011119,340.563005 759.994179,340.644241 C759.977238,340.725477 759.924368,340.797452 759.847203,340.844326 L759.68139,340.945077 C759.520666,341.042517 759.300773,341.006865 759.189917,340.865394 L759.189949,340.865394 Z" id="Path" fill="#FFFFFF"></path>
                <path d="M758.394901,341.578886 L755.161747,336.59656 C754.874838,336.153371 754.979737,335.547075 755.396238,335.241257 L755.725678,335 L760,341.586673 L759.670599,341.828025 L759.670599,341.828025 C759.253492,342.133043 758.682677,342.021562 758.394941,341.578886 L758.394901,341.578886 Z" id="Path" fill="#3F3D56"></path>
                <polygon id="Path" fill="#FFB8B8" points="759.076303 382 757 381.770238 757.275294 374 760 374.302472"></polygon>
                <path d="M758.689686,384 L752,383.271033 L752.009765,383.191106 C752.089428,382.539081 752.44017,381.943642 752.984828,381.535789 C753.529485,381.127935 754.22344,380.941078 754.91402,381.016326 L754.914181,381.016326 L759,381.461564 L758.689686,384 Z" id="Path" fill="#2F2E41"></path>
                <polygon id="Path" fill="#FFB8B8" points="782 380.406474 780.125355 381 777 373.875743 779.766521 373"></polygon>
                <path d="M783,382.261673 L777.129489,384 L777.106557,383.928813 C776.919339,383.347869 776.98053,382.719422 777.276667,382.18173 C777.572804,381.644038 778.079628,381.241147 778.685639,381.061694 L778.685786,381.061694 L782.271284,380 L783,382.261673 Z" id="Path" fill="#2F2E41"></path>
                <path d="M756.582593,379.992405 C756.156337,379.860781 755.911626,379.415417 756.029621,378.986022 L757.246752,365.004638 C757.303099,364.366805 757.50411,363.750118 757.834572,363.201252 L765.202375,351 L771.795509,352.182164 L771.838135,352.199781 C775.042504,354.158111 777.887458,363.653907 780.638772,372.837164 C781.06663,374.265244 781.509003,375.741949 781.940902,377.153225 C782.107838,377.572277 781.909355,378.047709 781.493643,378.224557 L779.497323,379.063244 C779.105342,379.229143 778.6512,379.070745 778.448139,378.697305 L768.185076,359.948292 C768.159239,359.900592 768.111489,359.868675 768.057451,359.862986 C768.00382,359.856158 767.95036,359.876819 767.915329,359.917912 L761.959224,366.643401 L759.770386,379.460209 L759.761558,379.488005 C759.598102,379.866851 759.18009,380.067821 758.781308,379.959285 L756.634371,380 L756.620973,380 L756.582593,379.992405 Z" id="Path" fill="#2F2E41"></path>
                <path d="M764.531235,351.671138 L764.489093,351.658094 L764.476376,351.616872 C764.445316,351.516456 761.402217,341.492989 764.144445,335.102969 L764.147268,335.097185 C764.227581,334.945038 766.140428,331.367535 768.363188,331.009544 L768.422376,331 L769.144742,332.314823 C769.371787,332.53643 773.282102,336.488477 771.507361,343.281528 C771.66669,343.838519 773.826093,351.485915 772.651836,352.628876 C772.223786,352.916398 771.703342,353.043519 771.186542,352.986781 C768.923587,352.798291 766.690449,352.356837 764.531235,351.671138 Z" id="Path" fill="#008C6F"></path>
                <circle id="Oval" fill="#2F2E41" cx="768" cy="325" r="5"></circle>
                <circle id="Oval" fill="#FFB8B8" cx="766" cy="326" r="4"></circle>
                <path d="M768.967925,329.860152 C768.582506,329.990778 768.109991,330.105941 767.806703,329.835032 C767.54859,329.515246 767.521718,329.077001 767.73898,328.730586 C767.958022,328.397939 768.135207,328.041737 768.266855,327.669376 C768.347514,327.1001 768.109353,326.532176 767.639654,326.173742 C767.181823,325.839809 766.662952,325.590258 766.109558,325.437843 L763.152487,324.433145 C762.383845,324.259921 761.701725,323.837536 761.222158,323.237838 C760.710277,322.202204 761.109977,320.964385 762.143479,320.384625 C763.160699,319.894137 764.355909,319.871663 765.392525,320.323533 C765.956536,320.574809 766.534733,320.795907 767.124437,320.985804 C768.30847,321.284361 769.654749,321.016526 770.695227,321.654611 C771.587337,322.301406 772.075118,323.336685 771.990562,324.403863 C771.901452,325.460258 771.606399,326.491402 771.120623,327.444107 C770.895094,328.031229 770.569197,328.578512 770.156211,329.063656 C769.745371,329.54434 769.115457,329.803814 768.467745,329.759168 L768.967925,329.860152 Z" id="Path" fill="#2F2E41"></path>
                <circle id="Oval" fill="#2F2E41" cx="772.5" cy="322.5" r="3.5"></circle>
                <path d="M767.161894,327.222285 C767.161687,327.110611 767.287847,327.016218 767.456504,327.00186 C767.625161,326.987501 767.78381,327.057645 767.82698,327.165662 C767.870151,327.273678 767.784404,327.385938 767.626744,327.427813 L767.626744,327.916012 C767.627149,327.945929 767.603074,327.973688 767.563684,327.988723 C767.524293,328.003759 767.475645,328.003759 767.436254,327.988723 C767.396864,327.973688 767.372789,327.945929 767.373194,327.916012 L767.373194,327.427813 C767.24557,327.393969 767.161981,327.312664 767.161894,327.222285 Z" id="Path" fill="#FFFFFF"></path>
                <path d="M756.55929,339.008443 C757.06261,338.958211 757.562289,339.133889 757.923868,339.488204 C758.285448,339.842519 758.471784,340.339072 758.432735,340.844247 L764,343.276461 L761.354009,345 L756.472899,342.426099 C755.611071,342.301487 754.978517,341.550815 755.000559,340.678829 C755.022601,339.806842 755.692271,339.089202 756.55929,339.008443 L756.55929,339.008443 Z" id="Path" fill="#FFB8B8"></path>
                <path d="M765.850831,346.86043 L759.440679,344.137131 C759.261918,344.061174 759.121043,343.915385 759.050005,343.732831 C758.978968,343.550278 758.983788,343.34643 759.063373,343.167524 L759.668333,341.807816 C759.817321,341.474144 760.187854,341.304169 760.53403,341.410695 L765.648293,342.992016 L765.892167,335.959161 C765.911624,335.398259 766.159646,334.870527 766.577335,334.501286 C766.995024,334.132045 767.545116,333.954236 768.09698,334.010085 L768.09698,334.010085 C768.979296,334.09485 769.70044,334.758754 769.867036,335.639645 C770.435367,338.583036 769.051427,343.277699 768.175862,345.814145 C767.930241,346.522699 767.270113,346.997777 766.528103,347 C766.295413,346.999583 766.065151,346.952132 765.850831,346.86043 L765.850831,346.86043 Z" id="Path" fill="#008C6F"></path>
                <path d="M83,345 L73,345 L73,341.695964 C76.1599557,339.302479 78.959715,339.510567 82.6428365,341.890314 L83,345 Z" id="Path" fill="#008C6F"></path>
                <polygon id="Path" fill="#FFB8B8" points="71 400 68.3902066 400 68 391 71 391"></polygon>
                <path d="M70.9998663,402 L64,401.999725 L64,401.905304 C64,401.134756 64.2870434,400.395767 64.7980019,399.850913 C65.3089604,399.30606 66.0019688,399 66.7245656,399 L66.7247375,399 L71,399.000183 L70.9998663,402 Z" id="Path" fill="#2F2E41"></path>
                <polygon id="Path" fill="#FFB8B8" points="83.0011477 400 85.6097934 400 86 391 83 391"></polygon>
                <path d="M83,399.000183 L87.2752683,399 L87.2754402,399 C87.9980363,399 88.6910433,399.306063 89.2020004,399.850917 C89.7129575,400.39577 90,401.134758 90,401.905304 L90,401.999725 L83.0001241,402 L83,399.000183 Z" id="Path" fill="#2F2E41"></path>
                <path d="M83.1249775,399 C82.738149,398.99875 82.4034665,398.729484 82.3180928,398.350827 L76.7382075,373.924551 C76.7129256,373.796422 76.599461,373.705126 76.4693515,373.708223 L76.4679654,373.708223 C76.3373076,373.705793 76.223982,373.798362 76.1998223,373.927254 L71.0756971,398.188855 C70.9933508,398.571224 70.657073,398.844632 70.2672876,398.846126 L67.8263458,398.846126 C67.5987197,398.846122 67.3811757,398.751884 67.2250415,398.585647 C67.0689073,398.41941 66.9880116,398.195898 67.001441,397.967846 L68.8195406,367.217222 L69.5511469,367 L69.5648699,367 L83.9354069,367.126378 L86.996062,397.843157 C87.0176651,398.064462 86.9497669,398.285198 86.8076231,398.455769 C86.6654792,398.62634 86.4610105,398.732442 86.2401582,398.750234 L83.1911568,398.997347 C83.168965,398.999116 83.1469053,399 83.1249775,399 Z" id="Path" fill="#2F2E41"></path>
                <circle id="Oval" fill="#FFB8B8" cx="77.5" cy="335.5" r="4.5"></circle>
                <path d="M74.4681538,370.999408 C73.6900604,371.009132 72.9150468,370.899016 72.1698289,370.672855 C70.8301844,370.264954 69.7168453,369.316565 69.0930627,368.051938 C68.9952689,367.86365 68.9735882,367.644412 69.0325789,367.440318 C69.5217166,365.754683 71.8854715,356.992807 70.3773108,350.027498 C69.9471878,348.072455 70.3222904,346.024862 71.4165567,344.35451 C72.4853583,342.69726 74.1752309,341.54965 76.0984309,341.175001 L76.0984309,341.174814 C76.3485837,341.125502 76.6000899,341.085078 76.8458807,341.054454 C78.9762623,340.789684 81.1124471,341.499327 82.6709488,342.989549 C84.2757469,344.509032 85.1244671,346.672849 84.985193,348.889729 L83.826148,367.670184 C83.8098839,367.956616 83.6453316,368.213196 83.3931321,368.34537 C82.0581952,369.051671 78.0480784,370.999408 74.4681538,370.999408 Z" id="Path" fill="#3F3D56"></path>
                <path d="M81.9722443,331.561128 C81.0345174,329.085818 78.5778365,327.635018 76.0770644,328.079712 L77.4582687,329.252029 C75.7421975,329.312736 73.9358053,329.183665 72.7105182,330.447124 C73.1005952,330.435751 73.6118535,331.312117 74.0019304,331.300754 C73.2584325,331.355697 72.6022374,331.831065 72.289177,332.541526 C71.9908397,333.247735 71.9210478,334.037175 72.0904842,334.789009 C72.5325064,335.89519 73.0465789,336.968062 73.6290484,338 C73.5781851,336.16969 77.0087792,331.803907 78.6840078,332.259575 C77.8328881,332.591258 77.094333,333.180231 76.5614822,333.952218 C77.7011765,333.348078 78.990147,333.126566 80.2537208,333.3177 C80.5422057,333.387186 80.8398335,333.404684 81.1338991,333.369448 C81.5003977,333.293297 81.8029409,333.022678 81.9328884,332.654768 C82.0628358,332.286857 82.0015367,331.87446 81.771003,331.565664 L81.9722443,331.561128 Z" id="Path" fill="#2F2E41"></path>
                <path d="M74.5414283,370 C74.4256017,370 74.3110752,369.976381 74.2050316,369.931323 L65.5057629,366.259071 C65.1237106,366.100644 64.9204825,365.694429 65.0291346,365.306379 L70.7881002,344.266336 C71.0043845,343.475473 71.5406182,342.802045 72.2759803,342.397783 C73.0113425,341.993521 73.8839712,341.892433 74.6972512,342.117297 L77,342.752895 L75.3789223,369.234767 C75.3620233,369.499917 75.2125156,369.740446 74.9783183,369.879262 C74.8470549,369.95785 74.6958078,369.999649 74.5414283,370 L74.5414283,370 Z" id="Path" fill="#008C6F"></path>
                <path d="M89.9705154,365.306057 L89.5877535,363.910523 L89.0333352,361.881307 L88.766333,360.908221 L88.2119248,358.884408 L84.21114,344.266455 C83.9955303,343.475258 83.4593722,342.801436 82.7237604,342.397176 C81.9881485,341.992916 81.1151316,341.892318 80.3018859,342.118102 L78,342.753584 L79.1406454,361.379428 L79.2583277,363.3238 L79.3329876,364.549636 L79.3329876,364.551437 L79.4524012,366.484984 L79.6205044,369.234536 C79.6489478,369.662834 80.0148869,369.997026 80.4586849,370 C80.5743613,369.999342 80.6886979,369.976002 80.7947805,369.931393 L89.494411,366.259315 C89.876789,366.1009 90.0799294,365.694172 89.9705154,365.306057 Z" id="Path" fill="#008C6F"></path>
                <polygon id="Path" fill="#CCCCCC" points="89 360.824161 80.1101119 363 80 361.24863 88.4814389 359"></polygon>
                <polygon id="Path" fill="#CCCCCC" points="90 364.204017 80.1168041 367 80 364.899577 80 364.897463 89.4591676 362"></polygon>
                <polygon id="Path" fill="#CCCCCC" points="75 361.963001 74.8877518 364 66 361.132613 66.5209466 359"></polygon>
                <polygon id="Path" fill="#CCCCCC" points="75 365.051 65.5441632 362 65 364.057 74.8849655 367"></polygon>
                <path d="M66.4388757,366.933194 C66.9906134,366.788055 67.4502278,366.404074 67.6940494,365.884568 C67.9378711,365.365062 67.9408549,364.763395 67.7021979,364.241459 L72,350.64328 L68.9524354,350 L65.0121065,363.332008 C64.1497675,363.804598 63.7744287,364.852531 64.138432,365.771275 C64.5024352,366.69002 65.4907274,367.189182 66.4388757,366.933174 L66.4388757,366.933194 Z" id="Path" fill="#FFB8B8"></path>
                <path d="M71.7267971,344 L71.7267971,344 C72.6545104,344.090254 73.1763075,345.085015 72.945653,346.323631 L71.8388129,352.267441 C71.7558416,352.713002 71.3713116,353.065796 71.0517601,352.989601 L67.3077819,352.097072 C67.0196944,352.028396 66.9135839,351.638057 67.0768403,351.247484 L69.3244554,345.870317 C69.6359101,344.828857 70.5945061,344.082552 71.7267971,344 Z" id="Path" fill="#3F3D56"></path>
                <path d="M77.7777778,327 L77.7777778,327 C80.8980265,327.000346 83.4540808,329.553853 83.5509702,332.767439 L84.6388962,332.767439 C84.8383277,332.76745 85,332.934038 85,333.139534 L85,334.627905 C85,334.833403 84.8383299,335 84.6388962,335 L72.3611135,335 C72.1616783,335 72,334.833405 72,334.627905 L72,332.953512 C72,331.374544 72.6087104,329.860241 73.6922559,328.743739 C74.7758014,327.627237 76.2454092,327 77.7777778,327 L77.7777778,327 Z" id="Path" fill="#008C6F"></path>
                <path d="M78.206811,363 L75.7931706,363 C75.6326607,363.000606 75.4982227,362.860804 75.4831313,362.67759 L75,357 L79,357 L78.5168779,362.677526 C78.5018082,362.860776 78.3673491,363.000614 78.206811,363 Z" id="Path" fill="#E6E6E6"></path>
                <path d="M78.6621561,358 L74.3378339,358 C74.151343,357.999848 74.0002201,357.89818 74,357.772721 L74,357.227279 C74.0002201,357.10182 74.151343,357.000152 74.3378339,357 L78.6621561,357 C78.8486509,357.000148 78.9997799,357.101818 79,357.227279 L79,357.772721 C78.9997799,357.898182 78.8486509,357.999852 78.6621561,358 Z" id="Path" fill="#CCCCCC"></path>
                <path d="M77.0887189,360.13456 C77.1874316,360.146281 77.2850915,360.16599 77.3807903,360.193503 L84.1410831,354.232032 L83.7459129,352.044703 L86.8781884,351 L87.943714,354.802309 C88.1205274,355.433284 87.8710838,356.108535 87.3314727,356.459664 L78.7698165,362.030831 C78.7822433,362.836671 78.308459,363.566342 77.5798897,363.863425 C76.8513203,364.160509 76.0199958,363.963014 75.4919872,363.367408 C74.9639787,362.771803 74.8494653,361.902373 75.2043825,361.183802 C75.5592997,360.46523 76.3095873,360.047462 77.0887576,360.13456 L77.0887189,360.13456 Z" id="Path" fill="#FFB8B8"></path>
                <path d="M84.4562859,344.053615 L84.4562859,344.053615 C85.3483271,343.793704 86.2396578,344.500421 86.5383123,345.704415 L87.9715512,351.482091 C88.0789841,351.915189 87.87032,352.375454 87.5444035,352.424253 L83.7263584,352.99588 C83.4325583,353.039866 83.1737078,352.726248 83.1629377,352.313264 L83.0146949,346.627691 C82.898162,345.532843 83.4835694,344.487551 84.4562859,344.053615 Z" id="Path" fill="#3F3D56"></path>
                <path d="M130.008533,360 L126.991467,360 C126.790817,360.000704 126.622764,359.837585 126.603911,359.623823 L126,353 L131,353 L130.396089,359.623741 C130.377274,359.837536 130.20921,360.0007 130.008533,360 Z" id="Path" fill="#E6E6E6"></path>
                <path d="M131.594597,354 L126.405413,354 C126.181621,353.999698 126.000269,353.796364 126,353.545446 L126,352.454543 C126.000275,352.203629 126.181625,352.000302 126.405413,352 L131.594597,352 C131.818381,352.000308 131.999725,352.203634 132,352.454543 L132,353.545446 C131.999731,353.79636 131.818385,353.999692 131.594597,354 L131.594597,354 Z" id="Path" fill="#CCCCCC"></path>
                <path d="M160.429965,397.62137 C158.135651,394.548655 156.321914,391.140497 155.051747,387.51526 C154.899798,387.06744 155.091792,386.574661 155.505629,386.350313 L163.356748,382.114678 C163.61412,381.974768 163.921202,381.962216 164.188991,382.080661 C164.461771,382.200008 164.664641,382.439348 164.738828,382.729342 C165.652639,386.222727 167.370339,389.450479 169.752961,392.151462 C169.95172,392.374235 170.037302,392.676867 169.9849,392.971643 C169.934526,393.26174 169.75406,393.512221 169.495808,393.650486 L161.64469,397.88611 C161.229957,398.108779 160.716117,397.996792 160.429965,397.62137 L160.429965,397.62137 Z" id="Path" fill="#CCCCCC"></path>
                <path d="M161.039924,396.895417 C161.122849,397 161.267636,397.030262 161.38477,396.967413 L168.85668,392.919829 C168.930236,392.881074 168.981585,392.80972 168.995418,392.727038 C169.011221,392.639754 168.985653,392.550027 168.92634,392.48462 C166.591982,389.827574 164.909089,386.652305 164.01382,383.21572 C163.992821,383.129643 163.933187,383.058461 163.852661,383.023354 C163.776795,382.98905 163.689408,382.992703 163.616603,383.033221 L156.144846,387.0807 C156.028079,387.144481 155.972745,387.283248 156.013111,387.411069 C157.200286,390.813271 158.895515,394.011749 161.039924,396.895417 L161.039924,396.895417 Z" id="Path" fill="#FFFFFF"></path>
                <path d="M164.581129,388.317545 L160.097344,389.950676 C159.74228,390.079616 159.327727,389.947064 159.170677,389.654376 L159.059781,389.447065 C158.903508,389.154095 159.064155,388.812036 159.418877,388.682457 L163.902662,387.049326 C164.257724,386.920382 164.672278,387.052936 164.829319,387.345626 L164.940226,387.552938 C165.096486,387.845908 164.935842,388.187959 164.581129,388.317545 Z" id="Path" fill="#CCCCCC"></path>
                <path d="M165.581129,391.317544 L161.097344,392.950676 C160.74228,393.079616 160.327727,392.947064 160.170677,392.654376 L160.059781,392.447064 C159.903508,392.154094 160.064155,391.812035 160.418877,391.682456 L164.902662,390.049324 C165.257727,389.920384 165.67228,390.052936 165.82933,390.345624 L165.940226,390.552936 C166.096486,390.845906 165.935842,391.187958 165.581129,391.317544 L165.581129,391.317544 Z" id="Path" fill="#CCCCCC"></path>
                <path d="M155.265793,388.616215 C154.668022,388.240213 154.271269,387.624625 154.182287,386.935085 C154.093306,386.245544 154.321235,385.55288 154.804748,385.043463 L153,360 L158.198616,360.492989 L158.341401,385.018083 C159.181199,385.888189 159.222717,387.234976 158.43804,388.152964 C157.653364,389.070951 156.290523,389.26997 155.265793,388.616215 L155.265793,388.616215 Z" id="Path" fill="#A0616A"></path>
                <path d="M154.783309,368.805359 C154.542077,368.624383 154.392563,368.339016 154.376796,368.029477 L154.004164,360.984828 C153.927798,359.539312 154.909885,358.266925 156.279897,358.0364 C157.64991,357.805876 158.965662,358.691617 159.328812,360.088878 L160.96571,366.387153 C161.107295,366.934345 160.797579,367.497838 160.27338,367.646768 L155.617084,368.963825 C155.330499,369.045515 155.023866,368.987237 154.783309,368.805359 L154.783309,368.805359 Z" id="Path" fill="#3F3D56"></path>
                <polygon id="Path" fill="#A0616A" points="145.999008 419 143.289683 418.999051 142 409 146 409"></polygon>
                <path d="M140.522455,419 L146,419 L146,422 L138,422 L138,421.448317 C138,420.798986 138.265744,420.176247 138.738797,419.717098 C139.21185,419.257948 139.853452,419 140.522455,419 L140.522455,419 Z" id="Path" fill="#2F2E41"></path>
                <polygon id="Path" fill="#A0616A" points="155.999008 419 153.289683 418.999051 152 409 156 409"></polygon>
                <path d="M150.522455,419 L156,419 L156,422 L148,422 L148,421.448317 C148,420.798986 148.265744,420.176247 148.738797,419.717098 C149.21185,419.257948 149.853452,419 150.522455,419 L150.522455,419 Z" id="Path" fill="#2F2E41"></path>
                <path d="M145.9071,413.998713 L142.98719,413.857863 C142.47071,413.833105 142.063501,413.404124 142.059939,412.881035 C141.290145,400.860503 140.22403,387.971283 141.856157,382.99193 C141.854214,382.704818 141.976172,382.431135 142.190121,382.242491 C142.40407,382.053847 142.688719,381.969014 142.969587,382.01019 L154.651012,383.72572 C155.128188,383.793306 155.483567,384.205678 155.484723,384.693137 C156.976092,390.588898 157.043534,401.280078 156.987122,412.388534 C156.989063,412.651044 156.887351,412.903478 156.704563,413.089806 C156.521774,413.276134 156.273032,413.38094 156.013547,413.380961 L152.86566,413.380961 C152.385665,413.382919 151.97659,413.029071 151.903921,412.54906 L149.961751,400.058336 C149.903065,399.680424 149.577804,399.404238 149.19974,399.411294 C148.821676,399.418351 148.506706,399.706487 148.461837,400.086331 L146.920124,413.13197 C146.860036,413.626409 146.445722,413.998393 145.953317,414 C145.938008,414 145.922602,413.999571 145.9071,413.998713 Z" id="Path" fill="#2F2E41"></path>
                <path d="M148.423969,384.969203 C146.719742,383.969757 144.830981,383.323945 142.870805,383.070446 C142.610466,383.045376 142.371806,382.914855 142.2105,382.709331 C142.045603,382.502378 141.972834,382.237025 142.009145,381.975086 L144.806816,361.24076 C145.134321,358.77433 146.719102,356.653619 148.994097,355.637454 C151.196236,354.626912 153.765712,354.827968 155.783226,356.168689 C155.879103,356.232358 155.973181,356.297357 156.065461,356.363687 C158.402017,358.072696 159.479906,361.016644 158.798041,363.82696 C157.082436,370.832985 156.493151,382.318705 156.392415,384.550115 C156.376238,384.93904 156.127319,385.280083 155.761419,385.414643 C154.705873,385.797565 153.591986,385.995545 152.46891,386 C151.05435,386.008407 149.661379,385.65348 148.423969,384.969203 L148.423969,384.969203 Z" id="Path" fill="#3F3D56"></path>
                <circle id="Oval" fill="#A0616A" cx="150.5" cy="347.5" r="5.5"></circle>
                <path d="M154.331023,351.42455 C153.856759,351.936938 153.129164,352.127584 152.465279,351.913417 C151.801395,351.699249 151.321484,351.119064 151.234663,350.425671 C151.224071,350.30834 151.22484,350.190256 151.236957,350.073073 C151.439344,349.429295 151.56136,348.762875 151.600217,348.089038 C151.579287,347.913124 151.513874,347.745478 151.410176,347.601988 C150.584252,346.493802 148.645453,348.097643 147.865962,347.094411 C147.388009,346.479266 147.949846,345.510761 147.583064,344.823233 C147.098979,343.91581 145.665117,344.363464 144.765958,343.866497 C143.765515,343.313584 143.825349,341.775565 144.483913,340.840067 C145.351743,339.720922 146.672096,339.047393 148.085839,339.00268 C149.48398,338.969713 150.872599,339.241259 152.15577,339.798558 C153.671167,340.292424 155.008395,341.221443 156.001389,342.470243 C157.041817,344.128464 157.283427,346.1674 156.659455,348.023632 C156.116061,349.300763 155.32456,350.456834 154.331023,351.42455 L154.331023,351.42455 Z" id="Path" fill="#2F2E41"></path>
                <path d="M158.997771,356.486528 C158.90154,356.041324 158.076119,355.433036 156.894928,354.93714 C153.04396,353.400505 148.679537,353.769058 145.150179,355.928922 C144.900641,355.94214 144.690882,356.118106 144.637868,356.358697 L140.664734,373.670695 L140.147947,375.925322 L139.80572,377.417402 L139.288943,379.665432 L139.013782,380.866577 C138.978176,381.021921 139.012315,381.184846 139.107449,381.313601 C139.202584,381.442356 139.349468,381.524426 139.51046,381.53878 L156.666734,382.997794 C156.682356,382.997794 156.700267,383 156.715929,383 C157.009618,382.998252 157.251913,382.77302 157.270728,382.484273 L157.434035,380.035692 L157.608586,377.417402 L157.684608,376.282358 L157.85687,373.670695 L159,356.515163 L159,356.499753 L158.997771,356.486528 Z" id="Path" fill="#008C6F"></path>
                <path d="M130.604039,357.784338 C130.631321,357.903223 130.649104,358.024054 130.657226,358.14571 L140.205167,363.605936 L142.525931,362.281549 L145,365.492225 L140.035233,369 L129.142488,360.481445 C128.232849,360.815121 127.209831,360.556046 126.573101,359.830757 C125.936371,359.105469 125.818782,358.065297 126.277766,357.218287 C126.736751,356.371277 127.676543,355.894155 128.638126,356.019961 C129.599709,356.145766 130.38245,356.848248 130.604039,357.784299 L130.604039,357.784338 Z" id="Path" fill="#A0616A"></path>
                <path d="M140.005775,362.451502 C139.973089,362.152573 140.080334,361.855229 140.297366,361.643049 L145.227203,356.803743 C146.238839,355.810801 147.851088,355.727688 148.963155,356.611151 C150.075222,357.494613 150.328168,359.059499 149.549289,360.237351 L146.038515,365.546594 C145.73307,366.00738 145.105208,366.138562 144.635005,365.839834 L140.462585,363.182451 C140.205343,363.019303 140.037346,362.750488 140.005775,362.451502 L140.005775,362.451502 Z" id="Path" fill="#3F3D56"></path>
                <polygon id="Path" fill="#CCCCCC" points="157 373 156.835195 376 140 375.589928 140.496343 373"></polygon>
                <polygon id="Path" fill="#CCCCCC" points="157 377 156.828355 380 139 379.576124 139.508029 377"></polygon>
                <path d="M150.8889,337 L150.8889,337 C147.048603,337.000387 143.902696,339.873082 143.783445,343.488369 L142.444438,343.488369 C142.198982,343.488379 142,343.675792 142,343.906977 L142,345.581392 C142,345.812577 142.198982,346 142.444438,346 L157.555553,346 C157.801012,346 158,345.812581 158,345.581392 L158,343.697659 C158,341.921324 157.250807,340.217741 155.917215,338.961684 C154.583622,337.705627 152.774882,337 150.8889,337 Z" id="Path" fill="#008C6F"></path>
                <path d="M189.5,407.999623 L187.97168,407.999623 C187.96192,407.814539 185.91016,402.998993 185.91016,402.998993 L184.66993,399.998616 L183.8501,397.998364 L182.60987,394.997987 L181.18995,391.547553 C181.115128,391.226866 180.829265,391 180.5,391 C180.170745,391 179.884882,391.226866 179.81006,391.547553 L178.39014,394.997987 L177.14991,397.998364 L176.33008,399.998616 L175.08985,402.998993 C175.08985,402.998993 173.03809,407.814539 173.02832,407.999623 L171.5,407.999623 C170.671573,407.999623 170,408.67128 170,409.499811 C170,410.328343 170.671573,411 171.5,411 L189.5,411 C190.328427,411 191,410.328343 191,409.499811 C191,408.67128 190.328427,407.999623 189.5,407.999623 Z" id="Path" fill="#FF6584"></path>
                <path d="M188.5,434 L187.90772,434 C187.96192,433.87207 185.33008,427.139999 185.33008,427.139999 L183.75,423.289998 L182.68995,420.709998 L181.10987,416.859997 L179.39014,412.689996 C179.290556,412.284833 178.927237,412 178.510015,412 C178.092793,412 177.729474,412.284833 177.62989,412.689996 L175.91016,416.859997 L174.33008,420.709998 L173.25977,423.289998 L171.68018,427.139999 C171.68018,427.139999 169.05811,433.87206 169.11231,434 L168.5,434 C167.671573,434 167,434.671573 167,435.5 C167,436.328427 167.671573,437 168.5,437 L188.5,437 C189.328427,437 190,436.328427 190,435.5 C190,434.671573 189.328427,434 188.5,434 L188.5,434 Z" id="Path" fill="#FF6584"></path>
                <polygon id="Path" fill="#F2F2F2" points="184 398 177 398 178.295522 395 182.704478 395"></polygon>
                <polygon id="Path" fill="#F2F2F2" points="186 403 175 403 176.260628 400 184.739372 400"></polygon>
                <polygon id="Path" fill="#F2F2F2" points="183 420 175 420 176.511962 416 181.488038 416"></polygon>
                <polygon id="Path" fill="#F2F2F2" points="185 427 172 427 173.504762 423 183.495238 423"></polygon>
                <path d="M568.794266,352.948627 C568.281218,352.824587 567.847298,352.470359 567.609261,351.981255 C567.371224,351.492152 567.353522,350.918413 567.560917,350.414416 L561,334.984055 L564.75318,334 L570.022189,349.47702 C570.830167,349.905253 571.202771,350.894893 570.889497,351.780598 C570.576223,352.666302 569.67609,353.168117 568.794266,352.948667 L568.794266,352.948627 Z" id="Path" fill="#A0616A"></path>
                <path d="M561.914683,339.926194 C561.689077,339.826027 561.518653,339.633274 561.447911,339.398266 L560.226117,335.342287 C559.669984,334.172206 560.174985,332.776277 561.354068,332.22439 C562.53315,331.672504 563.93982,332.173649 564.495953,333.343729 L566.858758,336.884856 C566.995189,337.089363 567.035165,337.342673 566.968267,337.578779 C566.901369,337.814886 566.734224,338.010404 566.510385,338.114385 L562.622497,339.920358 C562.398667,340.02447 562.140226,340.026601 561.914683,339.926194 L561.914683,339.926194 Z" id="Path" fill="#008C6F"></path>
                <path d="M575.867089,338.216378 L571.642229,340.944894 C571.531174,341.018369 571.380917,341.018369 571.269863,340.944894 L570.128236,340.162922 C570.051353,340.111633 570.004256,340.0312 570.000274,339.94439 C569.996293,339.85758 570.03586,339.77384 570.107778,339.716871 L573.358766,337.072342 C573.44575,337.003029 573.566833,336.981652 573.675885,337.016357 L575.791384,337.706877 C575.902122,337.744177 575.981248,337.834187 575.997102,337.940893 C576.012956,338.047599 575.962949,338.153573 575.867089,338.216415 L575.867089,338.216378 Z" id="Path" fill="#3F3D56"></path>
                <path d="M575.992976,337.925416 C576.014315,337.86072 575.985424,337.788773 575.928118,337.763904 L574.045225,337.007388 C574.007067,336.992078 573.964527,337.000926 573.933783,337.030568 L571.036262,339.932231 L571.020407,339.95146 C571.003598,339.977592 570.996768,340.010175 571.001432,340.041983 C571.006096,340.073791 571.021868,340.102194 571.04525,340.120895 L572.059829,340.97635 C572.099137,341.008366 572.152448,341.007829 572.191238,340.975026 L575.953447,337.983815 C575.971525,337.969224 575.985294,337.948882 575.992976,337.925416 Z" id="Path" fill="#FFFFFF"></path>
                <polygon id="Path" fill="#A0616A" points="561 382 563.032505 382 564 374 561 374"></polygon>
                <path d="M560,381.000185 L564.275264,381 L564.275437,381 C564.998034,381 565.691041,381.30607 566.201998,381.850924 C566.712955,382.395777 567,383.134764 567,383.905309 L567,383.999717 L560.000123,384 L560,381.000185 Z" id="Path" fill="#2F2E41"></path>
                <polygon id="Path" fill="#A0616A" points="554 382 556.033461 382 557 374 554 374"></polygon>
                <path d="M553,381.000185 L557.275274,381 L557.275437,381 C557.998036,381 558.691045,381.306062 559.202004,381.850917 C559.712962,382.395772 560,383.134762 560,383.905309 L560,383.999717 L553.000133,384 L553,381.000185 Z" id="Path" fill="#2F2E41"></path>
                <path d="M553.333062,379.777822 C553.187261,379.612896 553.105504,379.402148 553.102377,379.18318 C552.595318,374.027576 553.975316,346.925466 557.164001,344.611175 L557.183734,344.592251 L566.516242,343 L566.516242,343 L566.689781,343.171475 C566.70325,343.410432 568.400027,367.16658 563.71446,379.290863 C563.597279,379.586773 563.308504,379.78145 562.986923,379.781332 L561.123801,379.781332 C560.906058,379.781336 560.698202,379.691505 560.550392,379.533519 C560.402581,379.375532 560.328241,379.163739 560.345312,378.949247 L561.85373,356.247312 C561.86456,356.112419 561.767762,355.992304 561.632287,355.972526 C561.496813,355.952748 561.368998,356.040073 561.339887,356.172297 L557.091686,379.213663 C557.016717,379.546662 556.730525,379.792281 556.386342,379.819013 L553.939654,379.998023 C553.920308,379.999341 553.901016,380 553.881777,380 C553.67644,380 553.479338,379.920216 553.333062,379.777822 Z" id="Path" fill="#2F2E41"></path>
                <circle id="Oval" fill="#A0616A" cx="565" cy="325" r="4"></circle>
                <path d="M555.277703,347.792938 C555.104898,347.610406 555.005589,347.366336 555,347.11043 L556.669383,338.994201 C555.337848,333.117439 557.110602,332.015735 559.111316,330.90207 L559.098513,330.895183 L559.934059,328.546893 C559.987697,328.33539 560.129393,328.159761 560.320519,328.067883 C560.511646,327.976005 560.732277,327.977458 560.922266,328.071845 L565.183115,330.422777 C565.374788,330.534853 565.516685,330.720293 565.578517,330.939514 C565.650561,331.172378 565.64564,331.42356 565.564534,331.653187 L565.249902,332.537495 C566.063499,333.666099 567.321692,338.129975 565.990157,339.858436 L566.994977,345.618691 C567.040073,346.055927 566.777432,346.46403 566.371164,346.588002 L555.872312,347.987044 C555.831535,347.995664 555.790027,348 555.748413,348 C555.571498,347.997431 555.402565,347.923118 555.277703,347.792938 L555.277703,347.792938 Z" id="Path" fill="#008C6F"></path>
                <path d="M571.08953,339.084593 C571.023024,339.145355 570.961555,339.211116 570.905694,339.281264 L562.741965,338.733371 L561.866169,337 L559,337.941808 L560.243383,341.156739 C560.449712,341.69024 560.993861,342.027421 561.57895,341.984322 L570.862204,341.300562 C571.282998,341.868217 572.021544,342.123751 572.717085,341.942344 C573.412626,341.760937 573.920022,341.180444 573.991425,340.484418 C574.062828,339.788391 573.68334,339.122073 573.038327,338.810938 C572.393315,338.499803 571.617375,338.608778 571.08953,339.08463 L571.08953,339.084593 Z" id="Path" fill="#A0616A"></path>
                <path d="M562.472965,338.77731 L558.781299,339.961986 C558.568752,340.030185 558.335934,340.005832 558.143512,339.895272 C557.95109,339.784712 557.818122,339.598896 557.779255,339.386242 L557.106536,335.703819 C556.739907,334.6231 557.349916,333.460242 558.470214,333.104242 C559.590512,332.748242 560.798379,333.333429 561.170408,334.412432 L562.917025,337.73751 C563.018158,337.930183 563.027275,338.155746 562.942002,338.35542 C562.856728,338.555095 562.68551,338.709102 562.472965,338.77731 L562.472965,338.77731 Z" id="Path" fill="#008C6F"></path>
                <circle id="Oval" fill="#2F2E41" cx="563.5" cy="317.5" r="3.5"></circle>
                <path d="M569.373629,325.346132 C569.699485,325.415765 570.037155,325.38557 570.347606,325.259037 C570.66845,325.064823 570.883249,324.718955 570.925844,324.327961 C571.552728,319.883179 568.010937,320.248796 567.592005,320.056294 C567.327669,319.890886 567.079516,319.697651 566.85126,319.47948 C566.261438,319.130222 565.588876,318.972374 564.91616,319.025318 C564.120809,318.946799 563.318931,319.05142 562.564737,319.332109 C561.907808,319.660564 561.361948,320.197475 561.001755,320.869469 C560.645318,321.538601 560.384129,322.260586 560.226758,323.011725 C559.978596,323.86173 559.933289,324.764413 560.094952,325.637841 C560.447747,326.974417 561.557847,327.923752 562.857129,328 C562.648206,326.925028 563.14078,325.83411 564.058818,325.338586 C564.768998,324.965838 565.577192,324.863146 566.349537,325.047519 C566.850502,325.155821 567.358458,325.223323 567.869014,325.249441 C568.36998,325.26944 568.971479,325.300783 569.373629,325.346132 Z" id="Path" fill="#2F2E41"></path>
                <path d="M897,383 C897.007162,373.609061 904.616223,366 914,366 C923.383777,366 930.992838,373.609061 931,383" id="Path" fill="#F2F2F2"></path>
                <path d="M913.5,383 C913.243798,383 913.036114,382.79175 913.03607,382.534892 L913.03607,373.465118 C913.03607,373.20824 913.243779,373 913.5,373 C913.756221,373 913.96393,373.20824 913.96393,373.465118 L913.96393,382.534892 C913.963886,382.79175 913.756202,383 913.5,383 L913.5,383 Z" id="Path" fill="#CCCCCC"></path>
                <path d="M913.571395,379.999905 C913.469058,380 913.370085,379.958312 913.292548,379.882286 L908.152266,374.860384 C908.034565,374.747436 907.979163,374.571282 908.007146,374.398967 C908.035128,374.226652 908.142192,374.084682 908.287586,374.027092 C908.43298,373.969502 908.594342,374.005151 908.710255,374.120469 L913.850593,379.142371 C913.986624,379.275261 914.035577,379.490511 913.973281,379.681842 C913.910986,379.873174 913.750618,380.000119 913.571358,380 L913.571395,379.999905 Z" id="Path" fill="#CCCCCC"></path>
                <path d="M949,383 C949.007162,373.609061 956.616223,366 966,366 C975.383777,366 982.992838,373.609061 983,383" id="Path" fill="#F2F2F2"></path>
                <path d="M965.5,383 C965.243785,383 965.036081,382.791763 965.03607,382.534892 L965.03607,373.465118 C965.03607,373.20824 965.243779,373 965.5,373 C965.756221,373 965.96393,373.20824 965.96393,373.465118 L965.96393,382.534892 C965.963886,382.79175 965.756202,383 965.5,383 L965.5,383 Z" id="Path" fill="#CCCCCC"></path>
                <path d="M965.571412,379.999905 C965.46908,380 965.370113,379.958314 965.29258,379.882292 L960.152531,374.860636 C960.034685,374.747734 959.979166,374.571502 960.007127,374.399082 C960.035088,374.226663 960.142223,374.084608 960.287715,374.02704 C960.433207,373.969472 960.59465,374.005255 960.710536,374.120757 L965.850585,379.142413 C965.986618,379.27529 966.035576,379.490533 965.973285,379.68186 C965.910993,379.873186 965.750628,380.000127 965.571375,380 L965.571412,379.999905 Z" id="Path" fill="#CCCCCC"></path>
                <g id="Group-5" transform="translate(386.000000, 339.000000)">
                    <rect id="Rectangle" fill="#FFFFFF" opacity="0.4" transform="translate(18.552116, 56.310612) rotate(-180.000000) translate(-18.552116, -56.310612) " x="16.107672" y="53.3758289" width="4.88888889" height="5.86956522"></rect>
                    <rect id="Rectangle" fill="#FFFFFF" opacity="0.4" transform="translate(18.552116, 65.114959) rotate(-180.000000) translate(-18.552116, -65.114959) " x="16.107672" y="62.1801767" width="4.88888889" height="5.86956522"></rect>
                    <path d="M18.1611984,48.4083126 C18.0344126,48.5064246 17.9652566,48.5607366 17.9652566,48.5607366 C18.0372006,48.5203569 18.1032121,48.4690062 18.1611984,48.4083126 Z" id="Path" fill="url(#linearGradient-1)"></path>
                    <path d="M18.1611984,48.4083126 C18.0344126,48.5064246 17.9652566,48.5607366 17.9652566,48.5607366 C18.0372006,48.5203569 18.1032121,48.4690062 18.1611984,48.4083126 Z" id="Path" fill="url(#linearGradient-2)"></path>
                    <path d="M18.1611984,48.4083126 C18.0344126,48.5064246 17.9652566,48.5607366 17.9652566,48.5607366 C18.0372006,48.5203569 18.1032121,48.4690062 18.1611984,48.4083126 Z" id="Path" fill="url(#linearGradient-3)"></path>
                    <path d="M36.046643,83.5317666 C36.046643,83.5317666 33.36802,87.5310591 31.5817276,87.4519674 C31.5817276,87.4519674 26.596422,88.4715634 30.0189256,89.4120677 C33.4414293,90.3525721 43.4854498,86.8243914 43.4854498,86.8243914 L42.2913255,82.723655 L36.046643,83.5317666 Z" id="Path" fill="#333333"></path>
                    <path d="M24.907672,56.5080631 L28.7266654,66.5479282 L32.0301112,72.3802917 C32.0301112,72.3802917 36.5600351,82.6873265 36.2612145,84.6801767 L43.4854498,83.492196 C43.4854498,83.492196 37.8686068,67.6972617 36.2973356,65.5599047 C36.2973356,65.5599047 34.655464,64.5634796 34.7244226,62.8714052 L32.7032786,52.8315401 C32.7032786,52.8315401 34.6735246,50.8890992 33.5701868,48.4627285 C33.5143632,48.3383854 33.4497829,48.2129221 33.376446,48.0863385 C31.865924,45.4801744 26.1817644,46.9302838 26.1817644,46.9302838 L24.907672,56.5080631 Z" id="Path" fill="#535461"></path>
                    <path d="M24.907672,56.5080631 L28.7266654,66.5479282 L32.0301112,72.3802917 C32.0301112,72.3802917 36.5600351,82.6873265 36.2612145,84.6801767 L43.4854498,83.492196 C43.4854498,83.492196 37.8686068,67.6972617 36.2973356,65.5599047 C36.2973356,65.5599047 34.655464,64.5634796 34.7244226,62.8714052 L32.7032786,52.8315401 C32.7032786,52.8315401 34.6735246,50.8890992 33.5701868,48.4627285 C33.5143632,48.3383854 33.4497829,48.2129221 33.376446,48.0863385 C31.865924,45.4801744 26.1817644,46.9302838 26.1817644,46.9302838 L24.907672,56.5080631 Z" id="Path" fill="#000000" opacity="0.03"></path>
                    <path d="M10.7912996,80.7671333 C10.7912996,80.7671333 7.64494551,83.112842 4.58139023,83.1869489 C4.58139023,83.1869489 -0.766031716,83.0493219 0.726071503,84.083793 C2.21817472,85.1182642 15.5160056,86.6366985 15.5160056,86.6366985 L16.107672,82.6001436 L10.7912996,80.7671333 Z" id="Path" fill="#333333"></path>
                    <g id="Group" opacity="0.1" transform="translate(10.241005, 44.571481)" fill="#000000">
                        <path d="M11.6407887,1.10564292 C11.6407887,1.10564292 6.66651643,8.16910268 4.69994366,15.3074931 C4.69994366,15.3074931 2.96638498,18.3446809 3.19278873,21.4584644 L0.0330516432,36.8758557 L5.83692019,39.0788159 C5.83692019,39.0788159 5.53615023,37.1805735 6.66321127,36.1165587 C7.7902723,35.0525439 10.4310986,24.2691952 10.2063474,22.5990749 C10.2063474,22.5990749 13.8238498,13.4858464 17.4413521,9.91581869 C21.0588545,6.34579093 22.860169,5.52321924 23.3906488,2.44107308 C23.3939531,2.44107308 14.8815023,-1.70508788 11.6407887,1.10564292 Z" id="Path"></path>
                    </g>
                    <path d="M21.9095773,45.5532375 C21.9095773,45.5532375 16.9120813,52.6493434 14.9363271,59.8207261 C14.9363271,59.8207261 13.1946748,62.8719513 13.4221356,66.0001262 L10.2410053,81.488774 L16.0719707,83.7019159 C16.0719707,83.7019159 15.7697965,81.7949002 16.9021195,80.7259677 C18.0344425,79.6570352 20.6875982,68.8238477 20.4617977,67.1460084 C20.4617977,67.1460084 24.0961893,57.9906602 27.7305808,54.4041324 C31.3649724,50.8176046 33.1746969,49.9912311 33.707672,46.8948398 C33.7225951,46.8948398 25.1704019,42.729516 21.9095773,45.5532375 Z" id="Path" fill="#535461"></path>
                    <g id="Group" opacity="0.1" transform="translate(16.107672, 44.571481)" fill="#000000">
                        <path d="M9.0373578,0.0532839963 C12.6881468,0.0982423682 17.2350826,2.36447734 17.2350826,2.36447734 C16.715156,5.4466235 14.9567706,6.26919519 11.4222385,9.83922294 C7.88770642,13.4092507 4.35155963,22.5208141 4.35155963,22.5208141 C4.57277064,24.1859389 1.99574312,34.9759482 0.889688073,36.0382979 C-0.0791192661,36.9641073 0.0274495413,38.5209991 0.0678165138,38.9106383 L0.300330275,39.000555 C0.300330275,39.000555 0.0064587156,37.1023127 1.10766972,36.0382979 C2.20888073,34.9742831 4.79398165,24.1859389 4.57277064,22.5208141 C4.57277064,22.5208141 8.10730275,13.4075856 11.6418349,9.83755782 C15.176367,6.26753006 16.936367,5.44495837 17.4546793,2.36281221 C17.4562936,2.37280296 12.722055,0.00666049954 9.0373578,0.0532839963 Z" id="Path"></path>
                    </g>
                    <path d="M17.7141766,33.8106115 C17.7141766,33.8106115 14.1958987,38.418604 11.8218287,39.4197503 C11.5607465,39.5299214 11.3079187,39.6606038 11.0654879,39.8106903 C10.7341556,40.031717 10.3654192,40.1834965 9.97945997,40.2577217 C9.6954233,40.2867733 9.41767689,40.3636767 9.15685848,40.4854867 C7.92214818,41.0837948 5.07455715,42.6951475 6.95409652,44.1229282 C9.31200532,45.9059545 12.4828189,41.7976852 12.4828189,41.7976852 C12.4828189,41.7976852 13.829041,40.9104215 14.6209364,40.711552 C15.4128317,40.5126825 19.0410053,37.845792 19.0410053,37.845792 L17.7141766,33.8106115 Z" id="Path" fill="#FDA57D"></path>
                    <polygon id="Path" fill="#008C6F" points="18.4116135 33.8106115 17.0854498 35.090764 19.0410053 37.723655"></polygon>
                    <g id="Group" opacity="0.1" transform="translate(17.085450, 33.810612)" fill="#000000">
                        <polygon id="Path" points="1.29625397 0.00489130435 0.0866031746 1.2701087 1.87034921 3.87228261"></polygon>
                    </g>
                    <path d="M22.4642404,18.1584376 C22.4642404,18.1584376 18.9596364,21.180985 20.4266407,22.0321914 L18.0632275,27.9209767 L18.8786051,49.4627854 L22.2194583,43.8832208 L19.9370765,31.7947305 C19.9370765,31.7947305 19.2854498,24.5875096 21.1592987,22.8833978 L22.9521164,19.3154667 L22.4642404,18.1584376 Z" id="Path" fill="#008C6F"></path>
                    <g id="Group" opacity="0.1" transform="translate(18.063228, 18.158438)" fill="#000000">
                        <path d="M4.38207407,0.0423031727 C4.38207407,0.0423031727 0.998962963,3.05259694 2.41511111,3.90035253 L0.13362963,9.76526439 L0.920740741,31.2197415 L4.14577778,25.6627967 L1.94251852,13.6233137 C1.94251852,13.6233137 1.31348148,6.4453114 3.12237037,4.74810811 L4.85303704,1.1946416 L4.38207407,0.0423031727 Z" id="Path"></path>
                    </g>
                    <path d="M19.0410053,15.2205647 C19.0410053,15.2205647 22.11327,18.6644424 22.0295472,20.6549097 C21.9458243,22.6453769 27.8410053,17.211032 27.8410053,17.211032 C27.8410053,17.211032 25.6005089,14.6851861 26.1811087,12.0082929 C26.7617085,9.33139968 19.0410053,15.2205647 19.0410053,15.2205647 Z" id="Path" fill="#FDA57D"></path>
                    <path d="M36.6410053,32.9168326 L37.4140577,38.9761273 L37.4140577,44.9540558 C37.4140577,44.9540558 36.3307672,52.6788678 39.7332147,51.2408439 C43.1356623,49.80282 40.6605385,44.5007295 40.6605385,44.5007295 C40.6605385,44.5007295 40.6605385,41.5466366 41.125048,40.032228 C41.5895576,38.5178195 40.8877074,31.8540898 40.8877074,31.8540898 L36.6410053,32.9168326 Z" id="Path" fill="#FDA57D"></path>
                    <path d="M25.8854498,18.1584376 C25.8854498,18.1584376 23.8034157,20.1210695 22.7226523,19.4409332 L21.2410424,23.0435045 C20.3355299,25.2456815 19.924828,27.6126884 20.0368116,29.9838739 L20.5645082,43.5932202 L22.8782552,43.2920406 L23.6495042,30.3843435 L24.8063777,22.5354708 L25.8854498,18.1584376 Z" id="Path" fill="#F2F2F2"></path>
                    <g id="Group" opacity="0.1" transform="translate(18.063228, 16.201916)" fill="#000000">
                        <path d="M8.67215094,0.156330859 C8.67215094,0.156330859 5.98233962,2.0752492 5.23018868,3.72101803 C5.23018868,3.72101803 5.15381132,5.52311771 4.54943396,6.30648993 C3.9450566,7.08986214 3.33735849,11.0084411 3.18626415,15.7086744 C3.03516981,20.4089077 2.35607547,26.6776034 2.35607547,26.6776034 C2.35607547,26.6776034 1.22037736,32.7882503 0.00830188679,33.4152916 C0.00830188679,33.4152916 5.61207547,29.02772 8.33841509,30.5154401 C11.0647547,32.0031601 14.1696604,35.6090774 15.0778868,35.0593425 C15.0778868,35.0593425 14.858717,28.1876564 15.853283,24.5302015 C15.8721006,24.4603393 15.8914717,24.3921951 15.9113962,24.3257688 C16.9723774,20.7181336 16.2899623,15.7859809 17.5020377,13.6746554 C17.5020377,13.6746554 17.5020377,9.84540827 16.8030189,6.98506893 C16.4372155,5.50673596 15.4587829,4.27117521 14.1298113,3.60935313 L10.762566,1.92235419 C10.762566,1.92235419 8.97433962,1.6440509 8.67215094,0.156330859 Z" id="Path"></path>
                    </g>
                    <path d="M26.5942319,16.2019159 C26.5942319,16.2019159 24.0797075,18.0630579 23.3178317,19.6303354 C23.3178317,19.6303354 23.2409758,21.3429126 22.6328117,22.0873694 C22.0246477,22.8318262 21.4131421,26.5557428 21.2611011,31.0224837 C21.1090601,35.4892245 20.4257109,41.4465116 20.4257109,41.4465116 C20.4257109,41.4465116 19.2828972,47.2536012 18.0632275,47.8494932 C18.0632275,47.8494932 23.7021111,43.679882 26.4455324,45.0936969 C29.1889537,46.5075118 32.3083006,49.9261359 33.2238882,49.4102404 C33.2238882,49.4102404 33.0033452,42.8799175 34.0041427,39.4041531 C34.0230782,39.3377615 34.0425706,39.2730025 34.06262,39.209876 C35.1302486,35.7814565 34.4435579,31.0943172 35.6632275,29.0878755 C35.6632275,29.0878755 35.6632275,25.4488531 34.959829,22.7306062 C34.5917337,21.325712 33.6071708,20.15153 32.2698727,19.5225851 L28.8815302,17.9193908 C28.8815302,17.9193908 27.1656388,17.5047153 26.5942319,16.2019159 Z" id="Path" fill="#008C6F"></path>
                    <g id="Group" opacity="0.1" transform="translate(29.796561, 20.114959)" fill="#000000">
                        <path d="M4.13045439,0.594028287 C4.13045439,0.594028287 11.5614196,9.90754322 10.5372338,14.3415401 C10.5372338,14.3415401 6.7294461,13.3744762 5.70526036,14.6633054 C5.70526036,14.6633054 4.90260697,11.6790204 2.48340962,9.98710058 C0.064212272,8.29518072 -2.16716418,-2.55113934 4.13045439,0.594028287 Z" id="Path"></path>
                    </g>
                    <path d="M33.9527657,20.685151 C33.9527657,20.685151 41.4930241,30.0214672 40.4537748,34.4663193 C40.4537748,34.4663193 36.5899829,33.4968879 35.5507337,34.7888724 C35.5507337,34.7888724 34.736275,31.7972813 32.2814966,30.1012193 C29.8267181,28.4051573 27.562523,17.5322834 33.9527657,20.685151 Z" id="Path" fill="#008C6F"></path>
                    <g id="Group" opacity="0.1" transform="translate(20.018783, 12.288872)" fill="#000000">
                        <path d="M6.60146667,1.93817935 C6.47826667,1.37567935 6.58093333,1.3267663 6.71782222,0.715353261 C7.26366667,-1.73029891 0.00684444444,3.64402174 0.00684444444,3.64402174 C0.00684444444,3.64402174 0.410666667,4.0827106 0.912022222,4.72775136 C1.28189433,4.79587813 1.65856945,4.83016421 2.03622222,4.83016421 C4.02111111,4.83169158 5.621,3.33525815 6.60146667,1.93817935 Z" id="Path"></path>
                    </g>
                    <ellipse id="Oval" fill="#FDA57D" cx="21.4854498" cy="10.8214811" rx="5.37777778" ry="5.38043478"></ellipse>
                    <g id="Group" opacity="0.1" transform="translate(15.129894, 0.549742)" fill="#000000">
                        <path d="M1.97284678,8.78585762 C1.18733099,8.89593884 0.18608655,8.61385571 0.0345824561,7.81060678 C-0.156444444,6.77859532 1.15768889,6.11638796 1.36189006,5.09125657 C1.43764211,4.70597229 1.34706901,4.30520784 1.39153216,3.91648352 C1.48045848,3.13043478 2.08812164,2.52670807 2.70895906,2.06918299 C4.66817524,0.633902103 7.05122425,-0.0291884936 9.43442339,0.197802198 C9.73207959,0.20174909 10.0219795,0.297493703 10.2676959,0.473005256 C10.5262409,0.694887721 10.6266947,1.05609173 10.8029006,1.35365504 C11.4122105,2.38566651 12.7790409,2.50090779 13.7572304,3.1407549 C14.9099789,3.88896321 15.4715322,5.35785953 15.5225825,6.7682752 C15.5736327,8.17869087 15.1932257,9.56330626 14.8062316,10.9186813 C14.4768749,12.0710941 14.1475181,13.2544673 13.4295205,14.1970377 C12.7115228,15.1396082 11.5373661,15.8000956 10.4192,15.5162924 C10.9313497,15.1310081 10.5591766,14.2365982 10.0042105,13.9218347 C9.44924444,13.6070712 8.76088889,13.5537506 8.2866152,13.1203058 C7.81234152,12.686861 7.67071813,11.9782131 7.51592047,11.3332059 C7.3216,10.5196369 7.03835322,9.69402771 6.47021287,9.09718108 C5.35204678,7.93616818 3.34132398,8.59321548 1.97284678,8.78585762 Z" id="Path"></path>
                    </g>
                    <path d="M17.1038419,9.73751779 C16.3115956,9.8422146 15.3017721,9.57392902 15.1489698,8.80996946 C14.9563062,7.82843684 16.2816995,7.19862007 16.4876503,6.223631 C16.5640514,5.85719215 16.4727023,5.47603031 16.5175464,5.10631969 C16.6072347,4.35871901 17.2201045,3.78452243 17.8462615,3.3493763 C19.822265,1.98429939 22.2257328,1.35364259 24.6293521,1.56953047 C24.9295587,1.57328431 25.2219426,1.66434576 25.4697644,1.8312725 C25.7305247,2.04230202 25.8318393,2.38583844 26.0095549,2.66884701 C26.6240856,3.65037963 28.0026276,3.75998411 28.9891985,4.36853434 C30.1518242,5.08014549 30.718189,6.47719359 30.7696768,7.81862151 C30.8211645,9.16004943 30.437498,10.476939 30.0471879,11.7660185 C29.7150091,12.8620633 29.3828304,13.9875541 28.6586806,14.8840205 C27.9345309,15.780487 26.7503136,16.4086679 25.6225666,16.1387464 C26.1391046,15.7723075 25.7637426,14.9216459 25.2040214,14.6222785 C24.6443001,14.322911 23.9500465,14.2721985 23.4717091,13.8599548 C22.9933716,13.4477111 22.8521956,12.7737254 22.6861063,12.1602675 C22.4901208,11.3864926 22.204447,10.6012665 21.6314386,10.0336135 C20.5136571,8.92775338 18.4840447,9.55429837 17.1038419,9.73751779 Z" id="Path" fill="#72351C"></path>
                    <path d="M25.3193184,3.72032482 L25.8812385,1.12601701 C25.8924897,1.07576002 25.8809821,1.02353241 25.84928,0.980972556 C25.8175779,0.938412697 25.7683156,0.909057145 25.7124707,0.899447464 L23.727531,0.553539756 C23.671803,0.543393113 23.6138899,0.553771005 23.566697,0.582360834 C23.5195041,0.610950663 23.4869529,0.655376722 23.4762971,0.705739147 L22.914377,3.30004696 L20.9965609,9.71317586 L24.5157534,10.3323507 L25.3193184,3.72032482 Z" id="Path" fill="#CBDAE3"></path>
                    <g id="Group" opacity="0.1" transform="translate(20.018783, 8.375829)" fill="#000000">
                        <ellipse id="Oval" cx="2.91555556" cy="2.95790514" rx="2.83733333" ry="2.83873518"></ellipse>
                    </g>
                    <ellipse id="Oval" fill="#CBDAE3" cx="23.4410053" cy="11.799742" rx="2.44444444" ry="2.44565217"></ellipse>
                    <ellipse id="Oval" fill="#E9E9E9" cx="22.9521164" cy="12.2888724" rx="1.95555556" ry="1.95652174"></ellipse>
                    <ellipse id="Oval" fill="#F48681" cx="22.4632275" cy="11.799742" rx="1" ry="1"></ellipse>
                    <polygon id="Rectangle" fill="#000000" opacity="0.05" transform="translate(24.084600, 3.870250) rotate(11.050000) translate(-24.084600, -3.870250) " points="23.0325657 3.8287961 25.1364166 3.83484628 25.1366346 3.91170449 23.0327836 3.90565431"></polygon>
                    <path d="M9.08881294,39.9527576 C9.78771756,39.9485875 10.3576722,40.5117812 10.3618422,41.2106858 C10.3618721,41.2156958 10.3618723,41.2207059 10.3618427,41.2257158 L10.3396781,44.9758005 C10.3354835,45.6855028 9.76121273,46.2598058 9.0515107,46.2640403 C8.35260608,46.2682104 7.78265145,45.7050167 7.7784814,45.0061121 C7.77845151,45.0011021 7.77845137,44.996092 7.77848098,44.9910821 L7.8006455,41.2409973 C7.80484013,40.5312951 8.37911091,39.956992 9.08881294,39.9527576 Z" id="Rectangle" fill="#CBDAE3" transform="translate(9.070162, 43.108399) rotate(-25.740000) translate(-9.070162, -43.108399) "></path>
                    <g id="Group" opacity="0.1" transform="translate(5.352116, 39.680177)" fill="#000000">
                        <path d="M3.52329938,0.414145383 C4.11702643,0.389630894 4.61821022,0.851068846 4.64272471,1.4447959 C4.64390837,1.4734634 4.64394486,1.50216678 4.6428341,1.5308372 L4.49832147,5.26091692 C4.47283588,5.91873692 3.94628687,6.44662643 3.28853379,6.4737845 C2.69480674,6.49829899 2.19362295,6.03686103 2.16910846,5.44313398 C2.1679248,5.41446648 2.16788831,5.3857631 2.16899908,5.35709268 L2.3135117,1.62701296 C2.3389973,0.969192961 2.8655463,0.441303454 3.52329938,0.414145383 Z" id="Rectangle" transform="translate(3.405917, 3.443965) rotate(-25.740000) translate(-3.405917, -3.443965) "></path>
                    </g>
                    <path d="M9.32568995,39.8367803 C10.0448723,39.8324893 10.6313633,40.4120232 10.6356543,41.1312055 C10.6356851,41.1363608 10.6356852,41.1415163 10.6356548,41.1466716 L10.6139294,44.8224469 C10.6096131,45.5527401 10.0186807,46.1437057 9.28838771,46.1480631 C8.56920539,46.1523541 7.98271436,45.5728202 7.97842333,44.8536379 C7.97839257,44.8484826 7.97839242,44.8433271 7.97842289,44.8381718 L8.00014821,41.1623965 C8.00446454,40.4321032 8.59539695,39.8411376 9.32568995,39.8367803 Z" id="Rectangle" fill="#CBDAE3" transform="translate(9.307039, 42.992422) rotate(-25.740000) translate(-9.307039, -42.992422) "></path>
                    <polygon id="Rectangle" fill="#F2F2F2" transform="translate(9.174486, 42.717528) rotate(-25.740000) translate(-9.174486, -42.717528) " points="8.19289365 40.3288155 10.1843854 40.3169332 10.1560787 45.1062399 8.1645869 45.1181223"></polygon>
                    <circle id="Oval" fill="#F2F2F2" transform="translate(10.464887, 45.345669) rotate(-25.740000) translate(-10.464887, -45.345669) " cx="10.4648872" cy="45.3456691" r="1"></circle>
                </g>
            </g>
        </g>
    </g>
</svg>