<?xml version="1.0" encoding="UTF-8" standalone="no"?>
<!-- Created with Inkscape (http://www.inkscape.org/) -->

<svg
   xmlns:dc="http://purl.org/dc/elements/1.1/"
   xmlns:cc="http://creativecommons.org/ns#"
   xmlns:rdf="http://www.w3.org/1999/02/22-rdf-syntax-ns#"
   xmlns:svg="http://www.w3.org/2000/svg"
   xmlns="http://www.w3.org/2000/svg"
   xmlns:sodipodi="http://sodipodi.sourceforge.net/DTD/sodipodi-0.dtd"
   xmlns:inkscape="http://www.inkscape.org/namespaces/inkscape"
   width="25mm"
   height="22mm"
   viewBox="0 0 25 22"
   version="1.1"
   id="svg8"
   inkscape:version="0.92.2 (5c3e80d, 2017-08-06)"
   sodipodi:docname="logo.svg">
  <defs
     id="defs2" />
  <sodipodi:namedview
     id="base"
     pagecolor="#ffffff"
     bordercolor="#666666"
     borderopacity="1.0"
     inkscape:pageopacity="0.0"
     inkscape:pageshadow="2"
     inkscape:zoom="5.6"
     inkscape:cx="198.2746"
     inkscape:cy="95.60442"
     inkscape:document-units="mm"
     inkscape:current-layer="g36"
     showgrid="false"
     inkscape:window-width="2560"
     inkscape:window-height="1378"
     inkscape:window-x="-8"
     inkscape:window-y="-8"
     inkscape:window-maximized="1" />
  <metadata
     id="metadata5">
    <rdf:RDF>
      <cc:Work
         rdf:about="">
        <dc:format>image/svg+xml</dc:format>
        <dc:type
           rdf:resource="http://purl.org/dc/dcmitype/StillImage" />
        <dc:title></dc:title>
      </cc:Work>
    </rdf:RDF>
  </metadata>
  <g
     inkscape:label="Calque 1"
     inkscape:groupmode="layer"
     id="layer1"
     transform="translate(0,-275)">
    <g
       id="g36"
       transform="matrix(0.26458333,0,0,0.26458333,100.07935,64.98036)">
      <g
         id="g16"
         transform="matrix(2.2061826,0,0,2.2144539,-441.71155,725.03886)">
        <path
           id="path10"
           d="m 40.877,52.084 c 2.303,-2.3 6.046,-2.3 8.345,0 1.525,1.525 3.56,2.365 5.729,2.365 2.169,0 4.203,-0.84 5.729,-2.365 2.301,-2.3 6.043,-2.3 8.344,0 l 1.555,-1.556 c -3.158,-3.158 -8.297,-3.156 -11.453,0 -0.521,0.521 -1.127,0.927 -1.784,1.217 V 32.797 l -1.236,0.155 c -0.131,0.016 -12.886,1.782 -13.418,15.561 -1.232,0.374 -2.392,1.044 -3.364,2.015 -1.108,1.109 -2.59,1.721 -4.172,1.721 -1.581,0 -3.063,-0.611 -4.171,-1.721 l -1.557,1.556 c 1.525,1.525 3.559,2.365 5.728,2.365 2.168,-10e-4 4.201,-0.841 5.725,-2.365 z M 55.141,35.391 v 16.848 c -0.064,0.002 -0.126,0.009 -0.19,0.009 -1.582,0 -3.063,-0.611 -4.173,-1.721 -1.613,-1.613 -3.743,-2.397 -5.863,-2.361 0.567,-9.253 7.365,-12.024 10.226,-12.775 z"
           inkscape:connector-curvature="0" />
        <path
           id="path12"
           d="m 59.125,56.903 c -2.304,2.301 -6.048,2.299 -8.346,0 -3.158,-3.158 -8.297,-3.157 -11.457,0 -1.108,1.109 -2.59,1.72 -4.172,1.72 -1.581,0 -3.063,-0.611 -4.171,-1.72 l -1.557,1.556 c 1.525,1.525 3.56,2.365 5.728,2.365 2.169,0 4.203,-0.84 5.728,-2.365 2.303,-2.299 6.046,-2.3 8.345,0 1.579,1.579 3.653,2.369 5.729,2.369 2.074,0 4.149,-0.79 5.729,-2.369 1.108,-1.109 2.59,-1.719 4.171,-1.719 1.581,0 3.063,0.61 4.172,1.719 l 1.555,-1.556 c -1.524,-1.524 -3.559,-2.364 -5.727,-2.364 -2.17,10e-4 -4.204,0.84 -5.727,2.364 z"
           inkscape:connector-curvature="0" />
        <path
           id="path14"
           d="m 59.125,63.279 c -2.304,2.301 -6.048,2.3 -8.346,0 -3.158,-3.158 -8.297,-3.157 -11.457,0 -1.108,1.109 -2.59,1.72 -4.172,1.72 -1.581,0 -3.063,-0.611 -4.171,-1.72 l -1.557,1.556 c 1.525,1.525 3.56,2.365 5.728,2.365 2.169,0 4.203,-0.84 5.728,-2.365 2.303,-2.298 6.046,-2.3 8.345,0 1.579,1.579 3.653,2.369 5.729,2.369 2.074,0 4.149,-0.79 5.729,-2.369 1.108,-1.109 2.59,-1.719 4.171,-1.719 1.581,0 3.063,0.61 4.172,1.719 l 1.555,-1.556 c -1.524,-1.524 -3.559,-2.364 -5.727,-2.364 -2.17,0 -4.204,0.839 -5.727,2.364 z"
           inkscape:connector-curvature="0" />
      </g>
    </g>
  </g>
</svg>
