<svg height='100px' width='100px'  fill="#000000" xmlns="http://www.w3.org/2000/svg" xmlns:xlink="http://www.w3.org/1999/xlink" version="1.1" x="0px" y="0px" viewBox="0 0 128 128" enable-background="new 0 0 128 128" xml:space="preserve"><g><rect x="24" y="112" width="40" height="4"></rect><path d="M6,100h26v0v2H14c-6.6,0-12,5.4-12,12s5.4,12,12,12h60c6.6,0,12-5.4,12-12s-5.4-12-12-12H56v-2l10,0c3.9,0,7-3.1,7-7V80.7   c0-2.1-0.6-4.2-1.6-6l-5.5-9.5l21.7-33.6l26.1,44.9c0.9,1.5,2.3,2.6,4,3c0.6,0.1,1.1,0.2,1.7,0.2c0.1,0,0.2,0,0.3,0v4.6l-28.7,6.3   l-2.5-4.5l-3.5,2l6.8,12.2c4.3,7.7,12.4,12.2,20.8,12.2c1.9,0,3.8-0.2,5.8-0.7c3.1-0.8,5.3-3.6,5.3-6.8V78.2c2.3-2,2.9-5.4,1.4-8.1   l-28.8-52c1.5-3,0.6-6.7-2.2-8.7c-3-2.2-7.2-1.6-9.5,1.4L53.8,50c-0.2,0-0.5,0-0.7,0H32v15H20c-2.2,0-4,1.8-4,4v6H6   c-2.2,0-4,1.8-4,4v17C2,98.2,3.8,100,6,100z M119.6,105.1c0,1.4-0.9,2.6-2.3,2.9c-8.7,2.2-17.8-1.8-22.1-9.6l-2.3-4.1l26.7-5.9   V105.1z M82,114c0,4.4-3.6,8-8,8H14c-4.4,0-8-3.6-8-8s3.6-8,8-8h60C78.4,106,82,109.6,82,114z M52,102H36v-2l16,0V102z M69,80.7   v5.9l-24.6-4.8C43,81.5,42,80.3,42,78.9V54h11.1c1.1,0,2.1,0.6,2.6,1.5l12.2,21.2C68.6,77.9,69,79.3,69,80.7z M120.6,75.5   c-0.6,0.3-1.3,0.4-1.9,0.3c-0.7-0.2-1.2-0.6-1.6-1.2L90,27.9l3.8-5.9L121.6,72C122.2,73.2,121.8,74.8,120.6,75.5z M87.8,13.2   c1-1.2,2.7-1.5,4-0.6c1.3,0.9,1.6,2.6,0.8,4L63.7,61.3l-4.5-7.8c-0.4-0.7-0.9-1.3-1.5-1.8L87.8,13.2z M36,54h2v24.9   c0,3.4,2.4,6.2,5.7,6.9L69,90.6V93c0,1.7-1.3,3-3,3l-30,0V54z M20,69h12v6H20V69z M6,79h3v7h4v-7h19v17H6V79z"></path><circle cx="14" cy="114" r="3"></circle><circle cx="74" cy="114" r="3"></circle></g></svg>