<?xml version="1.0" encoding="UTF-8" standalone="no"?>
<!-- Generator: Adobe Illustrator 19.2.1, SVG Export Plug-In . SVG Version: 6.00 Build 0)  -->

<svg
   xmlns:dc="http://purl.org/dc/elements/1.1/"
   xmlns:cc="http://creativecommons.org/ns#"
   xmlns:rdf="http://www.w3.org/1999/02/22-rdf-syntax-ns#"
   xmlns:svg="http://www.w3.org/2000/svg"
   xmlns="http://www.w3.org/2000/svg"
   xmlns:sodipodi="http://sodipodi.sourceforge.net/DTD/sodipodi-0.dtd"
   xmlns:inkscape="http://www.inkscape.org/namespaces/inkscape"
   version="1.1"
   x="0px"
   y="0px"
   viewBox="0 0 40 40"
   style="enable-background:new 0 0 40 40;"
   xml:space="preserve"
   id="svg20"
   sodipodi:docname="Points.svg"
   inkscape:version="0.92.4 (5da689c313, 2019-01-14)"><metadata
   id="metadata26"><rdf:RDF><cc:Work
       rdf:about=""><dc:format>image/svg+xml</dc:format><dc:type
         rdf:resource="http://purl.org/dc/dcmitype/StillImage" /></cc:Work></rdf:RDF></metadata><defs
   id="defs24" /><sodipodi:namedview
   pagecolor="#ffffff"
   bordercolor="#666666"
   borderopacity="1"
   objecttolerance="10"
   gridtolerance="10"
   guidetolerance="10"
   inkscape:pageopacity="0"
   inkscape:pageshadow="2"
   inkscape:window-width="1408"
   inkscape:window-height="761"
   id="namedview22"
   showgrid="false"
   inkscape:zoom="11.8"
   inkscape:cx="14.552498"
   inkscape:cy="20.601059"
   inkscape:window-x="2753"
   inkscape:window-y="234"
   inkscape:window-maximized="0"
   inkscape:current-layer="g34-5-2" />



<g
   id="g34-5-2"
   transform="matrix(1.5762712,0,0,1.5762712,-1.8559325,-20.974577)"><circle
     style="fill:#dff0fe;stroke-width:1.40860212"
     cx="8.2204304"
     cy="19.38172"
     id="circle28-7-7"
     r="2.8172042" /><g
     id="g32-2-9"
     transform="matrix(1.4086021,0,0,1.4086021,-22.064516,-19.354839)"><path
       style="fill:#4788c7"
       d="M 21.5,26 C 22.327,26 23,26.673 23,27.5 23,28.327 22.327,29 21.5,29 20.673,29 20,28.327 20,27.5 20,26.673 20.673,26 21.5,26 m 0,-1 C 20.119,25 19,26.119 19,27.5 19,28.881 20.119,30 21.5,30 22.881,30 24,28.881 24,27.5 24,26.119 22.881,25 21.5,25 Z"
       id="path30-1-3"
       inkscape:connector-curvature="0" /></g><circle
     style="fill:#dff0fe;stroke-width:1.40860224"
     cx="20.209679"
     cy="26.854841"
     id="circle28-7-7-6"
     r="2.8172045" /><g
     id="g32-2-9-5"
     transform="matrix(1.4086021,0,0,1.4086021,-10.075268,-11.881718)"><path
       style="fill:#4788c7"
       d="M 21.5,26 C 22.327,26 23,26.673 23,27.5 23,28.327 22.327,29 21.5,29 20.673,29 20,28.327 20,27.5 20,26.673 20.673,26 21.5,26 m 0,-1 C 20.119,25 19,26.119 19,27.5 19,28.881 20.119,30 21.5,30 22.881,30 24,28.881 24,27.5 24,26.119 22.881,25 21.5,25 Z"
       id="path30-1-3-8"
       inkscape:connector-curvature="0" /></g><circle
     style="fill:#dff0fe;stroke-width:1.40860224"
     cx="9.564517"
     cy="32.768818"
     id="circle28-7-7-9"
     r="2.8172045" /><g
     id="g32-2-9-7"
     transform="matrix(1.4086021,0,0,1.4086021,-20.720429,-5.96774)"><path
       style="fill:#4788c7"
       d="M 21.5,26 C 22.327,26 23,26.673 23,27.5 23,28.327 22.327,29 21.5,29 20.673,29 20,28.327 20,27.5 20,26.673 20.673,26 21.5,26 m 0,-1 C 20.119,25 19,26.119 19,27.5 19,28.881 20.119,30 21.5,30 22.881,30 24,28.881 24,27.5 24,26.119 22.881,25 21.5,25 Z"
       id="path30-1-3-2"
       inkscape:connector-curvature="0" /></g></g></svg>
