<?xml version="1.0" encoding="UTF-8" standalone="no"?>
<svg
   xmlns:dc="http://purl.org/dc/elements/1.1/"
   xmlns:cc="http://creativecommons.org/ns#"
   xmlns:rdf="http://www.w3.org/1999/02/22-rdf-syntax-ns#"
   xmlns:svg="http://www.w3.org/2000/svg"
   xmlns="http://www.w3.org/2000/svg"
   xmlns:xlink="http://www.w3.org/1999/xlink"
   xmlns:sodipodi="http://sodipodi.sourceforge.net/DTD/sodipodi-0.dtd"
   xmlns:inkscape="http://www.inkscape.org/namespaces/inkscape"
   inkscape:version="1.0 (4035a4fb49, 2020-05-01)"
   sodipodi:docname="lockout.svg"
   version="1.1"
   viewBox="0 0 950.33006 538.33003"
   height="538.33002"
   width="950.33002"
   data-name="Layer 1"
   id="06c42c9d-6d9c-45ee-a61b-17902c1dca73">
  <metadata
     id="metadata178">
    <rdf:RDF>
      <cc:Work
         rdf:about="">
        <dc:format>image/svg+xml</dc:format>
        <dc:type
           rdf:resource="http://purl.org/dc/dcmitype/StillImage" />
        <dc:title>security</dc:title>
      </cc:Work>
    </rdf:RDF>
  </metadata>
  <sodipodi:namedview
     inkscape:current-layer="06c42c9d-6d9c-45ee-a61b-17902c1dca73"
     inkscape:window-maximized="1"
     inkscape:window-y="-8"
     inkscape:window-x="1912"
     inkscape:cy="312.33647"
     inkscape:cx="456.64497"
     inkscape:zoom="1.0719555"
     showgrid="false"
     id="namedview176"
     inkscape:window-height="1377"
     inkscape:window-width="2560"
     inkscape:pageshadow="2"
     inkscape:pageopacity="0"
     guidetolerance="10"
     gridtolerance="10"
     objecttolerance="10"
     borderopacity="1"
     bordercolor="#666666"
     pagecolor="#ffffff" />
  <defs
     id="defs10">
    <linearGradient
       gradientUnits="userSpaceOnUse"
       y2="107.75"
       x2="591.29999"
       y1="646.08002"
       x1="591.29999"
       id="2f697947-2a6f-450c-95af-56e5336b1d5f">
      <stop
         id="stop2"
         stop-opacity="0.25"
         stop-color="gray"
         offset="0" />
      <stop
         id="stop4"
         stop-opacity="0.12"
         stop-color="gray"
         offset="0.54" />
      <stop
         id="stop6"
         stop-opacity="0.1"
         stop-color="gray"
         offset="1" />
    </linearGradient>
    <linearGradient
       xlink:href="#2f697947-2a6f-450c-95af-56e5336b1d5f"
       y2="289.29001"
       x2="944.34003"
       y1="854.66998"
       x1="944.34003"
       id="2563b911-9cd4-457d-b636-acc38b40f33a" />
    <linearGradient
       gradientTransform="translate(-116.14,-107.75)"
       y2="107.75"
       x2="591.29999"
       y1="646.08002"
       x1="591.29999"
       gradientUnits="userSpaceOnUse"
       id="linearGradient1003"
       xlink:href="#2f697947-2a6f-450c-95af-56e5336b1d5f"
       inkscape:collect="always" />
  </defs>
  <title
     id="title12">security</title>
  <rect
     style="fill:url(#linearGradient1003)"
     id="rect20"
     fill="url(#2f697947-2a6f-450c-95af-56e5336b1d5f)"
     ry="12.49"
     rx="12.49"
     height="538.33002"
     width="950.33002"
     y="0"
     x="0" />
  <rect
     id="rect22"
     fill="#ffffff"
     ry="12.49"
     rx="12.49"
     height="528.96997"
     width="947.41998"
     y="7.5699997"
     x="1.5100021" />
  <rect
     id="rect24"
     fill="#ffffff"
     ry="12.49"
     rx="12.49"
     height="528.96997"
     width="947.41998"
     y="7.5699997"
     x="1.5100021" />
  <rect
     id="rect26"
     opacity="0.04"
     fill="#ffffff"
     ry="12.49"
     rx="12.49"
     height="528.96997"
     width="947.41998"
     y="7.5699997"
     x="1.5100021" />
  <path
     id="path28"
     fill="#5a5773"
     d="M 944.12,1.5 H 6.3200006 a 4.81,4.81 0 0 0 -4.81,4.81 V 26.64 H 948.89 V 6.31 A 4.81,4.81 0 0 0 944.12,1.5 Z" />
  <g
     transform="translate(-116.14,-107.75)"
     data-name="buttons"
     id="6c975d28-8d47-4ade-9154-b3b78f637b65">
    <circle
       id="circle30"
       fill="#ffffff"
       r="6.5"
       cy="121.82"
       cx="136.57001" />
    <circle
       id="circle32"
       fill="#ffffff"
       r="6.5"
       cy="121.82"
       cx="154.07001" />
    <circle
       id="circle34"
       fill="#ffffff"
       r="6.5"
       cy="121.82"
       cx="171.57001" />
  </g>
  <rect
     id="rect39"
     opacity="0.1"
     fill="#5a5773"
     height="331.95999"
     width="791.35999"
     y="160.45001"
     x="79.539993" />
  <path
     id="path41"
     opacity="0.1"
     d="m 542.89,182.1 h -13.55 v -26.32 c 0,-29.7 -23.68,-54.39 -53.38,-54.84 a 54.28,54.28 0 0 0 -54.85,54.11 v 27.05 h -13.52 a 22.62,22.62 0 0 0 -22.55,22.55 v 108.22 a 22.62,22.62 0 0 0 22.55,22.55 h 135.3 a 22.61,22.61 0 0 0 22.54,-22.55 V 204.65 A 22.61,22.61 0 0 0 542.89,182.1 Z m -59.75,70.35 v 38.76 a 8.09,8.09 0 0 1 -7.5,8.12 7.91,7.91 0 0 1 -8.28,-7.9 v -39 a 18,18 0 1 1 15.78,0 z m 30.44,-70.35 h -76.69 v -27.05 a 38.33,38.33 0 0 1 76.66,0 z" />
  <path
     id="path43"
     fill="#008c6f"
     d="m 542.89,180.1 h -13.55 v -26.32 c 0,-29.7 -23.68,-54.39 -53.38,-54.84 a 54.28,54.28 0 0 0 -54.85,54.11 v 27.05 h -13.52 a 22.62,22.62 0 0 0 -22.55,22.55 v 108.22 a 22.62,22.62 0 0 0 22.55,22.55 h 135.3 a 22.61,22.61 0 0 0 22.54,-22.55 V 202.65 A 22.61,22.61 0 0 0 542.89,180.1 Z m -59.75,70.35 v 38.76 a 8.09,8.09 0 0 1 -7.5,8.12 7.91,7.91 0 0 1 -8.28,-7.9 v -39 a 18,18 0 1 1 15.78,0 z m 30.44,-70.35 h -76.69 v -27.05 a 38.33,38.33 0 0 1 76.66,0 z" />
</svg>
